<?xml version="1.0" standalone="no"?>
<svg width="567" height="328" viewBox="0 0 567 328" xmlns="http://www.w3.org/2000/svg">
<title>
music2_mu_lifetime_good.svg
</title>
<desc>
Creator: ROOT Version 5.34/18
CreationDate: Sun Jul 20 00:14:05 2014</desc>
<defs>
</defs>
<rect x="0" y="0" width="567" height="328" fill="white"/>
<rect x="0" y="0" width="567" height="230" fill="white"/>
<rect x="57" y="23" width="453" height="207" fill="white"/>
<rect x="57" y="23" width="453" height="207" fill="none" stroke="black"/>
<rect x="57" y="23" width="453" height="207" fill="white"/>
<rect x="57" y="23" width="453" height="207" fill="none" stroke="black"/>
<path d="M57,33h 3v 82h 4v 32h 4v 12h 4v 12h 4v 7h 3v 1h 4v 5h 4v 4h 4v -1h 3v 5h 4v 4h 4v 2h 4v 4h 4v -4h 3v 7h 4v -5h 4v 1h 4v 3h 4v -3h 7v 3h 4v 5h 4v -5h 3v 3h 4v -1h 4v -1h 4v 2h 7v 3h 4v 2h 4v -2h 4v -2h 3v 3h 4v 1h 4v -1h 4v 6h 7v -4h 4v 1h 4v
 2h 4v -4h 7v 1h 4v -1h 4v 1h 4v -3h 3v 5h 4v -5h 4v 6h 4v -3h 3v -1h 4v 4h 4v -3h 4v 5h 4v -2h 7v 3h 4v -7h 4v 4h 3v -5h 4v 4h 4v 1h 4v -1h 4v 1h 7v 4h 4v -6h 7v 3h 4v 3h 4v -1h 4v -3h 4v 2h 7v 1h 4v -2h 4v -3h 3v 4h 4v -3h 4v -1h 4v 5h 4v -4h 3v
 -2h 4v 1h 4v 1h 4v 4h 4v -1h 3v -4h 8v 4h 4v -1h 3v -1h 16v 3h 3v -3h 4v -1h 4v 3h 4v -4h 3v 4h 4v -2h 4v -1h 4v 3h 4v -2h 3v 3h 4v -2h 8v 2h 3v -1h 4v -3h 4v 2h 11v -2h 4v 5h 4v -5h 4v 3h 3v 2h 4" fill="none" stroke="#000099"/>
<path d="M71,171l 5, 4l 4, 4l 5, 3l 4, 3l 4, 3l 5, 3l 4, 2l 5, 2l 4, 2l 5, 2l 4, 1l 4, 2l 5, 1l 4, 1l 5, 2h 4l 4, 1l 5, 1l 4, 1l 5, 1h 4l 4, 1h 5l 4, 1h 5l 4, 1h 9l 4, 1h 18l 4, 1h 31l 5, 1h 31" fill="none" stroke="#ff0000" stroke-width="2"/>
<path d="M288,216h 216" fill="none" stroke="#ff0000" stroke-width="2"/>
<path d="M504,216h 4" fill="none" stroke="#ff0000" stroke-width="2"/>
<rect x="340" y="23" width="170" height="80" fill="white"/>
<path d="M340,103h 170" fill="none" stroke="black"/>
<path d="M510,103v -80" fill="none" stroke="black"/>
<path d="M510,23h -170" fill="none" stroke="black"/>
<path d="M340,23v 80" fill="none" stroke="black"/>
<text x="348" y="31" fill="black" font-size="10" font-family="Helvetica">
Entries 
</text>
<text x="465" y="31" fill="black" font-size="10" font-family="Helvetica">
 915559
</text>
<text x="348" y="43" fill="black" font-size="10" font-family="Helvetica">
Mean  
</text>
<text x="470" y="44" fill="black" font-size="10" font-family="Helvetica">
  7.877
</text>
<text x="462" y="44" fill="black" font-size="10" font-family="Times">
&#0177;
</text>
<text x="428" y="44" fill="black" font-size="10" font-family="Helvetica">
   9513 
</text>
<text x="348" y="54" fill="black" font-size="10" font-family="Helvetica">
RMS   
</text>
<text x="473" y="55" fill="black" font-size="10" font-family="Helvetica">
   5.57
</text>
<text x="465" y="55" fill="black" font-size="10" font-family="Times">
&#0177;
</text>
<text x="431" y="55" fill="black" font-size="10" font-family="Helvetica">
   5932 
</text>
<text x="357" y="67" fill="black" font-size="10" font-family="Helvetica">
 / ndf 
</text>
<text x="354" y="59" fill="black" font-size="6" font-family="Helvetica">
2
</text>
<text x="348" y="67" fill="black" font-size="10" font-family="Times">
&#0967;
</text>
<text x="448" y="66" fill="black" font-size="10" font-family="Helvetica">
 192.6 / 114
</text>
<text x="360" y="75" fill="black" font-size="10" font-family="Helvetica">
    
</text>
<text x="356" y="81" fill="black" font-size="6" font-family="Helvetica">
B
</text>
<text x="348" y="75" fill="black" font-size="10" font-family="Helvetica">
N
</text>
<text x="485" y="78" fill="black" font-size="10" font-family="Helvetica">
 8.4
</text>
<text x="477" y="78" fill="black" font-size="10" font-family="Times">
&#0177;
</text>
<text x="445" y="78" fill="black" font-size="10" font-family="Helvetica">
  4443 
</text>
<text x="361" y="86" fill="black" font-size="10" font-family="Helvetica">
  
</text>
<text x="356" y="92" fill="black" font-size="6" font-family="Times">
&#0956;
</text>
<text x="348" y="86" fill="black" font-size="10" font-family="Helvetica">
N
</text>
<text x="479" y="90" fill="black" font-size="10" font-family="Helvetica">
 82.3
</text>
<text x="471" y="90" fill="black" font-size="10" font-family="Times">
&#0177;
</text>
<text x="440" y="90" fill="black" font-size="10" font-family="Helvetica">
  2297 
</text>
<text x="352" y="101" fill="black" font-size="10" font-family="Helvetica">
     
</text>
<text x="348" y="101" fill="black" font-size="10" font-family="Times">
&#0964;
</text>
<text x="479" y="101" fill="black" font-size="10" font-family="Helvetica">
 88.6
</text>
<text x="471" y="101" fill="black" font-size="10" font-family="Times">
&#0177;
</text>
<text x="440" y="101" fill="black" font-size="10" font-family="Helvetica">
  2016 
</text>
<path d="M57,230h 453" fill="none" stroke="black"/>
<text x="477" y="244" fill="black" font-size="7" font-family="Helvetica">
Time (ns)
</text>
<path d="M101,224v 6" fill="none" stroke="black"/>
<path d="M112,227v 3" fill="none" stroke="black"/>
<path d="M124,227v 3" fill="none" stroke="black"/>
<path d="M135,227v 3" fill="none" stroke="black"/>
<path d="M146,224v 6" fill="none" stroke="black"/>
<path d="M158,227v 3" fill="none" stroke="black"/>
<path d="M169,227v 3" fill="none" stroke="black"/>
<path d="M181,227v 3" fill="none" stroke="black"/>
<path d="M192,224v 6" fill="none" stroke="black"/>
<path d="M203,227v 3" fill="none" stroke="black"/>
<path d="M215,227v 3" fill="none" stroke="black"/>
<path d="M226,227v 3" fill="none" stroke="black"/>
<path d="M237,224v 6" fill="none" stroke="black"/>
<path d="M249,227v 3" fill="none" stroke="black"/>
<path d="M260,227v 3" fill="none" stroke="black"/>
<path d="M272,227v 3" fill="none" stroke="black"/>
<path d="M283,224v 6" fill="none" stroke="black"/>
<path d="M294,227v 3" fill="none" stroke="black"/>
<path d="M306,227v 3" fill="none" stroke="black"/>
<path d="M317,227v 3" fill="none" stroke="black"/>
<path d="M328,224v 6" fill="none" stroke="black"/>
<path d="M340,227v 3" fill="none" stroke="black"/>
<path d="M351,227v 3" fill="none" stroke="black"/>
<path d="M362,227v 3" fill="none" stroke="black"/>
<path d="M374,224v 6" fill="none" stroke="black"/>
<path d="M385,227v 3" fill="none" stroke="black"/>
<path d="M397,227v 3" fill="none" stroke="black"/>
<path d="M408,227v 3" fill="none" stroke="black"/>
<path d="M419,224v 6" fill="none" stroke="black"/>
<path d="M431,227v 3" fill="none" stroke="black"/>
<path d="M442,227v 3" fill="none" stroke="black"/>
<path d="M453,227v 3" fill="none" stroke="black"/>
<path d="M465,224v 6" fill="none" stroke="black"/>
<path d="M476,227v 3" fill="none" stroke="black"/>
<path d="M488,227v 3" fill="none" stroke="black"/>
<path d="M499,227v 3" fill="none" stroke="black"/>
<path d="M510,224v 6" fill="none" stroke="black"/>
<path d="M101,224v 6" fill="none" stroke="black"/>
<path d="M90,227v 3" fill="none" stroke="black"/>
<path d="M78,227v 3" fill="none" stroke="black"/>
<path d="M67,227v 3" fill="none" stroke="black"/>
<text x="92" y="237" fill="black" font-size="7" font-family="Helvetica">
2000
</text>
<text x="138" y="237" fill="black" font-size="7" font-family="Helvetica">
4000
</text>
<text x="183" y="237" fill="black" font-size="7" font-family="Helvetica">
6000
</text>
<text x="228" y="237" fill="black" font-size="7" font-family="Helvetica">
8000
</text>
<text x="272" y="237" fill="black" font-size="7" font-family="Helvetica">
10000
</text>
<text x="317" y="237" fill="black" font-size="7" font-family="Helvetica">
12000
</text>
<text x="363" y="237" fill="black" font-size="7" font-family="Helvetica">
14000
</text>
<text x="408" y="237" fill="black" font-size="7" font-family="Helvetica">
16000
</text>
<text x="453" y="237" fill="black" font-size="7" font-family="Helvetica">
18000
</text>
<text x="499" y="237" fill="black" font-size="7" font-family="Helvetica">
20000
</text>
<path d="M57,230v -207" fill="none" stroke="black"/>
<g transform="rotate(-90,27,48)">
<text x="27" y="48" fill="black" font-size="7" font-family="Helvetica">
Counts
</text>
</g>
<path d="M72,229h -15" fill="none" stroke="black"/>
<path d="M64,223h -7" fill="none" stroke="black"/>
<path d="M64,218h -7" fill="none" stroke="black"/>
<path d="M64,212h -7" fill="none" stroke="black"/>
<path d="M64,206h -7" fill="none" stroke="black"/>
<path d="M72,201h -15" fill="none" stroke="black"/>
<path d="M64,195h -7" fill="none" stroke="black"/>
<path d="M64,189h -7" fill="none" stroke="black"/>
<path d="M64,184h -7" fill="none" stroke="black"/>
<path d="M64,178h -7" fill="none" stroke="black"/>
<path d="M72,172h -15" fill="none" stroke="black"/>
<path d="M64,167h -7" fill="none" stroke="black"/>
<path d="M64,161h -7" fill="none" stroke="black"/>
<path d="M64,156h -7" fill="none" stroke="black"/>
<path d="M64,150h -7" fill="none" stroke="black"/>
<path d="M72,144h -15" fill="none" stroke="black"/>
<path d="M64,139h -7" fill="none" stroke="black"/>
<path d="M64,133h -7" fill="none" stroke="black"/>
<path d="M64,127h -7" fill="none" stroke="black"/>
<path d="M64,122h -7" fill="none" stroke="black"/>
<path d="M72,116h -15" fill="none" stroke="black"/>
<path d="M64,111h -7" fill="none" stroke="black"/>
<path d="M64,105h -7" fill="none" stroke="black"/>
<path d="M64,99h -7" fill="none" stroke="black"/>
<path d="M64,94h -7" fill="none" stroke="black"/>
<path d="M72,88h -15" fill="none" stroke="black"/>
<path d="M64,82h -7" fill="none" stroke="black"/>
<path d="M64,77h -7" fill="none" stroke="black"/>
<path d="M64,71h -7" fill="none" stroke="black"/>
<path d="M64,65h -7" fill="none" stroke="black"/>
<path d="M72,60h -15" fill="none" stroke="black"/>
<path d="M64,54h -7" fill="none" stroke="black"/>
<path d="M64,49h -7" fill="none" stroke="black"/>
<path d="M64,43h -7" fill="none" stroke="black"/>
<path d="M64,37h -7" fill="none" stroke="black"/>
<path d="M72,32h -15" fill="none" stroke="black"/>
<path d="M72,229h -15" fill="none" stroke="black"/>
<path d="M72,32h -15" fill="none" stroke="black"/>
<path d="M64,26h -7" fill="none" stroke="black"/>
<text x="36" y="231" fill="black" font-size="7" font-family="Helvetica">
4000
</text>
<text x="36" y="203" fill="black" font-size="7" font-family="Helvetica">
5000
</text>
<text x="36" y="175" fill="black" font-size="7" font-family="Helvetica">
6000
</text>
<text x="36" y="147" fill="black" font-size="7" font-family="Helvetica">
7000
</text>
<text x="36" y="118" fill="black" font-size="7" font-family="Helvetica">
8000
</text>
<text x="36" y="90" fill="black" font-size="7" font-family="Helvetica">
9000
</text>
<text x="32" y="62" fill="black" font-size="7" font-family="Helvetica">
10000
</text>
<text x="32" y="34" fill="black" font-size="7" font-family="Helvetica">
11000
</text>
<rect x="340" y="23" width="170" height="80" fill="white"/>
<path d="M340,103h 170" fill="none" stroke="black"/>
<path d="M510,103v -80" fill="none" stroke="black"/>
<path d="M510,23h -170" fill="none" stroke="black"/>
<path d="M340,23v 80" fill="none" stroke="black"/>
<text x="348" y="31" fill="black" font-size="10" font-family="Helvetica">
Entries 
</text>
<text x="465" y="31" fill="black" font-size="10" font-family="Helvetica">
 915559
</text>
<text x="348" y="43" fill="black" font-size="10" font-family="Helvetica">
Mean  
</text>
<text x="470" y="44" fill="black" font-size="10" font-family="Helvetica">
  7.877
</text>
<text x="462" y="44" fill="black" font-size="10" font-family="Times">
&#0177;
</text>
<text x="428" y="44" fill="black" font-size="10" font-family="Helvetica">
   9513 
</text>
<text x="348" y="54" fill="black" font-size="10" font-family="Helvetica">
RMS   
</text>
<text x="473" y="55" fill="black" font-size="10" font-family="Helvetica">
   5.57
</text>
<text x="465" y="55" fill="black" font-size="10" font-family="Times">
&#0177;
</text>
<text x="431" y="55" fill="black" font-size="10" font-family="Helvetica">
   5932 
</text>
<text x="357" y="67" fill="black" font-size="10" font-family="Helvetica">
 / ndf 
</text>
<text x="354" y="59" fill="black" font-size="6" font-family="Helvetica">
2
</text>
<text x="348" y="67" fill="black" font-size="10" font-family="Times">
&#0967;
</text>
<text x="448" y="66" fill="black" font-size="10" font-family="Helvetica">
 192.6 / 114
</text>
<text x="360" y="75" fill="black" font-size="10" font-family="Helvetica">
    
</text>
<text x="356" y="81" fill="black" font-size="6" font-family="Helvetica">
B
</text>
<text x="348" y="75" fill="black" font-size="10" font-family="Helvetica">
N
</text>
<text x="485" y="78" fill="black" font-size="10" font-family="Helvetica">
 8.4
</text>
<text x="477" y="78" fill="black" font-size="10" font-family="Times">
&#0177;
</text>
<text x="445" y="78" fill="black" font-size="10" font-family="Helvetica">
  4443 
</text>
<text x="361" y="86" fill="black" font-size="10" font-family="Helvetica">
  
</text>
<text x="356" y="92" fill="black" font-size="6" font-family="Times">
&#0956;
</text>
<text x="348" y="86" fill="black" font-size="10" font-family="Helvetica">
N
</text>
<text x="479" y="90" fill="black" font-size="10" font-family="Helvetica">
 82.3
</text>
<text x="471" y="90" fill="black" font-size="10" font-family="Times">
&#0177;
</text>
<text x="440" y="90" fill="black" font-size="10" font-family="Helvetica">
  2297 
</text>
<text x="352" y="101" fill="black" font-size="10" font-family="Helvetica">
     
</text>
<text x="348" y="101" fill="black" font-size="10" font-family="Times">
&#0964;
</text>
<text x="479" y="101" fill="black" font-size="10" font-family="Helvetica">
 88.6
</text>
<text x="471" y="101" fill="black" font-size="10" font-family="Times">
&#0177;
</text>
<text x="440" y="101" fill="black" font-size="10" font-family="Helvetica">
  2016 
</text>
<path d="M71,171l 5, 4l 4, 4l 5, 3l 4, 3l 4, 3l 5, 3l 4, 2l 5, 2l 4, 2l 5, 2l 4, 1l 4, 2l 5, 1l 4, 1l 5, 2h 4l 4, 1l 5, 1l 4, 1l 5, 1h 4l 4, 1h 5l 4, 1h 5l 4, 1h 9l 4, 1h 18l 4, 1h 31l 5, 1h 31" fill="none" stroke="#ff0000" stroke-width="2"/>
<path d="M288,216h 216" fill="none" stroke="#ff0000" stroke-width="2"/>
<path d="M504,216h 4" fill="none" stroke="#ff0000" stroke-width="2"/>
<text x="214" y="12" fill="black" font-size="12" font-family="Helvetica">
Muon lifetime at MuSIC2
</text>
<rect x="0" y="230" width="567" height="98" fill="white"/>
<rect x="57" y="230" width="453" height="78" fill="none" stroke="black"/>
<rect x="57" y="230" width="453" height="78" fill="none" stroke="black"/>
<rect x="57" y="230" width="453" height="78" fill="none" stroke="black"/>
<rect x="57" y="230" width="453" height="78" fill="none" stroke="black"/>
<path d="M57,276h 3h -3z" fill="#0000ff"/>
<path d="M60,276h 4h -4z" fill="#0000ff"/>
<path d="M64,276h 4h -4z" fill="#0000ff"/>
<path d="M68,276h 4v -43h -4z" fill="#0000ff"/>
<path d="M72,276h 4v -8h -4z" fill="#0000ff"/>
<path d="M76,276h 3v 7h -3z" fill="#0000ff"/>
<path d="M79,276h 4v -2h -4z" fill="#0000ff"/>
<path d="M83,276h 4v 6h -4z" fill="#0000ff"/>
<path d="M87,276h 4v 11h -4z" fill="#0000ff"/>
<path d="M91,276h 3h -3z" fill="#0000ff"/>
<path d="M94,276h 4v 10h -4z" fill="#0000ff"/>
<path d="M98,276h 4v 18h -4z" fill="#0000ff"/>
<path d="M102,276h 4v 19h -4z" fill="#0000ff"/>
<path d="M106,276h 4v 26h -4z" fill="#0000ff"/>
<path d="M110,276h 3v 2h -3z" fill="#0000ff"/>
<path d="M113,276h 4v 29h -4z" fill="#0000ff"/>
<path d="M117,276h 4v -3h -4z" fill="#0000ff"/>
<path d="M121,276h 4v -1h -4z" fill="#0000ff"/>
<path d="M125,276h 4v 8h -4z" fill="#0000ff"/>
<path d="M129,276h 3v -13h -3z" fill="#0000ff"/>
<path d="M132,276h 4v -17h -4z" fill="#0000ff"/>
<path d="M136,276h 4v -6h -4z" fill="#0000ff"/>
<path d="M140,276h 4v 10h -4z" fill="#0000ff"/>
<path d="M144,276h 3v -14h -3z" fill="#0000ff"/>
<path d="M147,276h 4v -3h -4z" fill="#0000ff"/>
<path d="M151,276h 4v -10h -4z" fill="#0000ff"/>
<path d="M155,276h 4v -16h -4z" fill="#0000ff"/>
<path d="M159,276h 4v -11h -4z" fill="#0000ff"/>
<path d="M163,276h 3v -15h -3z" fill="#0000ff"/>
<path d="M166,276h 4v -5h -4z" fill="#0000ff"/>
<path d="M170,276h 4v 5h -4z" fill="#0000ff"/>
<path d="M174,276h 4v -5h -4z" fill="#0000ff"/>
<path d="M178,276h 3v -16h -3z" fill="#0000ff"/>
<path d="M181,276h 4v -5h -4z" fill="#0000ff"/>
<path d="M185,276h 4v -2h -4z" fill="#0000ff"/>
<path d="M189,276h 4v -8h -4z" fill="#0000ff"/>
<path d="M193,276h 4v 15h -4z" fill="#0000ff"/>
<path d="M197,276h 3v 17h -3z" fill="#0000ff"/>
<path d="M200,276h 4v -3h -4z" fill="#0000ff"/>
<path d="M204,276h 4v -1h -4z" fill="#0000ff"/>
<path d="M208,276h 4v 9h -4z" fill="#0000ff"/>
<path d="M212,276h 3v -9h -3z" fill="#0000ff"/>
<path d="M215,276h 4v -10h -4z" fill="#0000ff"/>
<path d="M219,276h 4v -7h -4z" fill="#0000ff"/>
<path d="M223,276h 4v -9h -4z" fill="#0000ff"/>
<path d="M227,276h 4v -8h -4z" fill="#0000ff"/>
<path d="M231,276h 3v -21h -3z" fill="#0000ff"/>
<path d="M234,276h 4v -1h -4z" fill="#0000ff"/>
<path d="M238,276h 4v -22h -4z" fill="#0000ff"/>
<path d="M242,276h 4v 4h -4z" fill="#0000ff"/>
<path d="M246,276h 3v -10h -3z" fill="#0000ff"/>
<path d="M249,276h 4v -13h -4z" fill="#0000ff"/>
<path d="M253,276h 4v 4h -4z" fill="#0000ff"/>
<path d="M257,276h 4v -11h -4z" fill="#0000ff"/>
<path d="M261,276h 4v 10h -4z" fill="#0000ff"/>
<path d="M265,276h 3v 3h -3z" fill="#0000ff"/>
<path d="M268,276h 4v 1h -4z" fill="#0000ff"/>
<path d="M272,276h 4v 14h -4z" fill="#0000ff"/>
<path d="M276,276h 4v -14h -4z" fill="#0000ff"/>
<path d="M280,276h 3v -1h -3z" fill="#0000ff"/>
<path d="M283,276h 4v -19h -4z" fill="#0000ff"/>
<path d="M287,276h 4v -3h -4z" fill="#0000ff"/>
<path d="M291,276h 4v 1h -4z" fill="#0000ff"/>
<path d="M295,276h 4v -5h -4z" fill="#0000ff"/>
<path d="M299,276h 3v 2h -3z" fill="#0000ff"/>
<path d="M302,276h 4v 1h -4z" fill="#0000ff"/>
<path d="M306,276h 4v 15h -4z" fill="#0000ff"/>
<path d="M310,276h 4v -8h -4z" fill="#0000ff"/>
<path d="M314,276h 3v -8h -3z" fill="#0000ff"/>
<path d="M317,276h 4v 5h -4z" fill="#0000ff"/>
<path d="M321,276h 4v 16h -4z" fill="#0000ff"/>
<path d="M325,276h 4v 14h -4z" fill="#0000ff"/>
<path d="M329,276h 4v 1h -4z" fill="#0000ff"/>
<path d="M333,276h 3v 9h -3z" fill="#0000ff"/>
<path d="M336,276h 4v 7h -4z" fill="#0000ff"/>
<path d="M340,276h 4v 12h -4z" fill="#0000ff"/>
<path d="M344,276h 4v 5h -4z" fill="#0000ff"/>
<path d="M348,276h 3v -9h -3z" fill="#0000ff"/>
<path d="M351,276h 4v 6h -4z" fill="#0000ff"/>
<path d="M355,276h 4v -4h -4z" fill="#0000ff"/>
<path d="M359,276h 4v -9h -4z" fill="#0000ff"/>
<path d="M363,276h 4v 10h -4z" fill="#0000ff"/>
<path d="M367,276h 3v -4h -3z" fill="#0000ff"/>
<path d="M370,276h 4v -13h -4z" fill="#0000ff"/>
<path d="M374,276h 4v -11h -4z" fill="#0000ff"/>
<path d="M378,276h 4v -5h -4z" fill="#0000ff"/>
<path d="M382,276h 4v 10h -4z" fill="#0000ff"/>
<path d="M386,276h 3v 9h -3z" fill="#0000ff"/>
<path d="M389,276h 4v -10h -4z" fill="#0000ff"/>
<path d="M393,276h 4v -10h -4z" fill="#0000ff"/>
<path d="M397,276h 4v 8h -4z" fill="#0000ff"/>
<path d="M401,276h 3v 2h -3z" fill="#0000ff"/>
<path d="M404,276h 4v -2h -4z" fill="#0000ff"/>
<path d="M408,276h 4v -2h -4z" fill="#0000ff"/>
<path d="M412,276h 4v -2h -4z" fill="#0000ff"/>
<path d="M416,276h 4v -1h -4z" fill="#0000ff"/>
<path d="M420,276h 3v 13h -3z" fill="#0000ff"/>
<path d="M423,276h 4v -2h -4z" fill="#0000ff"/>
<path d="M427,276h 4v -3h -4z" fill="#0000ff"/>
<path d="M431,276h 4v 6h -4z" fill="#0000ff"/>
<path d="M435,276h 3v -9h -3z" fill="#0000ff"/>
<path d="M438,276h 4v 7h -4z" fill="#0000ff"/>
<path d="M442,276h 4h -4z" fill="#0000ff"/>
<path d="M446,276h 4v -5h -4z" fill="#0000ff"/>
<path d="M450,276h 4v 8h -4z" fill="#0000ff"/>
<path d="M454,276h 3v -1h -3z" fill="#0000ff"/>
<path d="M457,276h 4v 11h -4z" fill="#0000ff"/>
<path d="M461,276h 4v 4h -4z" fill="#0000ff"/>
<path d="M465,276h 4v 5h -4z" fill="#0000ff"/>
<path d="M469,276h 3v 12h -3z" fill="#0000ff"/>
<path d="M472,276h 4v 9h -4z" fill="#0000ff"/>
<path d="M476,276h 4v -4h -4z" fill="#0000ff"/>
<path d="M480,276h 4v 3h -4z" fill="#0000ff"/>
<path d="M484,276h 4v 3h -4z" fill="#0000ff"/>
<path d="M488,276h 3v 5h -3z" fill="#0000ff"/>
<path d="M491,276h 4v -4h -4z" fill="#0000ff"/>
<path d="M495,276h 4v 15h -4z" fill="#0000ff"/>
<path d="M499,276h 4v -4h -4z" fill="#0000ff"/>
<path d="M503,276h 3v 9h -3z" fill="#0000ff"/>
<path d="M506,276h 4h -4z" fill="#0000ff"/>
<path d="M57,308h 453" fill="none" stroke="black"/>
<text x="479" y="323" fill="black" font-size="7" font-family="Helvetica">
Time (ns)
</text>
<path d="M101,306v 2" fill="none" stroke="black"/>
<path d="M112,307v 1" fill="none" stroke="black"/>
<path d="M124,307v 1" fill="none" stroke="black"/>
<path d="M135,307v 1" fill="none" stroke="black"/>
<path d="M146,306v 2" fill="none" stroke="black"/>
<path d="M158,307v 1" fill="none" stroke="black"/>
<path d="M169,307v 1" fill="none" stroke="black"/>
<path d="M181,307v 1" fill="none" stroke="black"/>
<path d="M192,306v 2" fill="none" stroke="black"/>
<path d="M203,307v 1" fill="none" stroke="black"/>
<path d="M215,307v 1" fill="none" stroke="black"/>
<path d="M226,307v 1" fill="none" stroke="black"/>
<path d="M237,306v 2" fill="none" stroke="black"/>
<path d="M249,307v 1" fill="none" stroke="black"/>
<path d="M260,307v 1" fill="none" stroke="black"/>
<path d="M272,307v 1" fill="none" stroke="black"/>
<path d="M283,306v 2" fill="none" stroke="black"/>
<path d="M294,307v 1" fill="none" stroke="black"/>
<path d="M306,307v 1" fill="none" stroke="black"/>
<path d="M317,307v 1" fill="none" stroke="black"/>
<path d="M328,306v 2" fill="none" stroke="black"/>
<path d="M340,307v 1" fill="none" stroke="black"/>
<path d="M351,307v 1" fill="none" stroke="black"/>
<path d="M362,307v 1" fill="none" stroke="black"/>
<path d="M374,306v 2" fill="none" stroke="black"/>
<path d="M385,307v 1" fill="none" stroke="black"/>
<path d="M397,307v 1" fill="none" stroke="black"/>
<path d="M408,307v 1" fill="none" stroke="black"/>
<path d="M419,306v 2" fill="none" stroke="black"/>
<path d="M431,307v 1" fill="none" stroke="black"/>
<path d="M442,307v 1" fill="none" stroke="black"/>
<path d="M453,307v 1" fill="none" stroke="black"/>
<path d="M465,306v 2" fill="none" stroke="black"/>
<path d="M476,307v 1" fill="none" stroke="black"/>
<path d="M488,307v 1" fill="none" stroke="black"/>
<path d="M499,307v 1" fill="none" stroke="black"/>
<path d="M510,306v 2" fill="none" stroke="black"/>
<path d="M101,306v 2" fill="none" stroke="black"/>
<path d="M90,307v 1" fill="none" stroke="black"/>
<path d="M78,307v 1" fill="none" stroke="black"/>
<path d="M67,307v 1" fill="none" stroke="black"/>
<text x="93" y="315" fill="black" font-size="7" font-family="Helvetica">
2000
</text>
<text x="138" y="315" fill="black" font-size="7" font-family="Helvetica">
4000
</text>
<text x="183" y="315" fill="black" font-size="7" font-family="Helvetica">
6000
</text>
<text x="229" y="315" fill="black" font-size="7" font-family="Helvetica">
8000
</text>
<text x="272" y="315" fill="black" font-size="7" font-family="Helvetica">
10000
</text>
<text x="318" y="315" fill="black" font-size="7" font-family="Helvetica">
12000
</text>
<text x="363" y="315" fill="black" font-size="7" font-family="Helvetica">
14000
</text>
<text x="409" y="315" fill="black" font-size="7" font-family="Helvetica">
16000
</text>
<text x="454" y="315" fill="black" font-size="7" font-family="Helvetica">
18000
</text>
<text x="500" y="315" fill="black" font-size="7" font-family="Helvetica">
20000
</text>
<path d="M57,308v -78" fill="none" stroke="black"/>
<g transform="rotate(-90,28,258)">
<text x="28" y="258" fill="black" font-size="7" font-family="Helvetica">
Residual
</text>
</g>
<path d="M70,300h -13" fill="none" stroke="black"/>
<path d="M63,298h -6" fill="none" stroke="black"/>
<path d="M63,295h -6" fill="none" stroke="black"/>
<path d="M63,293h -6" fill="none" stroke="black"/>
<path d="M63,290h -6" fill="none" stroke="black"/>
<path d="M70,288h -13" fill="none" stroke="black"/>
<path d="M63,286h -6" fill="none" stroke="black"/>
<path d="M63,283h -6" fill="none" stroke="black"/>
<path d="M63,281h -6" fill="none" stroke="black"/>
<path d="M63,278h -6" fill="none" stroke="black"/>
<path d="M70,276h -13" fill="none" stroke="black"/>
<path d="M63,274h -6" fill="none" stroke="black"/>
<path d="M63,271h -6" fill="none" stroke="black"/>
<path d="M63,269h -6" fill="none" stroke="black"/>
<path d="M63,266h -6" fill="none" stroke="black"/>
<path d="M70,264h -13" fill="none" stroke="black"/>
<path d="M63,262h -6" fill="none" stroke="black"/>
<path d="M63,259h -6" fill="none" stroke="black"/>
<path d="M63,257h -6" fill="none" stroke="black"/>
<path d="M63,254h -6" fill="none" stroke="black"/>
<path d="M70,252h -13" fill="none" stroke="black"/>
<path d="M63,250h -6" fill="none" stroke="black"/>
<path d="M63,247h -6" fill="none" stroke="black"/>
<path d="M63,245h -6" fill="none" stroke="black"/>
<path d="M63,243h -6" fill="none" stroke="black"/>
<path d="M70,240h -13" fill="none" stroke="black"/>
<path d="M70,300h -13" fill="none" stroke="black"/>
<path d="M63,302h -6" fill="none" stroke="black"/>
<path d="M63,305h -6" fill="none" stroke="black"/>
<path d="M63,307h -6" fill="none" stroke="black"/>
<path d="M70,240h -13" fill="none" stroke="black"/>
<path d="M63,238h -6" fill="none" stroke="black"/>
<path d="M63,235h -6" fill="none" stroke="black"/>
<path d="M63,233h -6" fill="none" stroke="black"/>
<path d="M63,231h -6" fill="none" stroke="black"/>
<text x="39" y="302" fill="black" font-size="7" font-family="Helvetica">
-200
</text>
<text x="39" y="290" fill="black" font-size="7" font-family="Helvetica">
-100
</text>
<text x="50" y="278" fill="black" font-size="7" font-family="Helvetica">
0
</text>
<text x="42" y="266" fill="black" font-size="7" font-family="Helvetica">
100
</text>
<text x="42" y="254" fill="black" font-size="7" font-family="Helvetica">
200
</text>
<text x="42" y="242" fill="black" font-size="7" font-family="Helvetica">
300
</text>
<text x="262" y="235" fill="black" font-size="5" font-family="Helvetica">
Lifetime residuals
</text></svg>
