<?xml version="1.0" standalone="no"?>
<svg width="567" height="447" viewBox="0 0 567 447" xmlns="http://www.w3.org/2000/svg">
<title>
/Users/scook/code/MuSIC/simulation/MuSIC_5_detector_sim/MuSIC5/MuSIC5_detector/fieldmap/field_map.svg
</title>
<desc>
Creator: ROOT Version 5.34/14
CreationDate: Sun Feb 16 16:11:55 2014</desc>
<defs>
</defs>
<rect x="0" y="0" width="567" height="447" fill="white"/>
<rect x="57" y="45" width="434" height="357" fill="white"/>
<rect x="57" y="45" width="434" height="357" fill="none" stroke="black"/>
<rect x="57" y="45" width="434" height="357" fill="white"/>
<rect x="57" y="45" width="434" height="357" fill="none" stroke="black"/>
<rect x="57" y="374" width="17" height="14" fill="#ff0000"/>
<rect x="74" y="374" width="17" height="14" fill="#ff0000"/>
<rect x="91" y="374" width="18" height="14" fill="#ff2f00"/>
<rect x="109" y="374" width="17" height="14" fill="#ff2f00"/>
<rect x="126" y="374" width="18" height="14" fill="#ff7700"/>
<rect x="144" y="374" width="17" height="14" fill="#ff7700"/>
<rect x="161" y="374" width="17" height="14" fill="#ffa600"/>
<rect x="178" y="374" width="18" height="14" fill="#ffee00"/>
<rect x="196" y="374" width="17" height="14" fill="#ffee00"/>
<rect x="213" y="374" width="17" height="14" fill="#e0ff00"/>
<rect x="230" y="374" width="18" height="14" fill="#e0ff00"/>
<rect x="248" y="374" width="17" height="14" fill="#99ff00"/>
<rect x="265" y="374" width="18" height="14" fill="#69ff00"/>
<rect x="283" y="374" width="17" height="14" fill="#22ff00"/>
<rect x="300" y="374" width="17" height="14" fill="#00ff0d"/>
<rect x="317" y="374" width="18" height="14" fill="#00ff0d"/>
<rect x="335" y="374" width="17" height="14" fill="#00ff55"/>
<rect x="352" y="374" width="18" height="14" fill="#00ff84"/>
<rect x="370" y="374" width="17" height="14" fill="#00ffcc"/>
<rect x="387" y="374" width="17" height="14" fill="#00fffb"/>
<rect x="404" y="374" width="18" height="14" fill="#00bbff"/>
<rect x="422" y="374" width="17" height="14" fill="#00bbff"/>
<rect x="439" y="374" width="18" height="14" fill="#008bff"/>
<rect x="457" y="374" width="17" height="14" fill="#008bff"/>
<rect x="474" y="374" width="17" height="14" fill="#0044ff"/>
<rect x="57" y="359" width="17" height="15" fill="#ff0000"/>
<rect x="74" y="359" width="17" height="15" fill="#ff2f00"/>
<rect x="91" y="359" width="18" height="15" fill="#ff2f00"/>
<rect x="109" y="359" width="17" height="15" fill="#ff7700"/>
<rect x="126" y="359" width="18" height="15" fill="#ffa600"/>
<rect x="144" y="359" width="17" height="15" fill="#ffa600"/>
<rect x="161" y="359" width="17" height="15" fill="#ffee00"/>
<rect x="178" y="359" width="18" height="15" fill="#e0ff00"/>
<rect x="196" y="359" width="17" height="15" fill="#e0ff00"/>
<rect x="213" y="359" width="17" height="15" fill="#99ff00"/>
<rect x="230" y="359" width="18" height="15" fill="#69ff00"/>
<rect x="248" y="359" width="17" height="15" fill="#69ff00"/>
<rect x="265" y="359" width="18" height="15" fill="#22ff00"/>
<rect x="283" y="359" width="17" height="15" fill="#00ff0d"/>
<rect x="300" y="359" width="17" height="15" fill="#00ff0d"/>
<rect x="317" y="359" width="18" height="15" fill="#00ff55"/>
<rect x="335" y="359" width="17" height="15" fill="#00ff84"/>
<rect x="352" y="359" width="18" height="15" fill="#00ffcc"/>
<rect x="370" y="359" width="17" height="15" fill="#00fffb"/>
<rect x="387" y="359" width="17" height="15" fill="#00fffb"/>
<rect x="404" y="359" width="18" height="15" fill="#00bbff"/>
<rect x="422" y="359" width="17" height="15" fill="#008bff"/>
<rect x="439" y="359" width="18" height="15" fill="#008bff"/>
<rect x="457" y="359" width="17" height="15" fill="#0044ff"/>
<rect x="474" y="359" width="17" height="15" fill="#0044ff"/>
<rect x="57" y="345" width="17" height="14" fill="#ff0000"/>
<rect x="74" y="345" width="17" height="14" fill="#ff2f00"/>
<rect x="91" y="345" width="18" height="14" fill="#ff7700"/>
<rect x="109" y="345" width="17" height="14" fill="#ffa600"/>
<rect x="126" y="345" width="18" height="14" fill="#ffa600"/>
<rect x="144" y="345" width="17" height="14" fill="#ffee00"/>
<rect x="161" y="345" width="17" height="14" fill="#e0ff00"/>
<rect x="178" y="345" width="18" height="14" fill="#99ff00"/>
<rect x="196" y="345" width="17" height="14" fill="#99ff00"/>
<rect x="213" y="345" width="17" height="14" fill="#69ff00"/>
<rect x="230" y="345" width="18" height="14" fill="#22ff00"/>
<rect x="248" y="345" width="17" height="14" fill="#22ff00"/>
<rect x="265" y="345" width="18" height="14" fill="#00ff0d"/>
<rect x="283" y="345" width="17" height="14" fill="#00ff55"/>
<rect x="300" y="345" width="17" height="14" fill="#00ff55"/>
<rect x="317" y="345" width="18" height="14" fill="#00ff84"/>
<rect x="335" y="345" width="17" height="14" fill="#00ffcc"/>
<rect x="352" y="345" width="18" height="14" fill="#00ffcc"/>
<rect x="370" y="345" width="17" height="14" fill="#00fffb"/>
<rect x="387" y="345" width="17" height="14" fill="#00bbff"/>
<rect x="404" y="345" width="18" height="14" fill="#00bbff"/>
<rect x="422" y="345" width="17" height="14" fill="#008bff"/>
<rect x="439" y="345" width="18" height="14" fill="#008bff"/>
<rect x="457" y="345" width="17" height="14" fill="#0044ff"/>
<rect x="474" y="345" width="17" height="14" fill="#0044ff"/>
<rect x="57" y="331" width="17" height="14" fill="#ff2f00"/>
<rect x="74" y="331" width="17" height="14" fill="#ff7700"/>
<rect x="91" y="331" width="18" height="14" fill="#ffa600"/>
<rect x="109" y="331" width="17" height="14" fill="#ffee00"/>
<rect x="126" y="331" width="18" height="14" fill="#ffee00"/>
<rect x="144" y="331" width="17" height="14" fill="#e0ff00"/>
<rect x="161" y="331" width="17" height="14" fill="#99ff00"/>
<rect x="178" y="331" width="18" height="14" fill="#99ff00"/>
<rect x="196" y="331" width="17" height="14" fill="#69ff00"/>
<rect x="213" y="331" width="17" height="14" fill="#22ff00"/>
<rect x="230" y="331" width="18" height="14" fill="#22ff00"/>
<rect x="248" y="331" width="17" height="14" fill="#00ff0d"/>
<rect x="265" y="331" width="18" height="14" fill="#00ff55"/>
<rect x="283" y="331" width="17" height="14" fill="#00ff55"/>
<rect x="300" y="331" width="17" height="14" fill="#00ff84"/>
<rect x="317" y="331" width="18" height="14" fill="#00ffcc"/>
<rect x="335" y="331" width="17" height="14" fill="#00ffcc"/>
<rect x="352" y="331" width="18" height="14" fill="#00fffb"/>
<rect x="370" y="331" width="17" height="14" fill="#00bbff"/>
<rect x="387" y="331" width="17" height="14" fill="#00bbff"/>
<rect x="404" y="331" width="18" height="14" fill="#008bff"/>
<rect x="422" y="331" width="17" height="14" fill="#008bff"/>
<rect x="439" y="331" width="18" height="14" fill="#0044ff"/>
<rect x="457" y="331" width="17" height="14" fill="#0044ff"/>
<rect x="474" y="331" width="17" height="14" fill="#0044ff"/>
<rect x="57" y="316" width="17" height="15" fill="#ff2f00"/>
<rect x="74" y="316" width="17" height="15" fill="#ffa600"/>
<rect x="91" y="316" width="18" height="15" fill="#ffee00"/>
<rect x="109" y="316" width="17" height="15" fill="#ffee00"/>
<rect x="126" y="316" width="18" height="15" fill="#e0ff00"/>
<rect x="144" y="316" width="17" height="15" fill="#99ff00"/>
<rect x="161" y="316" width="17" height="15" fill="#69ff00"/>
<rect x="178" y="316" width="18" height="15" fill="#69ff00"/>
<rect x="196" y="316" width="17" height="15" fill="#22ff00"/>
<rect x="213" y="316" width="17" height="15" fill="#00ff0d"/>
<rect x="230" y="316" width="18" height="15" fill="#00ff0d"/>
<rect x="248" y="316" width="17" height="15" fill="#00ff55"/>
<rect x="265" y="316" width="18" height="15" fill="#00ff84"/>
<rect x="283" y="316" width="17" height="15" fill="#00ff84"/>
<rect x="300" y="316" width="17" height="15" fill="#00ffcc"/>
<rect x="317" y="316" width="18" height="15" fill="#00ffcc"/>
<rect x="335" y="316" width="17" height="15" fill="#00fffb"/>
<rect x="352" y="316" width="18" height="15" fill="#00fffb"/>
<rect x="370" y="316" width="17" height="15" fill="#00bbff"/>
<rect x="387" y="316" width="17" height="15" fill="#00bbff"/>
<rect x="404" y="316" width="18" height="15" fill="#008bff"/>
<rect x="422" y="316" width="17" height="15" fill="#008bff"/>
<rect x="439" y="316" width="18" height="15" fill="#0044ff"/>
<rect x="457" y="316" width="17" height="15" fill="#0044ff"/>
<rect x="474" y="316" width="17" height="15" fill="#0044ff"/>
<rect x="57" y="302" width="17" height="14" fill="#ff7700"/>
<rect x="74" y="302" width="17" height="14" fill="#ffee00"/>
<rect x="91" y="302" width="18" height="14" fill="#e0ff00"/>
<rect x="109" y="302" width="17" height="14" fill="#e0ff00"/>
<rect x="126" y="302" width="18" height="14" fill="#99ff00"/>
<rect x="144" y="302" width="17" height="14" fill="#69ff00"/>
<rect x="161" y="302" width="17" height="14" fill="#22ff00"/>
<rect x="178" y="302" width="18" height="14" fill="#22ff00"/>
<rect x="196" y="302" width="17" height="14" fill="#00ff0d"/>
<rect x="213" y="302" width="17" height="14" fill="#00ff55"/>
<rect x="230" y="302" width="18" height="14" fill="#00ff55"/>
<rect x="248" y="302" width="17" height="14" fill="#00ff84"/>
<rect x="265" y="302" width="18" height="14" fill="#00ff84"/>
<rect x="283" y="302" width="17" height="14" fill="#00ffcc"/>
<rect x="300" y="302" width="17" height="14" fill="#00ffcc"/>
<rect x="317" y="302" width="18" height="14" fill="#00fffb"/>
<rect x="335" y="302" width="17" height="14" fill="#00fffb"/>
<rect x="352" y="302" width="18" height="14" fill="#00bbff"/>
<rect x="370" y="302" width="17" height="14" fill="#00bbff"/>
<rect x="387" y="302" width="17" height="14" fill="#008bff"/>
<rect x="404" y="302" width="18" height="14" fill="#008bff"/>
<rect x="422" y="302" width="17" height="14" fill="#0044ff"/>
<rect x="439" y="302" width="18" height="14" fill="#0044ff"/>
<rect x="457" y="302" width="17" height="14" fill="#0044ff"/>
<rect x="474" y="302" width="17" height="14" fill="#0044ff"/>
<rect x="57" y="288" width="17" height="14" fill="#ffa600"/>
<rect x="74" y="288" width="17" height="14" fill="#e0ff00"/>
<rect x="91" y="288" width="18" height="14" fill="#99ff00"/>
<rect x="109" y="288" width="17" height="14" fill="#99ff00"/>
<rect x="126" y="288" width="18" height="14" fill="#69ff00"/>
<rect x="144" y="288" width="17" height="14" fill="#22ff00"/>
<rect x="161" y="288" width="17" height="14" fill="#00ff0d"/>
<rect x="178" y="288" width="18" height="14" fill="#00ff0d"/>
<rect x="196" y="288" width="17" height="14" fill="#00ff55"/>
<rect x="213" y="288" width="17" height="14" fill="#00ff55"/>
<rect x="230" y="288" width="18" height="14" fill="#00ff84"/>
<rect x="248" y="288" width="17" height="14" fill="#00ff84"/>
<rect x="265" y="288" width="18" height="14" fill="#00ffcc"/>
<rect x="283" y="288" width="17" height="14" fill="#00ffcc"/>
<rect x="300" y="288" width="17" height="14" fill="#00fffb"/>
<rect x="317" y="288" width="18" height="14" fill="#00fffb"/>
<rect x="335" y="288" width="17" height="14" fill="#00bbff"/>
<rect x="352" y="288" width="18" height="14" fill="#00bbff"/>
<rect x="370" y="288" width="17" height="14" fill="#008bff"/>
<rect x="387" y="288" width="17" height="14" fill="#008bff"/>
<rect x="404" y="288" width="18" height="14" fill="#008bff"/>
<rect x="422" y="288" width="17" height="14" fill="#0044ff"/>
<rect x="439" y="288" width="18" height="14" fill="#0044ff"/>
<rect x="457" y="288" width="17" height="14" fill="#0044ff"/>
<rect x="474" y="288" width="17" height="14" fill="#0014ff"/>
<rect x="57" y="274" width="17" height="14" fill="#e0ff00"/>
<rect x="74" y="274" width="17" height="14" fill="#99ff00"/>
<rect x="91" y="274" width="18" height="14" fill="#69ff00"/>
<rect x="109" y="274" width="17" height="14" fill="#69ff00"/>
<rect x="126" y="274" width="18" height="14" fill="#22ff00"/>
<rect x="144" y="274" width="17" height="14" fill="#00ff0d"/>
<rect x="161" y="274" width="17" height="14" fill="#00ff0d"/>
<rect x="178" y="274" width="18" height="14" fill="#00ff55"/>
<rect x="196" y="274" width="17" height="14" fill="#00ff84"/>
<rect x="213" y="274" width="17" height="14" fill="#00ff84"/>
<rect x="230" y="274" width="18" height="14" fill="#00ffcc"/>
<rect x="248" y="274" width="17" height="14" fill="#00ffcc"/>
<rect x="265" y="274" width="18" height="14" fill="#00fffb"/>
<rect x="283" y="274" width="17" height="14" fill="#00fffb"/>
<rect x="300" y="274" width="17" height="14" fill="#00fffb"/>
<rect x="317" y="274" width="18" height="14" fill="#00bbff"/>
<rect x="335" y="274" width="17" height="14" fill="#00bbff"/>
<rect x="352" y="274" width="18" height="14" fill="#008bff"/>
<rect x="370" y="274" width="17" height="14" fill="#008bff"/>
<rect x="387" y="274" width="17" height="14" fill="#008bff"/>
<rect x="404" y="274" width="18" height="14" fill="#0044ff"/>
<rect x="422" y="274" width="17" height="14" fill="#0044ff"/>
<rect x="439" y="274" width="18" height="14" fill="#0044ff"/>
<rect x="457" y="274" width="17" height="14" fill="#0014ff"/>
<rect x="474" y="274" width="17" height="14" fill="#0014ff"/>
<rect x="57" y="259" width="17" height="15" fill="#99ff00"/>
<rect x="74" y="259" width="17" height="15" fill="#69ff00"/>
<rect x="91" y="259" width="18" height="15" fill="#22ff00"/>
<rect x="109" y="259" width="17" height="15" fill="#00ff0d"/>
<rect x="126" y="259" width="18" height="15" fill="#00ff0d"/>
<rect x="144" y="259" width="17" height="15" fill="#00ff55"/>
<rect x="161" y="259" width="17" height="15" fill="#00ff55"/>
<rect x="178" y="259" width="18" height="15" fill="#00ff84"/>
<rect x="196" y="259" width="17" height="15" fill="#00ff84"/>
<rect x="213" y="259" width="17" height="15" fill="#00ffcc"/>
<rect x="230" y="259" width="18" height="15" fill="#00ffcc"/>
<rect x="248" y="259" width="17" height="15" fill="#00fffb"/>
<rect x="265" y="259" width="18" height="15" fill="#00fffb"/>
<rect x="283" y="259" width="17" height="15" fill="#00fffb"/>
<rect x="300" y="259" width="17" height="15" fill="#00bbff"/>
<rect x="317" y="259" width="18" height="15" fill="#00bbff"/>
<rect x="335" y="259" width="17" height="15" fill="#008bff"/>
<rect x="352" y="259" width="18" height="15" fill="#008bff"/>
<rect x="370" y="259" width="17" height="15" fill="#008bff"/>
<rect x="387" y="259" width="17" height="15" fill="#0044ff"/>
<rect x="404" y="259" width="18" height="15" fill="#0044ff"/>
<rect x="422" y="259" width="17" height="15" fill="#0044ff"/>
<rect x="439" y="259" width="18" height="15" fill="#0044ff"/>
<rect x="457" y="259" width="17" height="15" fill="#0014ff"/>
<rect x="474" y="259" width="17" height="15" fill="#0014ff"/>
<rect x="57" y="245" width="17" height="14" fill="#69ff00"/>
<rect x="74" y="245" width="17" height="14" fill="#22ff00"/>
<rect x="91" y="245" width="18" height="14" fill="#00ff0d"/>
<rect x="109" y="245" width="17" height="14" fill="#00ff55"/>
<rect x="126" y="245" width="18" height="14" fill="#00ff55"/>
<rect x="144" y="245" width="17" height="14" fill="#00ff84"/>
<rect x="161" y="245" width="17" height="14" fill="#00ff84"/>
<rect x="178" y="245" width="18" height="14" fill="#00ffcc"/>
<rect x="196" y="245" width="17" height="14" fill="#00ffcc"/>
<rect x="213" y="245" width="17" height="14" fill="#00ffcc"/>
<rect x="230" y="245" width="18" height="14" fill="#00fffb"/>
<rect x="248" y="245" width="17" height="14" fill="#00fffb"/>
<rect x="265" y="245" width="18" height="14" fill="#00bbff"/>
<rect x="283" y="245" width="17" height="14" fill="#00bbff"/>
<rect x="300" y="245" width="17" height="14" fill="#00bbff"/>
<rect x="317" y="245" width="18" height="14" fill="#008bff"/>
<rect x="335" y="245" width="17" height="14" fill="#008bff"/>
<rect x="352" y="245" width="18" height="14" fill="#008bff"/>
<rect x="370" y="245" width="17" height="14" fill="#0044ff"/>
<rect x="387" y="245" width="17" height="14" fill="#0044ff"/>
<rect x="404" y="245" width="18" height="14" fill="#0044ff"/>
<rect x="422" y="245" width="17" height="14" fill="#0044ff"/>
<rect x="439" y="245" width="18" height="14" fill="#0014ff"/>
<rect x="457" y="245" width="17" height="14" fill="#0014ff"/>
<rect x="474" y="245" width="17" height="14" fill="#0014ff"/>
<rect x="57" y="231" width="17" height="14" fill="#00ff0d"/>
<rect x="74" y="231" width="17" height="14" fill="#00ff55"/>
<rect x="91" y="231" width="18" height="14" fill="#00ff55"/>
<rect x="109" y="231" width="17" height="14" fill="#00ff84"/>
<rect x="126" y="231" width="18" height="14" fill="#00ff84"/>
<rect x="144" y="231" width="17" height="14" fill="#00ffcc"/>
<rect x="161" y="231" width="17" height="14" fill="#00ffcc"/>
<rect x="178" y="231" width="18" height="14" fill="#00ffcc"/>
<rect x="196" y="231" width="17" height="14" fill="#00fffb"/>
<rect x="213" y="231" width="17" height="14" fill="#00fffb"/>
<rect x="230" y="231" width="18" height="14" fill="#00fffb"/>
<rect x="248" y="231" width="17" height="14" fill="#00bbff"/>
<rect x="265" y="231" width="18" height="14" fill="#00bbff"/>
<rect x="283" y="231" width="17" height="14" fill="#00bbff"/>
<rect x="300" y="231" width="17" height="14" fill="#008bff"/>
<rect x="317" y="231" width="18" height="14" fill="#008bff"/>
<rect x="335" y="231" width="17" height="14" fill="#008bff"/>
<rect x="352" y="231" width="18" height="14" fill="#0044ff"/>
<rect x="370" y="231" width="17" height="14" fill="#0044ff"/>
<rect x="387" y="231" width="17" height="14" fill="#0044ff"/>
<rect x="404" y="231" width="18" height="14" fill="#0044ff"/>
<rect x="422" y="231" width="17" height="14" fill="#0014ff"/>
<rect x="439" y="231" width="18" height="14" fill="#0014ff"/>
<rect x="457" y="231" width="17" height="14" fill="#0014ff"/>
<rect x="474" y="231" width="17" height="14" fill="#0014ff"/>
<rect x="57" y="216" width="17" height="15" fill="#00ff55"/>
<rect x="74" y="216" width="17" height="15" fill="#00ff84"/>
<rect x="91" y="216" width="18" height="15" fill="#00ff84"/>
<rect x="109" y="216" width="17" height="15" fill="#00ffcc"/>
<rect x="126" y="216" width="18" height="15" fill="#00ffcc"/>
<rect x="144" y="216" width="17" height="15" fill="#00ffcc"/>
<rect x="161" y="216" width="17" height="15" fill="#00fffb"/>
<rect x="178" y="216" width="18" height="15" fill="#00fffb"/>
<rect x="196" y="216" width="17" height="15" fill="#00fffb"/>
<rect x="213" y="216" width="17" height="15" fill="#00bbff"/>
<rect x="230" y="216" width="18" height="15" fill="#00bbff"/>
<rect x="248" y="216" width="17" height="15" fill="#00bbff"/>
<rect x="265" y="216" width="18" height="15" fill="#008bff"/>
<rect x="283" y="216" width="17" height="15" fill="#008bff"/>
<rect x="300" y="216" width="17" height="15" fill="#008bff"/>
<rect x="317" y="216" width="18" height="15" fill="#008bff"/>
<rect x="335" y="216" width="17" height="15" fill="#0044ff"/>
<rect x="352" y="216" width="18" height="15" fill="#0044ff"/>
<rect x="370" y="216" width="17" height="15" fill="#0044ff"/>
<rect x="387" y="216" width="17" height="15" fill="#0044ff"/>
<rect x="404" y="216" width="18" height="15" fill="#0044ff"/>
<rect x="422" y="216" width="17" height="15" fill="#0014ff"/>
<rect x="439" y="216" width="18" height="15" fill="#0014ff"/>
<rect x="457" y="216" width="17" height="15" fill="#0014ff"/>
<rect x="474" y="216" width="17" height="15" fill="#0014ff"/>
<rect x="57" y="202" width="17" height="14" fill="#00ffcc"/>
<rect x="74" y="202" width="17" height="14" fill="#00ffcc"/>
<rect x="91" y="202" width="18" height="14" fill="#00ffcc"/>
<rect x="109" y="202" width="17" height="14" fill="#00ffcc"/>
<rect x="126" y="202" width="18" height="14" fill="#00fffb"/>
<rect x="144" y="202" width="17" height="14" fill="#00fffb"/>
<rect x="161" y="202" width="17" height="14" fill="#00fffb"/>
<rect x="178" y="202" width="18" height="14" fill="#00bbff"/>
<rect x="196" y="202" width="17" height="14" fill="#00bbff"/>
<rect x="213" y="202" width="17" height="14" fill="#00bbff"/>
<rect x="230" y="202" width="18" height="14" fill="#00bbff"/>
<rect x="248" y="202" width="17" height="14" fill="#008bff"/>
<rect x="265" y="202" width="18" height="14" fill="#008bff"/>
<rect x="283" y="202" width="17" height="14" fill="#008bff"/>
<rect x="300" y="202" width="17" height="14" fill="#008bff"/>
<rect x="317" y="202" width="18" height="14" fill="#0044ff"/>
<rect x="335" y="202" width="17" height="14" fill="#0044ff"/>
<rect x="352" y="202" width="18" height="14" fill="#0044ff"/>
<rect x="370" y="202" width="17" height="14" fill="#0044ff"/>
<rect x="387" y="202" width="17" height="14" fill="#0044ff"/>
<rect x="404" y="202" width="18" height="14" fill="#0014ff"/>
<rect x="422" y="202" width="17" height="14" fill="#0014ff"/>
<rect x="439" y="202" width="18" height="14" fill="#0014ff"/>
<rect x="457" y="202" width="17" height="14" fill="#0014ff"/>
<rect x="474" y="202" width="17" height="14" fill="#0014ff"/>
<rect x="57" y="188" width="17" height="14" fill="#00fffb"/>
<rect x="74" y="188" width="17" height="14" fill="#00fffb"/>
<rect x="91" y="188" width="18" height="14" fill="#00fffb"/>
<rect x="109" y="188" width="17" height="14" fill="#00fffb"/>
<rect x="126" y="188" width="18" height="14" fill="#00fffb"/>
<rect x="144" y="188" width="17" height="14" fill="#00bbff"/>
<rect x="161" y="188" width="17" height="14" fill="#00bbff"/>
<rect x="178" y="188" width="18" height="14" fill="#00bbff"/>
<rect x="196" y="188" width="17" height="14" fill="#00bbff"/>
<rect x="213" y="188" width="17" height="14" fill="#008bff"/>
<rect x="230" y="188" width="18" height="14" fill="#008bff"/>
<rect x="248" y="188" width="17" height="14" fill="#008bff"/>
<rect x="265" y="188" width="18" height="14" fill="#008bff"/>
<rect x="283" y="188" width="17" height="14" fill="#0044ff"/>
<rect x="300" y="188" width="17" height="14" fill="#0044ff"/>
<rect x="317" y="188" width="18" height="14" fill="#0044ff"/>
<rect x="335" y="188" width="17" height="14" fill="#0044ff"/>
<rect x="352" y="188" width="18" height="14" fill="#0044ff"/>
<rect x="370" y="188" width="17" height="14" fill="#0014ff"/>
<rect x="387" y="188" width="17" height="14" fill="#0014ff"/>
<rect x="404" y="188" width="18" height="14" fill="#0014ff"/>
<rect x="422" y="188" width="17" height="14" fill="#0014ff"/>
<rect x="439" y="188" width="18" height="14" fill="#0014ff"/>
<rect x="457" y="188" width="17" height="14" fill="#0014ff"/>
<rect x="474" y="188" width="17" height="14" fill="#0014ff"/>
<rect x="57" y="173" width="17" height="15" fill="#00bbff"/>
<rect x="74" y="173" width="17" height="15" fill="#00bbff"/>
<rect x="91" y="173" width="18" height="15" fill="#00bbff"/>
<rect x="109" y="173" width="17" height="15" fill="#00bbff"/>
<rect x="126" y="173" width="18" height="15" fill="#00bbff"/>
<rect x="144" y="173" width="17" height="15" fill="#00bbff"/>
<rect x="161" y="173" width="17" height="15" fill="#00bbff"/>
<rect x="178" y="173" width="18" height="15" fill="#008bff"/>
<rect x="196" y="173" width="17" height="15" fill="#008bff"/>
<rect x="213" y="173" width="17" height="15" fill="#008bff"/>
<rect x="230" y="173" width="18" height="15" fill="#008bff"/>
<rect x="248" y="173" width="17" height="15" fill="#008bff"/>
<rect x="265" y="173" width="18" height="15" fill="#0044ff"/>
<rect x="283" y="173" width="17" height="15" fill="#0044ff"/>
<rect x="300" y="173" width="17" height="15" fill="#0044ff"/>
<rect x="317" y="173" width="18" height="15" fill="#0044ff"/>
<rect x="335" y="173" width="17" height="15" fill="#0044ff"/>
<rect x="352" y="173" width="18" height="15" fill="#0014ff"/>
<rect x="370" y="173" width="17" height="15" fill="#0014ff"/>
<rect x="387" y="173" width="17" height="15" fill="#0014ff"/>
<rect x="404" y="173" width="18" height="15" fill="#0014ff"/>
<rect x="422" y="173" width="17" height="15" fill="#0014ff"/>
<rect x="439" y="173" width="18" height="15" fill="#0014ff"/>
<rect x="457" y="173" width="17" height="15" fill="#0014ff"/>
<rect x="474" y="173" width="17" height="15" fill="#3300ff"/>
<rect x="57" y="159" width="17" height="14" fill="#00bbff"/>
<rect x="74" y="159" width="17" height="14" fill="#00bbff"/>
<rect x="91" y="159" width="18" height="14" fill="#00bbff"/>
<rect x="109" y="159" width="17" height="14" fill="#008bff"/>
<rect x="126" y="159" width="18" height="14" fill="#008bff"/>
<rect x="144" y="159" width="17" height="14" fill="#008bff"/>
<rect x="161" y="159" width="17" height="14" fill="#008bff"/>
<rect x="178" y="159" width="18" height="14" fill="#008bff"/>
<rect x="196" y="159" width="17" height="14" fill="#008bff"/>
<rect x="213" y="159" width="17" height="14" fill="#008bff"/>
<rect x="230" y="159" width="18" height="14" fill="#0044ff"/>
<rect x="248" y="159" width="17" height="14" fill="#0044ff"/>
<rect x="265" y="159" width="18" height="14" fill="#0044ff"/>
<rect x="283" y="159" width="17" height="14" fill="#0044ff"/>
<rect x="300" y="159" width="17" height="14" fill="#0044ff"/>
<rect x="317" y="159" width="18" height="14" fill="#0044ff"/>
<rect x="335" y="159" width="17" height="14" fill="#0014ff"/>
<rect x="352" y="159" width="18" height="14" fill="#0014ff"/>
<rect x="370" y="159" width="17" height="14" fill="#0014ff"/>
<rect x="387" y="159" width="17" height="14" fill="#0014ff"/>
<rect x="404" y="159" width="18" height="14" fill="#0014ff"/>
<rect x="422" y="159" width="17" height="14" fill="#0014ff"/>
<rect x="439" y="159" width="18" height="14" fill="#0014ff"/>
<rect x="457" y="159" width="17" height="14" fill="#3300ff"/>
<rect x="474" y="159" width="17" height="14" fill="#3300ff"/>
<rect x="57" y="145" width="17" height="14" fill="#008bff"/>
<rect x="74" y="145" width="17" height="14" fill="#008bff"/>
<rect x="91" y="145" width="18" height="14" fill="#008bff"/>
<rect x="109" y="145" width="17" height="14" fill="#008bff"/>
<rect x="126" y="145" width="18" height="14" fill="#008bff"/>
<rect x="144" y="145" width="17" height="14" fill="#008bff"/>
<rect x="161" y="145" width="17" height="14" fill="#008bff"/>
<rect x="178" y="145" width="18" height="14" fill="#0044ff"/>
<rect x="196" y="145" width="17" height="14" fill="#0044ff"/>
<rect x="213" y="145" width="17" height="14" fill="#0044ff"/>
<rect x="230" y="145" width="18" height="14" fill="#0044ff"/>
<rect x="248" y="145" width="17" height="14" fill="#0044ff"/>
<rect x="265" y="145" width="18" height="14" fill="#0044ff"/>
<rect x="283" y="145" width="17" height="14" fill="#0044ff"/>
<rect x="300" y="145" width="17" height="14" fill="#0014ff"/>
<rect x="317" y="145" width="18" height="14" fill="#0014ff"/>
<rect x="335" y="145" width="17" height="14" fill="#0014ff"/>
<rect x="352" y="145" width="18" height="14" fill="#0014ff"/>
<rect x="370" y="145" width="17" height="14" fill="#0014ff"/>
<rect x="387" y="145" width="17" height="14" fill="#0014ff"/>
<rect x="404" y="145" width="18" height="14" fill="#0014ff"/>
<rect x="422" y="145" width="17" height="14" fill="#0014ff"/>
<rect x="439" y="145" width="18" height="14" fill="#3300ff"/>
<rect x="457" y="145" width="17" height="14" fill="#3300ff"/>
<rect x="474" y="145" width="17" height="14" fill="#3300ff"/>
<rect x="57" y="131" width="17" height="14" fill="#008bff"/>
<rect x="74" y="131" width="17" height="14" fill="#008bff"/>
<rect x="91" y="131" width="18" height="14" fill="#008bff"/>
<rect x="109" y="131" width="17" height="14" fill="#0044ff"/>
<rect x="126" y="131" width="18" height="14" fill="#0044ff"/>
<rect x="144" y="131" width="17" height="14" fill="#0044ff"/>
<rect x="161" y="131" width="17" height="14" fill="#0044ff"/>
<rect x="178" y="131" width="18" height="14" fill="#0044ff"/>
<rect x="196" y="131" width="17" height="14" fill="#0044ff"/>
<rect x="213" y="131" width="17" height="14" fill="#0044ff"/>
<rect x="230" y="131" width="18" height="14" fill="#0044ff"/>
<rect x="248" y="131" width="17" height="14" fill="#0044ff"/>
<rect x="265" y="131" width="18" height="14" fill="#0044ff"/>
<rect x="283" y="131" width="17" height="14" fill="#0014ff"/>
<rect x="300" y="131" width="17" height="14" fill="#0014ff"/>
<rect x="317" y="131" width="18" height="14" fill="#0014ff"/>
<rect x="335" y="131" width="17" height="14" fill="#0014ff"/>
<rect x="352" y="131" width="18" height="14" fill="#0014ff"/>
<rect x="370" y="131" width="17" height="14" fill="#0014ff"/>
<rect x="387" y="131" width="17" height="14" fill="#0014ff"/>
<rect x="404" y="131" width="18" height="14" fill="#0014ff"/>
<rect x="422" y="131" width="17" height="14" fill="#3300ff"/>
<rect x="439" y="131" width="18" height="14" fill="#3300ff"/>
<rect x="457" y="131" width="17" height="14" fill="#3300ff"/>
<rect x="474" y="131" width="17" height="14" fill="#3300ff"/>
<rect x="57" y="116" width="17" height="15" fill="#0044ff"/>
<rect x="74" y="116" width="17" height="15" fill="#0044ff"/>
<rect x="91" y="116" width="18" height="15" fill="#0044ff"/>
<rect x="109" y="116" width="17" height="15" fill="#0044ff"/>
<rect x="126" y="116" width="18" height="15" fill="#0044ff"/>
<rect x="144" y="116" width="17" height="15" fill="#0044ff"/>
<rect x="161" y="116" width="17" height="15" fill="#0044ff"/>
<rect x="178" y="116" width="18" height="15" fill="#0044ff"/>
<rect x="196" y="116" width="17" height="15" fill="#0044ff"/>
<rect x="213" y="116" width="17" height="15" fill="#0044ff"/>
<rect x="230" y="116" width="18" height="15" fill="#0014ff"/>
<rect x="248" y="116" width="17" height="15" fill="#0014ff"/>
<rect x="265" y="116" width="18" height="15" fill="#0014ff"/>
<rect x="283" y="116" width="17" height="15" fill="#0014ff"/>
<rect x="300" y="116" width="17" height="15" fill="#0014ff"/>
<rect x="317" y="116" width="18" height="15" fill="#0014ff"/>
<rect x="335" y="116" width="17" height="15" fill="#0014ff"/>
<rect x="352" y="116" width="18" height="15" fill="#0014ff"/>
<rect x="370" y="116" width="17" height="15" fill="#0014ff"/>
<rect x="387" y="116" width="17" height="15" fill="#0014ff"/>
<rect x="404" y="116" width="18" height="15" fill="#3300ff"/>
<rect x="422" y="116" width="17" height="15" fill="#3300ff"/>
<rect x="439" y="116" width="18" height="15" fill="#3300ff"/>
<rect x="457" y="116" width="17" height="15" fill="#3300ff"/>
<rect x="474" y="116" width="17" height="15" fill="#3300ff"/>
<rect x="57" y="102" width="17" height="14" fill="#0044ff"/>
<rect x="74" y="102" width="17" height="14" fill="#0044ff"/>
<rect x="91" y="102" width="18" height="14" fill="#0044ff"/>
<rect x="109" y="102" width="17" height="14" fill="#0044ff"/>
<rect x="126" y="102" width="18" height="14" fill="#0044ff"/>
<rect x="144" y="102" width="17" height="14" fill="#0044ff"/>
<rect x="161" y="102" width="17" height="14" fill="#0044ff"/>
<rect x="178" y="102" width="18" height="14" fill="#0014ff"/>
<rect x="196" y="102" width="17" height="14" fill="#0014ff"/>
<rect x="213" y="102" width="17" height="14" fill="#0014ff"/>
<rect x="230" y="102" width="18" height="14" fill="#0014ff"/>
<rect x="248" y="102" width="17" height="14" fill="#0014ff"/>
<rect x="265" y="102" width="18" height="14" fill="#0014ff"/>
<rect x="283" y="102" width="17" height="14" fill="#0014ff"/>
<rect x="300" y="102" width="17" height="14" fill="#0014ff"/>
<rect x="317" y="102" width="18" height="14" fill="#0014ff"/>
<rect x="335" y="102" width="17" height="14" fill="#0014ff"/>
<rect x="352" y="102" width="18" height="14" fill="#0014ff"/>
<rect x="370" y="102" width="17" height="14" fill="#0014ff"/>
<rect x="387" y="102" width="17" height="14" fill="#3300ff"/>
<rect x="404" y="102" width="18" height="14" fill="#3300ff"/>
<rect x="422" y="102" width="17" height="14" fill="#3300ff"/>
<rect x="439" y="102" width="18" height="14" fill="#3300ff"/>
<rect x="457" y="102" width="17" height="14" fill="#3300ff"/>
<rect x="474" y="102" width="17" height="14" fill="#3300ff"/>
<rect x="57" y="88" width="17" height="14" fill="#0014ff"/>
<rect x="74" y="88" width="17" height="14" fill="#0014ff"/>
<rect x="91" y="88" width="18" height="14" fill="#0014ff"/>
<rect x="109" y="88" width="17" height="14" fill="#0014ff"/>
<rect x="126" y="88" width="18" height="14" fill="#0014ff"/>
<rect x="144" y="88" width="17" height="14" fill="#0014ff"/>
<rect x="161" y="88" width="17" height="14" fill="#0014ff"/>
<rect x="178" y="88" width="18" height="14" fill="#0014ff"/>
<rect x="196" y="88" width="17" height="14" fill="#0014ff"/>
<rect x="213" y="88" width="17" height="14" fill="#0014ff"/>
<rect x="230" y="88" width="18" height="14" fill="#0014ff"/>
<rect x="248" y="88" width="17" height="14" fill="#0014ff"/>
<rect x="265" y="88" width="18" height="14" fill="#0014ff"/>
<rect x="283" y="88" width="17" height="14" fill="#0014ff"/>
<rect x="300" y="88" width="17" height="14" fill="#0014ff"/>
<rect x="317" y="88" width="18" height="14" fill="#0014ff"/>
<rect x="335" y="88" width="17" height="14" fill="#0014ff"/>
<rect x="352" y="88" width="18" height="14" fill="#3300ff"/>
<rect x="370" y="88" width="17" height="14" fill="#3300ff"/>
<rect x="387" y="88" width="17" height="14" fill="#3300ff"/>
<rect x="404" y="88" width="18" height="14" fill="#3300ff"/>
<rect x="422" y="88" width="17" height="14" fill="#3300ff"/>
<rect x="439" y="88" width="18" height="14" fill="#3300ff"/>
<rect x="457" y="88" width="17" height="14" fill="#3300ff"/>
<rect x="474" y="88" width="17" height="14" fill="#3300ff"/>
<rect x="57" y="73" width="17" height="15" fill="#0014ff"/>
<rect x="74" y="73" width="17" height="15" fill="#0014ff"/>
<rect x="91" y="73" width="18" height="15" fill="#0014ff"/>
<rect x="109" y="73" width="17" height="15" fill="#0014ff"/>
<rect x="126" y="73" width="18" height="15" fill="#0014ff"/>
<rect x="144" y="73" width="17" height="15" fill="#0014ff"/>
<rect x="161" y="73" width="17" height="15" fill="#0014ff"/>
<rect x="178" y="73" width="18" height="15" fill="#0014ff"/>
<rect x="196" y="73" width="17" height="15" fill="#0014ff"/>
<rect x="213" y="73" width="17" height="15" fill="#0014ff"/>
<rect x="230" y="73" width="18" height="15" fill="#0014ff"/>
<rect x="248" y="73" width="17" height="15" fill="#0014ff"/>
<rect x="265" y="73" width="18" height="15" fill="#0014ff"/>
<rect x="283" y="73" width="17" height="15" fill="#0014ff"/>
<rect x="300" y="73" width="17" height="15" fill="#0014ff"/>
<rect x="317" y="73" width="18" height="15" fill="#3300ff"/>
<rect x="335" y="73" width="17" height="15" fill="#3300ff"/>
<rect x="352" y="73" width="18" height="15" fill="#3300ff"/>
<rect x="370" y="73" width="17" height="15" fill="#3300ff"/>
<rect x="387" y="73" width="17" height="15" fill="#3300ff"/>
<rect x="404" y="73" width="18" height="15" fill="#3300ff"/>
<rect x="422" y="73" width="17" height="15" fill="#3300ff"/>
<rect x="439" y="73" width="18" height="15" fill="#3300ff"/>
<rect x="457" y="73" width="17" height="15" fill="#3300ff"/>
<rect x="474" y="73" width="17" height="15" fill="#3300ff"/>
<rect x="57" y="59" width="17" height="14" fill="#0014ff"/>
<rect x="74" y="59" width="17" height="14" fill="#0014ff"/>
<rect x="91" y="59" width="18" height="14" fill="#0014ff"/>
<rect x="109" y="59" width="17" height="14" fill="#0014ff"/>
<rect x="126" y="59" width="18" height="14" fill="#0014ff"/>
<rect x="144" y="59" width="17" height="14" fill="#0014ff"/>
<rect x="161" y="59" width="17" height="14" fill="#0014ff"/>
<rect x="178" y="59" width="18" height="14" fill="#0014ff"/>
<rect x="196" y="59" width="17" height="14" fill="#0014ff"/>
<rect x="213" y="59" width="17" height="14" fill="#0014ff"/>
<rect x="230" y="59" width="18" height="14" fill="#0014ff"/>
<rect x="248" y="59" width="17" height="14" fill="#0014ff"/>
<rect x="265" y="59" width="18" height="14" fill="#0014ff"/>
<rect x="283" y="59" width="17" height="14" fill="#3300ff"/>
<rect x="300" y="59" width="17" height="14" fill="#3300ff"/>
<rect x="317" y="59" width="18" height="14" fill="#3300ff"/>
<rect x="335" y="59" width="17" height="14" fill="#3300ff"/>
<rect x="352" y="59" width="18" height="14" fill="#3300ff"/>
<rect x="370" y="59" width="17" height="14" fill="#3300ff"/>
<rect x="387" y="59" width="17" height="14" fill="#3300ff"/>
<rect x="404" y="59" width="18" height="14" fill="#3300ff"/>
<rect x="422" y="59" width="17" height="14" fill="#3300ff"/>
<rect x="439" y="59" width="18" height="14" fill="#3300ff"/>
<rect x="457" y="59" width="17" height="14" fill="#3300ff"/>
<rect x="474" y="59" width="17" height="14" fill="#3300ff"/>
<rect x="57" y="45" width="17" height="14" fill="#0014ff"/>
<rect x="74" y="45" width="17" height="14" fill="#0014ff"/>
<rect x="91" y="45" width="18" height="14" fill="#0014ff"/>
<rect x="109" y="45" width="17" height="14" fill="#0014ff"/>
<rect x="126" y="45" width="18" height="14" fill="#0014ff"/>
<rect x="144" y="45" width="17" height="14" fill="#0014ff"/>
<rect x="161" y="45" width="17" height="14" fill="#0014ff"/>
<rect x="178" y="45" width="18" height="14" fill="#0014ff"/>
<rect x="196" y="45" width="17" height="14" fill="#0014ff"/>
<rect x="213" y="45" width="17" height="14" fill="#0014ff"/>
<rect x="230" y="45" width="18" height="14" fill="#3300ff"/>
<rect x="248" y="45" width="17" height="14" fill="#3300ff"/>
<rect x="265" y="45" width="18" height="14" fill="#3300ff"/>
<rect x="283" y="45" width="17" height="14" fill="#3300ff"/>
<rect x="300" y="45" width="17" height="14" fill="#3300ff"/>
<rect x="317" y="45" width="18" height="14" fill="#3300ff"/>
<rect x="335" y="45" width="17" height="14" fill="#3300ff"/>
<rect x="352" y="45" width="18" height="14" fill="#3300ff"/>
<rect x="370" y="45" width="17" height="14" fill="#3300ff"/>
<rect x="387" y="45" width="17" height="14" fill="#3300ff"/>
<rect x="404" y="45" width="18" height="14" fill="#3300ff"/>
<rect x="422" y="45" width="17" height="14" fill="#3300ff"/>
<rect x="439" y="45" width="18" height="14" fill="#3300ff"/>
<rect x="457" y="45" width="17" height="14" fill="#3300ff"/>
<rect x="474" y="45" width="17" height="14" fill="#3300ff"/>
<path d="M57,402h 434" fill="none" stroke="black"/>
<text x="468" y="432" fill="black" font-size="14" font-family="Helvetica">
mm
</text>
<path d="M57,392v 10" fill="none" stroke="black"/>
<path d="M65,397v 5" fill="none" stroke="black"/>
<path d="M74,397v 5" fill="none" stroke="black"/>
<path d="M83,397v 5" fill="none" stroke="black"/>
<path d="M91,397v 5" fill="none" stroke="black"/>
<path d="M100,392v 10" fill="none" stroke="black"/>
<path d="M109,397v 5" fill="none" stroke="black"/>
<path d="M117,397v 5" fill="none" stroke="black"/>
<path d="M126,397v 5" fill="none" stroke="black"/>
<path d="M135,397v 5" fill="none" stroke="black"/>
<path d="M144,392v 10" fill="none" stroke="black"/>
<path d="M152,397v 5" fill="none" stroke="black"/>
<path d="M161,397v 5" fill="none" stroke="black"/>
<path d="M170,397v 5" fill="none" stroke="black"/>
<path d="M178,397v 5" fill="none" stroke="black"/>
<path d="M187,392v 10" fill="none" stroke="black"/>
<path d="M196,397v 5" fill="none" stroke="black"/>
<path d="M204,397v 5" fill="none" stroke="black"/>
<path d="M213,397v 5" fill="none" stroke="black"/>
<path d="M222,397v 5" fill="none" stroke="black"/>
<path d="M230,392v 10" fill="none" stroke="black"/>
<path d="M239,397v 5" fill="none" stroke="black"/>
<path d="M248,397v 5" fill="none" stroke="black"/>
<path d="M257,397v 5" fill="none" stroke="black"/>
<path d="M265,397v 5" fill="none" stroke="black"/>
<path d="M274,392v 10" fill="none" stroke="black"/>
<path d="M283,397v 5" fill="none" stroke="black"/>
<path d="M291,397v 5" fill="none" stroke="black"/>
<path d="M300,397v 5" fill="none" stroke="black"/>
<path d="M309,397v 5" fill="none" stroke="black"/>
<path d="M317,392v 10" fill="none" stroke="black"/>
<path d="M326,397v 5" fill="none" stroke="black"/>
<path d="M335,397v 5" fill="none" stroke="black"/>
<path d="M344,397v 5" fill="none" stroke="black"/>
<path d="M352,397v 5" fill="none" stroke="black"/>
<path d="M361,392v 10" fill="none" stroke="black"/>
<path d="M370,397v 5" fill="none" stroke="black"/>
<path d="M378,397v 5" fill="none" stroke="black"/>
<path d="M387,397v 5" fill="none" stroke="black"/>
<path d="M396,397v 5" fill="none" stroke="black"/>
<path d="M404,392v 10" fill="none" stroke="black"/>
<path d="M413,397v 5" fill="none" stroke="black"/>
<path d="M422,397v 5" fill="none" stroke="black"/>
<path d="M430,397v 5" fill="none" stroke="black"/>
<path d="M439,397v 5" fill="none" stroke="black"/>
<path d="M448,392v 10" fill="none" stroke="black"/>
<path d="M457,397v 5" fill="none" stroke="black"/>
<path d="M465,397v 5" fill="none" stroke="black"/>
<path d="M474,397v 5" fill="none" stroke="black"/>
<path d="M483,397v 5" fill="none" stroke="black"/>
<path d="M491,392v 10" fill="none" stroke="black"/>
<text x="45" y="417" fill="black" font-size="14" font-family="Helvetica">
750
</text>
<text x="88" y="417" fill="black" font-size="14" font-family="Helvetica">
800
</text>
<text x="131" y="417" fill="black" font-size="14" font-family="Helvetica">
850
</text>
<text x="175" y="417" fill="black" font-size="14" font-family="Helvetica">
900
</text>
<text x="219" y="417" fill="black" font-size="14" font-family="Helvetica">
950
</text>
<text x="258" y="417" fill="black" font-size="14" font-family="Helvetica">
1000
</text>
<text x="301" y="417" fill="black" font-size="14" font-family="Helvetica">
1050
</text>
<text x="344" y="417" fill="black" font-size="14" font-family="Helvetica">
1100
</text>
<text x="388" y="417" fill="black" font-size="14" font-family="Helvetica">
1150
</text>
<text x="432" y="417" fill="black" font-size="14" font-family="Helvetica">
1200
</text>
<text x="475" y="417" fill="black" font-size="14" font-family="Helvetica">
1250
</text>
<path d="M57,402v -357" fill="none" stroke="black"/>
<g transform="rotate(-90,16,69)">
<text x="16" y="69" fill="black" font-size="14" font-family="Helvetica">
mm
</text>
</g>
<path d="M70,402h -13" fill="none" stroke="black"/>
<path d="M63,395h -6" fill="none" stroke="black"/>
<path d="M63,388h -6" fill="none" stroke="black"/>
<path d="M63,381h -6" fill="none" stroke="black"/>
<path d="M63,374h -6" fill="none" stroke="black"/>
<path d="M70,367h -13" fill="none" stroke="black"/>
<path d="M63,359h -6" fill="none" stroke="black"/>
<path d="M63,352h -6" fill="none" stroke="black"/>
<path d="M63,345h -6" fill="none" stroke="black"/>
<path d="M63,338h -6" fill="none" stroke="black"/>
<path d="M70,331h -13" fill="none" stroke="black"/>
<path d="M63,324h -6" fill="none" stroke="black"/>
<path d="M63,316h -6" fill="none" stroke="black"/>
<path d="M63,309h -6" fill="none" stroke="black"/>
<path d="M63,302h -6" fill="none" stroke="black"/>
<path d="M70,295h -13" fill="none" stroke="black"/>
<path d="M63,288h -6" fill="none" stroke="black"/>
<path d="M63,281h -6" fill="none" stroke="black"/>
<path d="M63,274h -6" fill="none" stroke="black"/>
<path d="M63,266h -6" fill="none" stroke="black"/>
<path d="M70,259h -13" fill="none" stroke="black"/>
<path d="M63,252h -6" fill="none" stroke="black"/>
<path d="M63,245h -6" fill="none" stroke="black"/>
<path d="M63,238h -6" fill="none" stroke="black"/>
<path d="M63,231h -6" fill="none" stroke="black"/>
<path d="M70,224h -13" fill="none" stroke="black"/>
<path d="M63,216h -6" fill="none" stroke="black"/>
<path d="M63,209h -6" fill="none" stroke="black"/>
<path d="M63,202h -6" fill="none" stroke="black"/>
<path d="M63,195h -6" fill="none" stroke="black"/>
<path d="M70,188h -13" fill="none" stroke="black"/>
<path d="M63,181h -6" fill="none" stroke="black"/>
<path d="M63,173h -6" fill="none" stroke="black"/>
<path d="M63,166h -6" fill="none" stroke="black"/>
<path d="M63,159h -6" fill="none" stroke="black"/>
<path d="M70,152h -13" fill="none" stroke="black"/>
<path d="M63,145h -6" fill="none" stroke="black"/>
<path d="M63,138h -6" fill="none" stroke="black"/>
<path d="M63,131h -6" fill="none" stroke="black"/>
<path d="M63,123h -6" fill="none" stroke="black"/>
<path d="M70,116h -13" fill="none" stroke="black"/>
<path d="M63,109h -6" fill="none" stroke="black"/>
<path d="M63,102h -6" fill="none" stroke="black"/>
<path d="M63,95h -6" fill="none" stroke="black"/>
<path d="M63,88h -6" fill="none" stroke="black"/>
<path d="M70,81h -13" fill="none" stroke="black"/>
<path d="M63,73h -6" fill="none" stroke="black"/>
<path d="M63,66h -6" fill="none" stroke="black"/>
<path d="M63,59h -6" fill="none" stroke="black"/>
<path d="M63,52h -6" fill="none" stroke="black"/>
<path d="M70,45h -13" fill="none" stroke="black"/>
<text x="21" y="408" fill="black" font-size="14" font-family="Helvetica">
3500
</text>
<text x="21" y="372" fill="black" font-size="14" font-family="Helvetica">
3550
</text>
<text x="21" y="336" fill="black" font-size="14" font-family="Helvetica">
3600
</text>
<text x="21" y="301" fill="black" font-size="14" font-family="Helvetica">
3650
</text>
<text x="21" y="264" fill="black" font-size="14" font-family="Helvetica">
3700
</text>
<text x="21" y="229" fill="black" font-size="14" font-family="Helvetica">
3750
</text>
<text x="21" y="193" fill="black" font-size="14" font-family="Helvetica">
3800
</text>
<text x="21" y="157" fill="black" font-size="14" font-family="Helvetica">
3850
</text>
<text x="21" y="122" fill="black" font-size="14" font-family="Helvetica">
3900
</text>
<text x="21" y="86" fill="black" font-size="14" font-family="Helvetica">
3950
</text>
<text x="21" y="50" fill="black" font-size="14" font-family="Helvetica">
4000
</text>
<rect x="494" y="384" width="26" height="18" fill="#6200ff"/>
<rect x="494" y="367" width="26" height="17" fill="#3300ff"/>
<rect x="494" y="349" width="26" height="18" fill="#0014ff"/>
<rect x="494" y="331" width="26" height="18" fill="#0044ff"/>
<rect x="494" y="313" width="26" height="18" fill="#008bff"/>
<rect x="494" y="295" width="26" height="18" fill="#00bbff"/>
<rect x="494" y="277" width="26" height="18" fill="#00fffb"/>
<rect x="494" y="259" width="26" height="18" fill="#00ffcc"/>
<rect x="494" y="241" width="26" height="18" fill="#00ff84"/>
<rect x="494" y="224" width="26" height="17" fill="#00ff55"/>
<rect x="494" y="206" width="26" height="18" fill="#00ff0d"/>
<rect x="494" y="188" width="26" height="18" fill="#22ff00"/>
<rect x="494" y="170" width="26" height="18" fill="#69ff00"/>
<rect x="494" y="152" width="26" height="18" fill="#99ff00"/>
<rect x="494" y="134" width="26" height="18" fill="#e0ff00"/>
<rect x="494" y="116" width="26" height="18" fill="#ffee00"/>
<rect x="494" y="98" width="26" height="18" fill="#ffa600"/>
<rect x="494" y="81" width="26" height="17" fill="#ff7700"/>
<rect x="494" y="63" width="26" height="18" fill="#ff2f00"/>
<rect x="494" y="45" width="26" height="18" fill="#ff0000"/>
<path d="M520,402v -357" fill="none" stroke="black"/>
<g transform="rotate(-90,556,214)">
<text x="556" y="214" fill="black" font-size="14" font-family="Helvetica">
Magnetic field strength (T)
</text>
</g>
<path d="M507,402h 13" fill="none" stroke="black"/>
<path d="M507,360h 13" fill="none" stroke="black"/>
<path d="M507,319h 13" fill="none" stroke="black"/>
<path d="M507,277h 13" fill="none" stroke="black"/>
<path d="M507,235h 13" fill="none" stroke="black"/>
<path d="M507,193h 13" fill="none" stroke="black"/>
<path d="M507,151h 13" fill="none" stroke="black"/>
<path d="M507,110h 13" fill="none" stroke="black"/>
<path d="M507,68h 13" fill="none" stroke="black"/>
<path d="M507,68h 13" fill="none" stroke="black"/>
<text x="523" y="408" fill="black" font-size="14" font-family="Helvetica">
0
</text>
<text x="523" y="366" fill="black" font-size="14" font-family="Helvetica">
0.2
</text>
<text x="523" y="324" fill="black" font-size="14" font-family="Helvetica">
0.4
</text>
<text x="523" y="282" fill="black" font-size="14" font-family="Helvetica">
0.6
</text>
<text x="523" y="240" fill="black" font-size="14" font-family="Helvetica">
0.8
</text>
<text x="523" y="199" fill="black" font-size="14" font-family="Helvetica">
1
</text>
<text x="523" y="157" fill="black" font-size="14" font-family="Helvetica">
1.2
</text>
<text x="523" y="115" fill="black" font-size="14" font-family="Helvetica">
1.4
</text>
<text x="523" y="73" fill="black" font-size="14" font-family="Helvetica">
1.6
</text>
<text x="131" y="22" fill="black" font-size="21" font-family="Helvetica">
Magnetic field at MuSIC detector
</text></svg>
