<?xml version="1.0" standalone="no"?>
<svg width="567" height="385" viewBox="0 0 567 385" xmlns="http://www.w3.org/2000/svg">
<title>
mu-_lifetime_in_cu_modded_g4.svg
</title>
<desc>
Creator: ROOT Version 5.34/18
CreationDate: Sun Jul 27 20:34:52 2014</desc>
<defs>
</defs>
<rect x="0" y="0" width="567" height="385" fill="white"/>
<rect x="57" y="38" width="453" height="308" fill="white"/>
<rect x="57" y="38" width="453" height="308" fill="none" stroke="black"/>
<rect x="57" y="38" width="453" height="308" fill="white"/>
<rect x="57" y="38" width="453" height="308" fill="none" stroke="black"/>
<path d="M57,109v -56v 83v -60v 25v -22v 57v -60v 49v -12v 10v -15h 1v 40v -65v 63v -34v 43v -24v 30v -4v 26v -32v 23h 1v -23v 33v -52v 72v -32v 34v -33v 31v -24v 34v -41v 46h 1v -25v 41v -41v 23v -26v 5v -15v 59v -34v 18v -21v 34v -11v 11v -12h 1v
 -6v 24v -21v 26v -8v 11v -10v 22v -20v 5v -3v 24h 1v -30v 26v -18v 12v -14v 32v -21v 19v -10v 9h 1v 10v -13v 4v -5v 12v -11v 7v -9v 34v -30v 20h 1v -20v 34v -36v 32v -26v 30v -3h 1v -16v 15v -11v 16v -8v 18v -17v 13v -22v 23v -15v 16v -23h 1v 23v
 -13v 12v -16v 13v -2v 5v -4v 1v -1v 10v -18h 1v 13v -8v 14v -12v 16v -12v 12v -11v 18v -18v 21v -17v 6v -6h 1v 14v -21v 14v -8v 16v -13v 2v -1v 8h 1v -14v 11v -6v 20v -15v 7v -7v 10h 1v -10v 7v -11v 15v -4v 1v -1v 5v -12v 5v -2h 1v 7v -7v 8v -6v 7v
 -9v 9v -13v 9v -3v 7v -5v 8v -7v 3h 1v -1v 1v -1v 2v -4v 6v -3v 5v -9h 1v 5v -4v 4v -7v 10v -14v 10v -1v 2v -2v 6v -2v 4v -7v 7h 1v -4v 2v -1v 1v -2v 4v -6v 7v -8v 7v -3h 1v -5v 6v -5v 7v -3v 1v -4v 4v -2v 2h 1v -4v 6v -3v 1v -1v 3v -2v 4v -8v 8v
 -5v 1v -1h 1v 3v -3v 1v -1v 3v -4v 5v -11v 10v -3v 4v -3v 2h 1v 1v -1v 1v -4v 5v -5v 5v -4v 3h 1v -3v 3v -3v 4v -1v 1v -2v 2v -1v 1v -2v 1h 1v 1v -1v 1v -2v 2v -4v 4v -1v 1v -2v 1h 1v 1v -2v 1v -1v 2v -1v 1v -2v 1h 1v -1v 2v -1v 1v -2v 2v -4v 3v -1v
 2v -2v 2h 1v -2v 1v -1v 1v -3v 4v -2v 2v -1v 1v -1v 1h 1v -4v 4v -2v 2v -1v 1v -1v 1h 1v -1v 1v -1v 1v -2v 2v -2v 2v -1v 1h 1v -2v 2v -1v 1v -1v 1h 1v -2v 2v -1v 1v -1v 1v -1v 1v -2v 2h 1v -1v 1v -1v 1v -1v 1h 1v -1v 1h 1v -1v 1v -1v 1h 1v -1v 1h 1v
 -1v 1h 1v -1v 1h 1v -1v 1h 1v -1v 1v -1v 1h 1v -1v 1h 4v -1v 1h 4v -1v 1h 7v -1v 1h 399" fill="none" stroke="#000099"/>
<path d="M59,183l 4, 102l 5, 38l 5, 15l 4, 5l 5, 2l 4, 1h 195" fill="none" stroke="#ff0000" stroke-width="2"/>
<path d="M281,346h 222" fill="none" stroke="#ff0000" stroke-width="2"/>
<path d="M503,346h 5" fill="none" stroke="#ff0000" stroke-width="2"/>
<rect x="283" y="38" width="227" height="154" fill="white"/>
<path d="M283,192h 227" fill="none" stroke="black"/>
<path d="M510,192v -154" fill="none" stroke="black"/>
<path d="M510,38h -227" fill="none" stroke="black"/>
<path d="M283,38v 154" fill="none" stroke="black"/>
<text x="294" y="57" fill="black" font-size="18" font-family="Helvetica">
Entries 
</text>
<text x="441" y="57" fill="black" font-size="18" font-family="Helvetica">
 15927
</text>
<text x="294" y="82" fill="black" font-size="18" font-family="Helvetica">
Mean  
</text>
<text x="441" y="84" fill="black" font-size="18" font-family="Helvetica">
  1.307
</text>
<text x="427" y="84" fill="black" font-size="18" font-family="Times">
&#0177;
</text>
<text x="365" y="84" fill="black" font-size="18" font-family="Helvetica">
  167.3 
</text>
<text x="294" y="108" fill="black" font-size="18" font-family="Helvetica">
RMS   
</text>
<text x="437" y="110" fill="black" font-size="18" font-family="Helvetica">
 0.9244
</text>
<text x="422" y="110" fill="black" font-size="18" font-family="Times">
&#0177;
</text>
<text x="365" y="110" fill="black" font-size="18" font-family="Helvetica">
    165 
</text>
<text x="310" y="136" fill="black" font-size="18" font-family="Helvetica">
 / ndf 
</text>
<text x="303" y="121" fill="black" font-size="12" font-family="Helvetica">
2
</text>
<text x="294" y="136" fill="black" font-size="18" font-family="Times">
&#0967;
</text>
<text x="389" y="133" fill="black" font-size="18" font-family="Helvetica">
 555.1 / 7998
</text>
<text x="294" y="159" fill="black" font-size="18" font-family="Helvetica">
N        
</text>
<text x="468" y="161" fill="black" font-size="18" font-family="Helvetica">
 2.3
</text>
<text x="453" y="161" fill="black" font-size="18" font-family="Times">
&#0177;
</text>
<text x="402" y="161" fill="black" font-size="18" font-family="Helvetica">
   200 
</text>
<text x="301" y="186" fill="black" font-size="18" font-family="Helvetica">
     
</text>
<text x="294" y="186" fill="black" font-size="18" font-family="Times">
&#0964;
</text>
<text x="468" y="186" fill="black" font-size="18" font-family="Helvetica">
 1.3
</text>
<text x="453" y="186" fill="black" font-size="18" font-family="Times">
&#0177;
</text>
<text x="396" y="186" fill="black" font-size="18" font-family="Helvetica">
 163.3 
</text>
<path d="M57,346h 453" fill="none" stroke="black"/>
<text x="419" y="372" fill="black" font-size="12" font-family="Helvetica">
Decay time (ns)
</text>
<path d="M113,337v 9" fill="none" stroke="black"/>
<path d="M127,342v 4" fill="none" stroke="black"/>
<path d="M142,342v 4" fill="none" stroke="black"/>
<path d="M156,342v 4" fill="none" stroke="black"/>
<path d="M170,337v 9" fill="none" stroke="black"/>
<path d="M184,342v 4" fill="none" stroke="black"/>
<path d="M198,342v 4" fill="none" stroke="black"/>
<path d="M212,342v 4" fill="none" stroke="black"/>
<path d="M227,337v 9" fill="none" stroke="black"/>
<path d="M241,342v 4" fill="none" stroke="black"/>
<path d="M255,342v 4" fill="none" stroke="black"/>
<path d="M269,342v 4" fill="none" stroke="black"/>
<path d="M283,337v 9" fill="none" stroke="black"/>
<path d="M298,342v 4" fill="none" stroke="black"/>
<path d="M312,342v 4" fill="none" stroke="black"/>
<path d="M326,342v 4" fill="none" stroke="black"/>
<path d="M340,337v 9" fill="none" stroke="black"/>
<path d="M354,342v 4" fill="none" stroke="black"/>
<path d="M368,342v 4" fill="none" stroke="black"/>
<path d="M383,342v 4" fill="none" stroke="black"/>
<path d="M397,337v 9" fill="none" stroke="black"/>
<path d="M411,342v 4" fill="none" stroke="black"/>
<path d="M425,342v 4" fill="none" stroke="black"/>
<path d="M439,342v 4" fill="none" stroke="black"/>
<path d="M453,337v 9" fill="none" stroke="black"/>
<path d="M468,342v 4" fill="none" stroke="black"/>
<path d="M482,342v 4" fill="none" stroke="black"/>
<path d="M496,342v 4" fill="none" stroke="black"/>
<path d="M510,337v 9" fill="none" stroke="black"/>
<path d="M113,337v 9" fill="none" stroke="black"/>
<path d="M99,342v 4" fill="none" stroke="black"/>
<path d="M85,342v 4" fill="none" stroke="black"/>
<path d="M71,342v 4" fill="none" stroke="black"/>
<path d="M510,337v 9" fill="none" stroke="black"/>
<text x="99" y="359" fill="black" font-size="12" font-family="Helvetica">
2000
</text>
<text x="155" y="359" fill="black" font-size="12" font-family="Helvetica">
4000
</text>
<text x="212" y="359" fill="black" font-size="12" font-family="Helvetica">
6000
</text>
<text x="268" y="359" fill="black" font-size="12" font-family="Helvetica">
8000
</text>
<text x="322" y="359" fill="black" font-size="12" font-family="Helvetica">
10000
</text>
<text x="379" y="359" fill="black" font-size="12" font-family="Helvetica">
12000
</text>
<text x="435" y="359" fill="black" font-size="12" font-family="Helvetica">
14000
</text>
<text x="492" y="359" fill="black" font-size="12" font-family="Helvetica">
16000
</text>
<path d="M57,346v -308" fill="none" stroke="black"/>
<g transform="rotate(-90,29,72)">
<text x="29" y="72" fill="black" font-size="12" font-family="Helvetica">
Count
</text>
</g>
<path d="M70,346h -13" fill="none" stroke="black"/>
<path d="M63,340h -6" fill="none" stroke="black"/>
<path d="M63,333h -6" fill="none" stroke="black"/>
<path d="M63,326h -6" fill="none" stroke="black"/>
<path d="M70,319h -13" fill="none" stroke="black"/>
<path d="M63,312h -6" fill="none" stroke="black"/>
<path d="M63,306h -6" fill="none" stroke="black"/>
<path d="M63,299h -6" fill="none" stroke="black"/>
<path d="M70,292h -13" fill="none" stroke="black"/>
<path d="M63,285h -6" fill="none" stroke="black"/>
<path d="M63,278h -6" fill="none" stroke="black"/>
<path d="M63,271h -6" fill="none" stroke="black"/>
<path d="M70,265h -13" fill="none" stroke="black"/>
<path d="M63,258h -6" fill="none" stroke="black"/>
<path d="M63,251h -6" fill="none" stroke="black"/>
<path d="M63,244h -6" fill="none" stroke="black"/>
<path d="M70,237h -13" fill="none" stroke="black"/>
<path d="M63,230h -6" fill="none" stroke="black"/>
<path d="M63,224h -6" fill="none" stroke="black"/>
<path d="M63,217h -6" fill="none" stroke="black"/>
<path d="M70,210h -13" fill="none" stroke="black"/>
<path d="M63,203h -6" fill="none" stroke="black"/>
<path d="M63,196h -6" fill="none" stroke="black"/>
<path d="M63,189h -6" fill="none" stroke="black"/>
<path d="M70,183h -13" fill="none" stroke="black"/>
<path d="M63,176h -6" fill="none" stroke="black"/>
<path d="M63,169h -6" fill="none" stroke="black"/>
<path d="M63,162h -6" fill="none" stroke="black"/>
<path d="M70,155h -13" fill="none" stroke="black"/>
<path d="M63,148h -6" fill="none" stroke="black"/>
<path d="M63,142h -6" fill="none" stroke="black"/>
<path d="M63,135h -6" fill="none" stroke="black"/>
<path d="M70,128h -13" fill="none" stroke="black"/>
<path d="M63,121h -6" fill="none" stroke="black"/>
<path d="M63,114h -6" fill="none" stroke="black"/>
<path d="M63,108h -6" fill="none" stroke="black"/>
<path d="M70,101h -13" fill="none" stroke="black"/>
<path d="M63,94h -6" fill="none" stroke="black"/>
<path d="M63,87h -6" fill="none" stroke="black"/>
<path d="M63,80h -6" fill="none" stroke="black"/>
<path d="M70,73h -13" fill="none" stroke="black"/>
<path d="M63,67h -6" fill="none" stroke="black"/>
<path d="M63,60h -6" fill="none" stroke="black"/>
<path d="M63,53h -6" fill="none" stroke="black"/>
<path d="M70,46h -13" fill="none" stroke="black"/>
<path d="M70,46h -13" fill="none" stroke="black"/>
<path d="M63,39h -6" fill="none" stroke="black"/>
<text x="47" y="350" fill="black" font-size="12" font-family="Helvetica">
0
</text>
<text x="40" y="323" fill="black" font-size="12" font-family="Helvetica">
20
</text>
<text x="40" y="295" fill="black" font-size="12" font-family="Helvetica">
40
</text>
<text x="40" y="269" fill="black" font-size="12" font-family="Helvetica">
60
</text>
<text x="40" y="241" fill="black" font-size="12" font-family="Helvetica">
80
</text>
<text x="33" y="214" fill="black" font-size="12" font-family="Helvetica">
100
</text>
<text x="33" y="186" fill="black" font-size="12" font-family="Helvetica">
120
</text>
<text x="33" y="159" fill="black" font-size="12" font-family="Helvetica">
140
</text>
<text x="33" y="132" fill="black" font-size="12" font-family="Helvetica">
160
</text>
<text x="33" y="104" fill="black" font-size="12" font-family="Helvetica">
180
</text>
<text x="33" y="77" fill="black" font-size="12" font-family="Helvetica">
200
</text>
<text x="33" y="49" fill="black" font-size="12" font-family="Helvetica">
220
</text>
<rect x="283" y="38" width="227" height="154" fill="white"/>
<path d="M283,192h 227" fill="none" stroke="black"/>
<path d="M510,192v -154" fill="none" stroke="black"/>
<path d="M510,38h -227" fill="none" stroke="black"/>
<path d="M283,38v 154" fill="none" stroke="black"/>
<text x="294" y="57" fill="black" font-size="18" font-family="Helvetica">
Entries 
</text>
<text x="441" y="57" fill="black" font-size="18" font-family="Helvetica">
 15927
</text>
<text x="294" y="82" fill="black" font-size="18" font-family="Helvetica">
Mean  
</text>
<text x="441" y="84" fill="black" font-size="18" font-family="Helvetica">
  1.307
</text>
<text x="427" y="84" fill="black" font-size="18" font-family="Times">
&#0177;
</text>
<text x="365" y="84" fill="black" font-size="18" font-family="Helvetica">
  167.3 
</text>
<text x="294" y="108" fill="black" font-size="18" font-family="Helvetica">
RMS   
</text>
<text x="437" y="110" fill="black" font-size="18" font-family="Helvetica">
 0.9244
</text>
<text x="422" y="110" fill="black" font-size="18" font-family="Times">
&#0177;
</text>
<text x="365" y="110" fill="black" font-size="18" font-family="Helvetica">
    165 
</text>
<text x="310" y="136" fill="black" font-size="18" font-family="Helvetica">
 / ndf 
</text>
<text x="303" y="121" fill="black" font-size="12" font-family="Helvetica">
2
</text>
<text x="294" y="136" fill="black" font-size="18" font-family="Times">
&#0967;
</text>
<text x="389" y="133" fill="black" font-size="18" font-family="Helvetica">
 555.1 / 7998
</text>
<text x="294" y="159" fill="black" font-size="18" font-family="Helvetica">
N        
</text>
<text x="468" y="161" fill="black" font-size="18" font-family="Helvetica">
 2.3
</text>
<text x="453" y="161" fill="black" font-size="18" font-family="Times">
&#0177;
</text>
<text x="402" y="161" fill="black" font-size="18" font-family="Helvetica">
   200 
</text>
<text x="301" y="186" fill="black" font-size="18" font-family="Helvetica">
     
</text>
<text x="294" y="186" fill="black" font-size="18" font-family="Times">
&#0964;
</text>
<text x="468" y="186" fill="black" font-size="18" font-family="Helvetica">
 1.3
</text>
<text x="453" y="186" fill="black" font-size="18" font-family="Times">
&#0177;
</text>
<text x="396" y="186" fill="black" font-size="18" font-family="Helvetica">
 163.3 
</text>
<text x="103" y="20" fill="black" font-size="18" font-family="Helvetica">
muon lifetime in 1mm Cu (modified Geant4)
</text></svg>
