<?xml version="1.0" standalone="no"?>
<svg width="567" height="384" viewBox="0 0 567 384" xmlns="http://www.w3.org/2000/svg">
<title>
mu-_lifetime_in_cu_unmodded_g4.svg
</title>
<desc>
Creator: ROOT Version 5.34/09
CreationDate: Sun Oct 27 18:26:23 2013</desc>
<defs>
</defs>
<rect x="0" y="0" width="567" height="384" fill="white"/>
<rect x="57" y="38" width="453" height="308" fill="white"/>
<rect x="57" y="38" width="453" height="308" fill="none" stroke="black"/>
<rect x="57" y="38" width="453" height="308" fill="white"/>
<rect x="57" y="38" width="453" height="308" fill="none" stroke="black"/>
<path d="M57,53h 1v 19h 1v 12h 1v 4h 1v 11h 1v 4h 1v 7h 1v 12h 1v -4h 1v 13h 1v 5h 1v 9h 1v 8h 1v 5h 1v 3h 1v 4h 1v 7h 1v 11h 1v -1h 1v 4h 1v 4h 1v 6v -3h 1v 11h 1v 3h 1v 4h 1v 3h 1v 7h 1v 2h 2v 4h 1v -3h 1v 11v -1h 1v 7h 1v 4h 1v 3h 2v 5h 1v 1h 1v
 5h 1v -2h 1v 3h 1v 4h 1v 2h 1v 1h 1v 4h 1v 1h 1v 2h 1v 3h 2v 2h 1v 4h 1v 4h 1v -1h 1v 6h 1v -1h 1v 1h 1v 2h 1v -1h 1v 1h 1v 4h 1v 3h 1v 1h 1v 2h 3v 1h 1v 2h 1v 2h 2v 1h 1v 2v -2h 1v 4h 1v 1h 1v -2h 1v 3h 1v -1h 1v 3h 1v 1h 2v -1h 1v 2v -1h 1v 1h 1v
 3h 2v -1h 1v 2h 1v -1h 1v 2h 1v 1h 1v 1h 1v 1h 1v -1h 1v 1h 2v 4h 1v -2h 3v 1h 1v 1h 3v 1h 4v -1h 1v 1h 1v 1h 1v 1v -2h 1v 1h 1v 2h 2v 1h 1v 1h 1v -1h 4v 1h 2v 1h 1v -1h 1v -1h 1v 2h 2v 1h 1v -2h 1v 2h 1v -1h 1v 1h 2v 1h 1v -1h 1v 1h 1v -1h 1v 1h 1v
 1h 1v -1v 1h 5v -1h 1v 1h 1v -1h 1v 1h 3v 1h 1v -1h 1v 1h 3v -1h 1v 1h 2v -1h 1v 1h 3v 1h 2v -1h 1v 1h 1v -1h 1v 1h 1v -1h 1v 1v -1h 1v 1h 9v 1h 1v -1h 6v 1h 2v -1v 1h 5v -1h 1v 1h 1v -1h 1v 1h 58v 1h 1v -1h 4v 1h 2v -1h 1v 1h 1v -1h 1v 1h 1v -1h 1v
 1v -1h 1v 1h 1v -1h 3v 1h 1v -1h 3v 1h 1v -1h 3v 1h 1v -1h 1v 1h 4v -1h 1v 1h 1v -1h 2v 1h 1v -1h 1v 1h 4v -1h 1v 1h 10v -1h 1v 1h 1v -1h 1v 1h 3v -1h 1v 1h 2v -1h 1v 1h 4v -1h 1v 1h 6v -1h 1v 1h 1v -1h 1v 1h 3v -1h 1v 1h 5v -1h 1v 1h 56v -1h 1v 1h
 12v -1h 1v 1h 44" fill="none" stroke="#000099"/>
<path d="M59,76l 4, 35l 5, 30l 5, 26l 4, 23l 5, 20l 4, 17l 5, 15l 4, 14l 5, 11l 4, 10l 5, 9l 4, 8l 5, 6l 4, 6l 5, 5l 5, 4l 4, 4l 5, 4l 4, 3l 5, 2l 4, 2l 5, 2l 4, 2l 5, 1l 4, 2l 5, 1l 4, 1l 5, 1h 4l 5, 1l 5, 1h 4l 5, 1h 9l 4, 1h 18l 5, 1h 36"
 fill="none" stroke="#ff0000" stroke-width="2"/>
<path d="M281,345h 59l 5, 1h 158" fill="none" stroke="#ff0000" stroke-width="2"/>
<path d="M503,346h 5" fill="none" stroke="#ff0000" stroke-width="2"/>
<rect x="283" y="38" width="227" height="154" fill="white"/>
<path d="M283,192h 227" fill="none" stroke="black"/>
<path d="M510,192v -154" fill="none" stroke="black"/>
<path d="M510,38h -227" fill="none" stroke="black"/>
<path d="M283,38v 154" fill="none" stroke="black"/>
<text x="294" y="54" fill="black" font-size="16" font-family="Helvetica">
Entries 
</text>
<text x="440" y="54" fill="black" font-size="16" font-family="Helvetica">
 282553
</text>
<text x="294" y="73" fill="black" font-size="16" font-family="Helvetica">
Mean  
</text>
<text x="452" y="73" fill="black" font-size="16" font-family="Helvetica">
  2.501
</text>
<text x="443" y="73" fill="black" font-size="16" font-family="Times">
&#0177;
</text>
<text x="388" y="73" fill="black" font-size="16" font-family="Helvetica">
   1184 
</text>
<text x="294" y="92" fill="black" font-size="16" font-family="Helvetica">
RMS   
</text>
<text x="449" y="92" fill="black" font-size="16" font-family="Helvetica">
  1.768
</text>
<text x="440" y="92" fill="black" font-size="16" font-family="Times">
&#0177;
</text>
<text x="384" y="92" fill="black" font-size="16" font-family="Helvetica">
   1183 
</text>
<text x="310" y="109" fill="black" font-size="16" font-family="Helvetica">
 / ndf 
</text>
<text x="303" y="105" fill="black" font-size="11" font-family="Helvetica">
2
</text>
<text x="294" y="109" fill="black" font-size="16" font-family="Times">
&#0967;
</text>
<text x="415" y="111" fill="black" font-size="16" font-family="Helvetica">
 334.8 / 341
</text>
<text x="316" y="128" fill="black" font-size="16" font-family="Helvetica">
   
</text>
<text x="305" y="132" fill="black" font-size="11" font-family="Helvetica">
cu
</text>
<text x="294" y="128" fill="black" font-size="16" font-family="Helvetica">
N
</text>
<text x="454" y="131" fill="black" font-size="16" font-family="Helvetica">
 158.4
</text>
<text x="445" y="131" fill="black" font-size="16" font-family="Times">
&#0177;
</text>
<text x="394" y="131" fill="black" font-size="16" font-family="Helvetica">
  2960 
</text>
<text x="313" y="145" fill="black" font-size="16" font-family="Helvetica">
 
</text>
<text x="301" y="150" fill="black" font-size="11" font-family="Helvetica">
cu
</text>
<text x="294" y="145" fill="black" font-size="16" font-family="Times">
&#0964;
</text>
<text x="463" y="150" fill="black" font-size="16" font-family="Helvetica">
 30.3
</text>
<text x="454" y="150" fill="black" font-size="16" font-family="Times">
&#0177;
</text>
<text x="403" y="150" fill="black" font-size="16" font-family="Helvetica">
  1120 
</text>
<text x="308" y="167" fill="black" font-size="16" font-family="Helvetica">
    
</text>
<text x="305" y="171" fill="black" font-size="11" font-family="Helvetica">
f
</text>
<text x="294" y="167" fill="black" font-size="16" font-family="Helvetica">
N
</text>
<text x="454" y="169" fill="black" font-size="16" font-family="Helvetica">
 158.2
</text>
<text x="445" y="169" fill="black" font-size="16" font-family="Times">
&#0177;
</text>
<text x="394" y="169" fill="black" font-size="16" font-family="Helvetica">
  3223 
</text>
<text x="305" y="184" fill="black" font-size="16" font-family="Helvetica">
 
</text>
<text x="301" y="189" fill="black" font-size="11" font-family="Helvetica">
f
</text>
<text x="294" y="184" fill="black" font-size="16" font-family="Times">
&#0964;
</text>
<text x="465" y="189" fill="black" font-size="16" font-family="Helvetica">
 24.1
</text>
<text x="456" y="189" fill="black" font-size="16" font-family="Times">
&#0177;
</text>
<text x="408" y="189" fill="black" font-size="16" font-family="Helvetica">
  1211 
</text>
<path d="M57,346h 453" fill="none" stroke="black"/>
<text x="425" y="370" fill="black" font-size="12" font-family="Helvetica">
Decay time (ns)
</text>
<path d="M113,336v 10" fill="none" stroke="black"/>
<path d="M127,341v 5" fill="none" stroke="black"/>
<path d="M141,341v 5" fill="none" stroke="black"/>
<path d="M156,341v 5" fill="none" stroke="black"/>
<path d="M170,336v 10" fill="none" stroke="black"/>
<path d="M184,341v 5" fill="none" stroke="black"/>
<path d="M198,341v 5" fill="none" stroke="black"/>
<path d="M212,341v 5" fill="none" stroke="black"/>
<path d="M226,336v 10" fill="none" stroke="black"/>
<path d="M241,341v 5" fill="none" stroke="black"/>
<path d="M255,341v 5" fill="none" stroke="black"/>
<path d="M269,341v 5" fill="none" stroke="black"/>
<path d="M283,336v 10" fill="none" stroke="black"/>
<path d="M297,341v 5" fill="none" stroke="black"/>
<path d="M312,341v 5" fill="none" stroke="black"/>
<path d="M326,341v 5" fill="none" stroke="black"/>
<path d="M340,336v 10" fill="none" stroke="black"/>
<path d="M354,341v 5" fill="none" stroke="black"/>
<path d="M368,341v 5" fill="none" stroke="black"/>
<path d="M382,341v 5" fill="none" stroke="black"/>
<path d="M397,336v 10" fill="none" stroke="black"/>
<path d="M411,341v 5" fill="none" stroke="black"/>
<path d="M425,341v 5" fill="none" stroke="black"/>
<path d="M439,341v 5" fill="none" stroke="black"/>
<path d="M453,336v 10" fill="none" stroke="black"/>
<path d="M467,341v 5" fill="none" stroke="black"/>
<path d="M482,341v 5" fill="none" stroke="black"/>
<path d="M496,341v 5" fill="none" stroke="black"/>
<path d="M510,336v 10" fill="none" stroke="black"/>
<path d="M113,336v 10" fill="none" stroke="black"/>
<path d="M99,341v 5" fill="none" stroke="black"/>
<path d="M85,341v 5" fill="none" stroke="black"/>
<path d="M71,341v 5" fill="none" stroke="black"/>
<path d="M510,336v 10" fill="none" stroke="black"/>
<text x="99" y="358" fill="black" font-size="12" font-family="Helvetica">
2000
</text>
<text x="156" y="358" fill="black" font-size="12" font-family="Helvetica">
4000
</text>
<text x="213" y="358" fill="black" font-size="12" font-family="Helvetica">
6000
</text>
<text x="269" y="358" fill="black" font-size="12" font-family="Helvetica">
8000
</text>
<text x="323" y="358" fill="black" font-size="12" font-family="Helvetica">
10000
</text>
<text x="379" y="358" fill="black" font-size="12" font-family="Helvetica">
12000
</text>
<text x="436" y="358" fill="black" font-size="12" font-family="Helvetica">
14000
</text>
<text x="493" y="358" fill="black" font-size="12" font-family="Helvetica">
16000
</text>
<path d="M57,346v -308" fill="none" stroke="black"/>
<g transform="rotate(-90,29,70)">
<text x="29" y="70" fill="black" font-size="12" font-family="Helvetica">
Count
</text>
</g>
<path d="M70,346h -13" fill="none" stroke="black"/>
<path d="M63,336h -6" fill="none" stroke="black"/>
<path d="M63,327h -6" fill="none" stroke="black"/>
<path d="M63,317h -6" fill="none" stroke="black"/>
<path d="M63,308h -6" fill="none" stroke="black"/>
<path d="M70,298h -13" fill="none" stroke="black"/>
<path d="M63,289h -6" fill="none" stroke="black"/>
<path d="M63,280h -6" fill="none" stroke="black"/>
<path d="M63,270h -6" fill="none" stroke="black"/>
<path d="M63,261h -6" fill="none" stroke="black"/>
<path d="M70,251h -13" fill="none" stroke="black"/>
<path d="M63,242h -6" fill="none" stroke="black"/>
<path d="M63,233h -6" fill="none" stroke="black"/>
<path d="M63,223h -6" fill="none" stroke="black"/>
<path d="M63,214h -6" fill="none" stroke="black"/>
<path d="M70,204h -13" fill="none" stroke="black"/>
<path d="M63,195h -6" fill="none" stroke="black"/>
<path d="M63,185h -6" fill="none" stroke="black"/>
<path d="M63,176h -6" fill="none" stroke="black"/>
<path d="M63,167h -6" fill="none" stroke="black"/>
<path d="M70,157h -13" fill="none" stroke="black"/>
<path d="M63,148h -6" fill="none" stroke="black"/>
<path d="M63,138h -6" fill="none" stroke="black"/>
<path d="M63,129h -6" fill="none" stroke="black"/>
<path d="M63,119h -6" fill="none" stroke="black"/>
<path d="M70,110h -13" fill="none" stroke="black"/>
<path d="M63,101h -6" fill="none" stroke="black"/>
<path d="M63,91h -6" fill="none" stroke="black"/>
<path d="M63,82h -6" fill="none" stroke="black"/>
<path d="M63,72h -6" fill="none" stroke="black"/>
<path d="M70,63h -13" fill="none" stroke="black"/>
<path d="M70,63h -13" fill="none" stroke="black"/>
<path d="M63,54h -6" fill="none" stroke="black"/>
<path d="M63,44h -6" fill="none" stroke="black"/>
<text x="47" y="350" fill="black" font-size="12" font-family="Helvetica">
0
</text>
<text x="27" y="303" fill="black" font-size="12" font-family="Helvetica">
1000
</text>
<text x="27" y="256" fill="black" font-size="12" font-family="Helvetica">
2000
</text>
<text x="27" y="209" fill="black" font-size="12" font-family="Helvetica">
3000
</text>
<text x="27" y="162" fill="black" font-size="12" font-family="Helvetica">
4000
</text>
<text x="27" y="114" fill="black" font-size="12" font-family="Helvetica">
5000
</text>
<text x="27" y="67" fill="black" font-size="12" font-family="Helvetica">
6000
</text>
<rect x="283" y="38" width="227" height="154" fill="white"/>
<path d="M283,192h 227" fill="none" stroke="black"/>
<path d="M510,192v -154" fill="none" stroke="black"/>
<path d="M510,38h -227" fill="none" stroke="black"/>
<path d="M283,38v 154" fill="none" stroke="black"/>
<text x="294" y="54" fill="black" font-size="16" font-family="Helvetica">
Entries 
</text>
<text x="440" y="54" fill="black" font-size="16" font-family="Helvetica">
 282553
</text>
<text x="294" y="73" fill="black" font-size="16" font-family="Helvetica">
Mean  
</text>
<text x="452" y="73" fill="black" font-size="16" font-family="Helvetica">
  2.501
</text>
<text x="443" y="73" fill="black" font-size="16" font-family="Times">
&#0177;
</text>
<text x="388" y="73" fill="black" font-size="16" font-family="Helvetica">
   1184 
</text>
<text x="294" y="92" fill="black" font-size="16" font-family="Helvetica">
RMS   
</text>
<text x="449" y="92" fill="black" font-size="16" font-family="Helvetica">
  1.768
</text>
<text x="440" y="92" fill="black" font-size="16" font-family="Times">
&#0177;
</text>
<text x="384" y="92" fill="black" font-size="16" font-family="Helvetica">
   1183 
</text>
<text x="310" y="109" fill="black" font-size="16" font-family="Helvetica">
 / ndf 
</text>
<text x="303" y="105" fill="black" font-size="11" font-family="Helvetica">
2
</text>
<text x="294" y="109" fill="black" font-size="16" font-family="Times">
&#0967;
</text>
<text x="415" y="111" fill="black" font-size="16" font-family="Helvetica">
 334.8 / 341
</text>
<text x="316" y="128" fill="black" font-size="16" font-family="Helvetica">
   
</text>
<text x="305" y="132" fill="black" font-size="11" font-family="Helvetica">
cu
</text>
<text x="294" y="128" fill="black" font-size="16" font-family="Helvetica">
N
</text>
<text x="454" y="131" fill="black" font-size="16" font-family="Helvetica">
 158.4
</text>
<text x="445" y="131" fill="black" font-size="16" font-family="Times">
&#0177;
</text>
<text x="394" y="131" fill="black" font-size="16" font-family="Helvetica">
  2960 
</text>
<text x="313" y="145" fill="black" font-size="16" font-family="Helvetica">
 
</text>
<text x="301" y="150" fill="black" font-size="11" font-family="Helvetica">
cu
</text>
<text x="294" y="145" fill="black" font-size="16" font-family="Times">
&#0964;
</text>
<text x="463" y="150" fill="black" font-size="16" font-family="Helvetica">
 30.3
</text>
<text x="454" y="150" fill="black" font-size="16" font-family="Times">
&#0177;
</text>
<text x="403" y="150" fill="black" font-size="16" font-family="Helvetica">
  1120 
</text>
<text x="308" y="167" fill="black" font-size="16" font-family="Helvetica">
    
</text>
<text x="305" y="171" fill="black" font-size="11" font-family="Helvetica">
f
</text>
<text x="294" y="167" fill="black" font-size="16" font-family="Helvetica">
N
</text>
<text x="454" y="169" fill="black" font-size="16" font-family="Helvetica">
 158.2
</text>
<text x="445" y="169" fill="black" font-size="16" font-family="Times">
&#0177;
</text>
<text x="394" y="169" fill="black" font-size="16" font-family="Helvetica">
  3223 
</text>
<text x="305" y="184" fill="black" font-size="16" font-family="Helvetica">
 
</text>
<text x="301" y="189" fill="black" font-size="11" font-family="Helvetica">
f
</text>
<text x="294" y="184" fill="black" font-size="16" font-family="Times">
&#0964;
</text>
<text x="465" y="189" fill="black" font-size="16" font-family="Helvetica">
 24.1
</text>
<text x="456" y="189" fill="black" font-size="16" font-family="Times">
&#0177;
</text>
<text x="408" y="189" fill="black" font-size="16" font-family="Helvetica">
  1211 
</text>
<text x="98" y="18" fill="black" font-size="17" font-family="Helvetica">
muon lifetime in 1mm Cu (un-modified Geant4)
</text></svg>
