<?xml version="1.0" standalone="no"?>
<svg width="567" height="385" viewBox="0 0 567 385" xmlns="http://www.w3.org/2000/svg">
<title>
mu-_lifetime_in_cu_unmodded_g4.svg
</title>
<desc>
Creator: ROOT Version 5.34/18
CreationDate: Sun Jul 27 20:34:52 2014</desc>
<defs>
</defs>
<rect x="0" y="0" width="567" height="385" fill="white"/>
<rect x="57" y="38" width="453" height="308" fill="white"/>
<rect x="57" y="38" width="453" height="308" fill="none" stroke="black"/>
<rect x="57" y="38" width="453" height="308" fill="white"/>
<rect x="57" y="38" width="453" height="308" fill="none" stroke="black"/>
<path d="M57,102v -49v 41v -26v 34v -29v 35v -40v 44v -41h 1v -3v 15v -23v 60v -37v 37v -60v 64v -57v 39v -35h 1v 64v -73v 33v -9v 37v -58v 53v -24v 3v -14v 12v -27v 38h 1v 4v -15v 26v -31v 37v -24v 5v -10v 12v -4v 6v -21v 14h 1v 43v -75v 62v -51v
 37v -24v 23v -33v 30v -5v 23v -36h 1v 21v -25v 25v -17v 44v -48v 69v -41v 17v -28h 1v 28v -42v 23v -24v 61v -38v 30v -27v 17h 1v -35v 35v -43v 50v -43v 28v -7v 24v -36v 14h 1v 7v -28v 26v -33v 44v -19v 18v -37v 53v -41v 4v -8v 31v -34v 51h 1v -42v
 57v -45v 31v -37v 41v -32v 31v -10h 1v -28v 9v -7v 35v -47v 41v -39v 23v -18v 31v -31v 37v -41h 1v 44v -26v 11v -2v 13v -5v 5v -9v 10v -6v 14v -34v 37v -47h 1v 36v -15v 31v -17v 13v -29v 21v -12v 26h 1v -28v 34v -34v 7v -9v 28v -24v 28v -37v 6h 1v
 26v -30v 41v -15v 22v -63v 46v -8v 23v -22v 10v -22v 23v -6h 1v -17v 15v -5v 4v -11v 34v -26v 14v -6v 7v -37v 48v -30v 15h 1v -12v 47v -51v 49v -43v 33v -28h 1v -6v 49v -37v 26v -17v 17v -41v 29v -16v 9v -15v 17v -14v 11v -30h 1v 42v -39v 51v -36v
 19v -17v 36v -25v 2v -9v 22h 1v -3v 5v -54v 48v -15v 10v -11v 7v -9v 9v -7v 12v -8h 1v -15v 33v -13v 18v -20v 6v -15v 24v -14v 26v -22h 1v 29v -41v 23v -15v 16v -37v 51v -37v 36v -21v 23h 1v -31v 52v -45v 20v -37v 36v -42v 35h 1v 1v -20v 46v -16v 1v
 -23v 32v -39v 36v -26v 7v -2v 6v -8h 1v 35v -22v 18v -31v 12v -7v 41v -45v 18v -10v 23v -20v 7h 1v 5v -7v 14v -22v 17v -20v 20v -20v 24v -43v 19v -8v 22v -12v 22v -24h 1v 18v -12v 9v -9v 26v -22v 29v -51v 45v -15v 3v -33v 40v -24h 1v 28v -36v 28v
 -32v 29v -22v 19v -11v 17v -9v 22v -38v 8h 1v 32v -40v 31v -26v 20v -11v 13v -23v 17v -7v 16v -7v 10v -22h 1v 22v -11v 4v -7v 11v -16v 4v -13v 31v -25v 26v -30h 1v 27v -15v 18v -11v 4v -3v 26v -26v 17v -34v 36v -6v 16v -30h 1v 4v -1v 19v -33v 16v
 -21v 17v -16v 33v -18v 33v -7v 5h 1v -42v 25v -21v 14v -7v 15v -14v 17v -17v 15v -12v 7v -3v 11h 1v -31v 27v -15v 22v -11v 8v -11v 3v -6v 18v -13v 4v -19v 13h 1v 12v -2v 9v -46v 44v -21v 12v -30v 51v -23v 8v -7v 8v -5h 1v -8v 21v -20v 11v -6v 15v
 -17v 19v -29v 19v -9v 19v -32v 24v -26v 9v -1h 1v 19v -25v 22v -1v 9v -5v 5v -21v 4v -13v 26v -19v 32h 1v -17v 7v -11v 4v -26v 44v -33v 27v -27v 21v -7h 1v 4v -15v 11v -10v 25v -10v 3v -15v 23v -22v 24v -18v 12h 1v -35v 32v -13v 23v -30v 12v -15v
 37v -26v 25v -39v 33v -37h 1v 24v -9v 24v -7v 1v -9v 4v -3v 19v -25v 28v -21h 1v -20v 30v -23v 20v -16v 20v -20v 20v -23v 31v -17h 1v 24v -18v 11v -21v 15v -6v 14v -25v 11v -4v 11v -1v 8v -32v 9h 1v 34v -22v 24v -28v 2v -15v 13v -15v 22h 1v 5v -19v
 23v -15v 18v -26v 18v -9v 10v -23h 1v -2v 26v -32v 32v -13v 13v -6v 17v -27v 11v -4v 3v -14v 24h 1v -20v 19v -8v 20v -36v 17v -9v 16v -9v 5v -4h 1v 8v -19v 29v -15v 2v -6v 10v -8v 13v -30v 16h 1v 20v -16v 10v -35v 20v -11v 21v -12v 14h 1v -19v 16v
 -4v 1v -6v 23v -28v 7v -5v 26v -38v 43h 1v -33v 7v -1v 14v -29v 24v -19v 22v -11h 1v 26v -26v 29v -25v 7v -27v 24v -23v 18v -1v 2v -8v 21v -3h 1v -16v 13v -7v 13v -22v 31v -9v 5v -16h 1v 9v -16v 11v -7v 16v -13v 24v -22v 9v -7v 5h 1v 2v -4v 13v -19v
 7v -3v 2v -9v 10v -12v 19v -17h 1v 18v -5v 2v -12v 15v -29v 26v -6v 11v -26v 23v -4v 4h 1v -13v 16v -10v 8v -8v 8v -11v 19v -12v 12v -24v 11v -9v 14h 1v -16v 4v -2v 14v -15v 15v -8v 10v -11v 11v -14v 14h 1v -11v 17v -15v 4v -16v 12v -7v 14v -3v 2v
 -18v 21v -21v 25v -11v 16h 1v -15v 16v -26v 20v -9v 20v -26v 11v -2v 10v -8v 4h 1v 2v -16v 20v -15v 11v -11v 10v -4v 3v -7v 7v -7v 1v -1v 8h 1v 5v -20v 8v -3v 14v -7v 4v -19v 10v -2v 7v -2v 13h 1v -24v 16v -10v 10v -19v 20v -4v 10v -17v 2h 1v 4v -1v
 4v -7v 8v -16v 23v -15v 1v -9v 21v -16v 14v -2v 9v -15h 1v 15v -14v 9v -10v 15v -22v 16v -3v 4h 1v -20v 14v -13v 17v -11v 19v -22v 16v -13v 18h 1v -22v 22v -13v 11v -11v 10v -8v 1v -15v 12v -1v 8h 1v 3v -2v 5v -10v 3v -10v 22v -18v 7v -19v 20v -6v
 9v -15h 1v 15v -16v 18v -18v 13v -12v 12v -8h 1v 22v -27v 15v -17v 14v -8v 22v -22v 16v -20v 19h 1v -23v 22v -5v 3v -8v 10v -15v 16v -3v 7v -18h 1v -1v 16v -11v 11v -13v 11v -5v 6v -11v 8v -18v 15v -9v 14h 1v -14v 9v -12v 22v -25v 21v -6v 5v -11v 4v
 -11v 9v -1v 14h 1v -14v 14v -17v 14v -8v 5v -8v 7v -3v 14v -13h 1v -5v 11v -15v 18v -6v 7v -7v 2v -13v 19v -13v 13v -6h 1v 4v -6v 3v -4v 11v -14v 15v -15v 6v -2v 11v -12h 1v -14v 17v -3v 5v -8v 15v -18v 9v -10v 18v -8v 1v -4v 9h 1v -6v 12v -27v 20v
 -16v 9v -8v 20v -12v 3v -3v 10v -15h 1v 13v -9v 1v -3v 11v -16v 22v -12v 5v -18v 26v -9v 2v -1v 5h 1v -8v 3v -12v 13v -15v 21v -12v 2v -1v 4v -15v 16h 1v -5v 8v -23v 15v -1v 2v -4v 12v -10v 9v -16v 9h 1v 6v -15v 15v -14v 18v -11v 5v -16v 14h 1v 4v
 -4v 8v -10v 6v -17v 15v -4v 7v -8h 1v -1v 6v -13v 12v -8v 13v -13v 12v -9v 6v -1v 3v -8h 1v -5v 14v -8v 4v -11v 14v -8v 12v -14v 4v -8h 1v 16v -6v 2v -5v 4v -3v 15v -24v 17v -8v 13v -15v 9h 1v -7v 3v -3v 17v -18v 12v -13v 15v -14h 1v -3v 11v -7v 7v
 -4v 4v -3v 10v -7v 3v -14v 15v -3h 1v 2v -10v 2v -3v 8v -5v 6v -1v 7v -21v 21h 1v -23v 16v -4v 5v -4v 4v -4v 4v -4v 6v -10v 3h 1v 1v -8v 12v -2v 5v -9v 9v -5v 8v -12v 11v -10v 10v -15h 1v 16v -15v 9v -6v 11v -9v 10v -4v 5v -11v 9v -10h 1v 3v -2v 10v
 -4v 1v -7v 10v -4v 7v -10v 7v -11v 1h 1v 2v -2v 3v -5v 12v -11v 10v -9v 9v -3h 1v -8v 6v -1v 8v -9v 8v -8v 8v -12v 12v -8v 7v -14v 7h 1v 12v -11v 4v -4v 3v -6v 9v -6v 1v -2v 12h 1v -14v 10v -10v 10v -6v 9v -11v 7v -6h 1v 8v -12v 10v -10v 11v -1v 1v
 -7v 7v -8v 9v -5v 3v -10h 1v -1v 9v -1v 3v -2v 6v -14v 11v -4v 4v -8v 9v -7h 1v -2v 9v -11v 9v -7v 8v -15v 15v -3v 3v -8v 9v -12h 1v 12v -9v 5v -4v 3v -6v 13v -17v 13v -9v 14h 1v -11v 4v -5v 4v -6v 11v -5v 4v -6v 5h 1v -14v 19v -8v 3v -7v 11v -9v 5v
 -3v 5v -7v 7v -11h 1v 14v -8v 7v -7v 12v -14v 7v -4v 4v -5v 9h 1v -6v 2v -8v 11v -12v 7v -5v 6v -11v 8h 1v 8v -13v 5v -12v 15v -7v 8v -4v 3v -4h 1v 8v -14v 14v -8v 4v -3v 6v -3v 5v -8v 6v -2h 1v -1v 3v -7v 5v -4v 4v -2v 1v -4v 8v -3h 1v 2v -9v 13v
 -14v 8v -1v 3v -4v 5v -3v 3h 1v -10v 5v -5v 11v -19v 15v -7v 7v -1v 4h 1v -7v 7v -3v 3v -5v 1v -4v 3v -5v 6v -1v 2v -1v 3v -3v 4h 1v -8v 8v -8v 7v -9v 9v -7v 8v -8v 8v -3h 1v -5v 11v -4v 1v -4v 5v -11v 2h 1v 9v -9v 7v -4v 2v -4v 6v -4v 5v -5v 1v -8v
 12v -4h 1v -6v 11v -5v 5v -9v 9v -8v 6v -2h 1v 3v -4v 3v -4v 2v -2v 4v -2v 3v -7v 10v -8h 1v 6v -11v 9v -9v 10v -3v 4v -2v 1v -3v 2v -4v 4h 1v 1v -5v 4v -3v 4v -4v 5v -5v 5v -8v 11h 1v -5v 5v -5v 1v -3v 2v -2v 3v -4v 1v -2v 8v -7v 4v -5h 1v 2v -1v
 5v -5v 5v -8v 3v -3v 11v -9h 1v 5v -5v 5v -7v 3v -3v 8v -5v 5v -5v 8v -5h 1v 2v -2v 4v -10v 7v -4v 4v -3v 7v -8h 1v 7v -4v 2v -4v 4v -1v 4v -9v 6h 1v -8v 10v -4v 4v -6v 4v -6v 6v -2h 1v -4v 8v -4v 1v -5v 9v -8v 9v -8v 3v -1v 1h 1v -3v 4v -4v 8v -6v
 6v -9v 8v -9v 8v -6h 1v 3v -5v 8v -3v 1v -2v 1v -7v 10v -2v 2h 1v -4v 1v -1v 2v -5v 7v -7v 3v -6v 8v -2v 2h 1v -4v 2v -7v 13v -10v 8v -4v 2v -11v 10v -3v 3h 1v -4v 8v -9v 4v -2v 6v -7v 8v -8v 7h 1v -6v 4v -2v 4v -4v 4v -4v 4v -3v 1h 1v 3v -3v 2v -6v
 6v -2v 3v -4v 3v -8h 1v 6v -2v 2v -1v 3v -6v 3v -1v 5v -5v 4v -6v 2h 1v -3v 8v -3v 3v -4v 3v -6v 8v -8v 4v -1v 1h 1v -6v 8v -3v 4v -7v 8v -4v 3v -5v 5v -9v 9h 1v -8v 8v -1v 1v -7v 7v -4v 1v -1v 3v -4v 5h 1v -3v 2v -8v 8v -2v 3v -7v 6v -10v 8h 1v 2v
 -4v 1v -1v 5v -3v 2v -7v 8h 1v -5v 6v -5v 4v -1v 2v -10v 8v -4v 5v -3v 3h 1v -5v 6v -6v 5v -4v 4v -5v 5v -5v 6v -1h 1v -4v 3v -4v 5v -1v 1v -5v 4v -2v 2v -6v 7h 1v -3v 3v -1v 1v -5v 5v -7v 6v -3v 3v -4h 1v 4v -6v 4v -2v 5v -1v 1v -1v 2v -4v 4h 1v
 -4v 4v -2v 1v -4v 3v -3v 4v -3v 4v -2h 1v -6v 7v -7v 6v -2v 3v -4v 3v -4v 6v -9h 1v 8v -5v 4v -3v 4v -3v 4v -2h 1v 1v -1v 1v -1v 1v -3v 3v -1v 1v -3h 1v -1v 4v -5v 5v -1v 2v -1v 1v -5v 5v -4v 3h 1v -3v 4v -2v 2v -2v 1v -1v 1v -3v 2v -4h 1v 6v -10v
 9v -3v 3v -3v 3v -1v 2h 1v -4v 2v -2v 3v -3v 2v -4v 4h 1v 1v -5v 5v -1v 2v -2v 1v -3v 3v -1v 2v -2h 1v 2v -4v 4v -4v 4v -5v 1v -4v 8v -5v 4v -1h 1v -3v 5v -6v 4v -3v 4v -1v 1v -1h 1v -4v 6v -2v 1v -1v 1v -4v 3v -2v 4v -1v 1v -1v 1h 1v -2v 2v -2v 2v
 -4v 4v -4v 4v -2v 1v -1h 1v 1v -3v 2v -2v 3v -1v 2h 1v -4v 2v -2v 4v -4v 4v -2v 2v -2v 2v -4h 1v 4v -1v 1v -8v 8v -4v 3h 1v -1v 1v -1v 1v -3v 4v -1v 1v -1h 1v -1v 2v -2v 2v -6v 6v -1v 1h 1v -2v 2v -1v 1v -2v 2v -1v 1v -2v 2v -1h 1v 1v -1v 1v -2v 2v
 -1v 1v -4v 3v -4h 1v 5v -4v 4v -1v 1v -5v 4h 1v 1v -1v 1v -2v 2v -4v 4v -4v 3v -1v 2h 1v -2v 1v -3v 4v -1v 1v -5v 5v -1v 1v -1h 1v 1v -2v 2v -4v 3v -3v 2v -2v 3v -1v 2h 1v -2v 2v -5v 5v -2v 2v -2v 2v -2v 2v -1v 1v -1h 1v 1v -1v 1v -1v 1v -2v 2v -2v
 2v -4v 4h 1v -2v 2v -4v 4v -2v 1v -5v 5v -4v 4v -3h 1v 2v -2v 4v -4v 4v -4v 4v -1v 1h 1v -4v 4v -2v 1v -1v 2v -4h 1v 3v -1v 1v -1v 2v -2v 2v -4v 3v -1v 1v -1v 1h 1v -1v 1v -1v 1v -1v 1v -3v 4v -1v 1h 1v -2v 1v -1v 2v -2v 2v -4v 3v -3v 4v -2v 1v -1v
 2h 1v -5v 4v -1v 1v -1v 2v -2v 2v -2v 2v -2v 1v -3h 1v 4v -1v 1v -4v 4v -2v 2v -1h 1v 1v -1v 1v -2v 2v -1v 1v -2v 2v -2v 2h 1v -2v 1v -3v 4v -1v 1v -4v 3v -1v 2v -1h 1v 1v -2v 2v -2v 2v -5v 5v -1v 1v -4v 3h 1v -1v 2v -1v 1v -4v 4v -1v 1v -1v 1v -1v
 1h 1v -2v 1v -5v 6v -2v 2v -2v 2h 1v -2v 2v -1v 1v -2v 2h 1v -2v 2v -2v 2v -2v 2v -1v 1v -1v 1h 1v -1v 1v -1v 1v -1v 1v -1v 1v -1v 1v -1h 1v 1v -2v 2v -1v 1v -2v 2v -1v 1h 1v -2v 2v -2v 2v -2v 2v -4v 4v -1v 1v -1v 1h 1v -2v 1v -1v 2v -1v 1v -1v 1v
 -1v 1h 1v -2v 2v -2v 2v -1v 1v -2v 2v -2h 1v 2v -1v 1v -1v 1v -2v 2v -1h 1v 1v -2v 2v -1v 1v -1v 1v -5v 5v -1h 1v 1v -1v 1v -1v 1v -2v 2v -2v 2v -1v 1v -2h 1v 2v -1v 1v -1v 1v -1v 1v -2v 2v -1h 1v -1v 2v -2v 2v -2v 2v -1v 1v -2v 2v -1h 1v 1v -1v 1v
 -1v 1v -1v 1v -1h 1v 1v -2v 2v -1v 1h 1v -2v 2v -1v 1v -1v 1v -1v 1h 1v -1v 1v -1v 1v -1v 1v -2v 2v -1v 1v -1h 1v 1v -1v 1v -2v 2v -1v 1v -2v 2v -1h 1v 1v -1v 1v -2v 2v -1v 1v -1v 1v -1v 1h 1v -1v 1v -1v 1v -2v 2v -2v 2h 1v -1v 1v -1v 1v -1v 1v -1h
 1v 1v -2v 2v -1v 1v -1v 1v -2v 2h 1v -1v 1v -2v 2v -2v 2v -1v 1v -1v 1h 1v -2v 2v -1v 1v -1v 1v -1v 1v -2v 2h 1v -1v 1v -1v 1v -1v 1v -2v 2v -2h 1v 2v -1v 1v -1v 1v -1v 1v -1h 1v -1v 2v -1v 1v -2v 2v -1v 1h 1v -1v 1v -1v 1v -1h 1v 1v -2v 2v -1v 1v
 -2v 2h 1v -1v 1v -1v 1v -1v 1v -1v 1v -1h 1v 1v -1v 1v -1v 1v -1v 1v -1v 1v -2v 2v -1v 1h 1v -1v 1v -1v 1h 1v -1v 1v -1v 1v -2v 2v -1v 1v -1v 1h 1v -1v 1v -4v 4v -1v 1v -1v 1h 1v -2v 2v -1v 1v -2v 2v -1v 1v -1h 1v 1v -1v 1v -1v 1v -1v 1v -1v 1v -1v
 1h 1v -1v 1v -1v 1v -1v 1v -1v 1v -2v 2h 1v -1v 1v -1v 1v -1v 1v -4v 4h 1v -1v 1v -1v 1v -1v 1v -1v 1v -1v 1h 1v -1v 1v -1v 1v -1v 1v -1v 1v -1v 1h 1v -2v 2v -1v 1h 1v -1v 1h 1v -1v 1v -1v 1v -1v 1v -1h 1v 1v -1v 1v -1v 1v -1v 1h 1v -1v 1v -1v 1v
 -1v 1v -1v 1h 1v -1v 1v -1v 1v -2v 2v -1v 1v -2v 1h 1v 1v -1v 1v -1v 1h 1v -1v 1v -1h 1v 1v -1v 1v -1v 1h 1v -2v 2v -1v 1v -1v 1h 1v -1v 1v -1v 1h 1v -1v 1v -1v 1v -1v 1h 1v -1v 1v -1h 1v 1v -1v 1v -1v 1h 1v -1v 1v -1v 1v -1v 1v -1h 1v 1v -1v 1v -2v
 2v -1v 1h 1v -1v 1v -1v 1v -1h 1v 1v -1v 1v -1v 1h 1v -1v 1h 1v -1v 1v -2v 2h 1v -1v 1h 1v -1v 1h 1v -2v 2v -1v 1h 1v -1v 1v -1v 1v -1v 1h 2v -2v 2v -1v 1v -1v 1h 1v -1v 1h 1v -1v 1v -1v 1v -2v 2v -1v 1h 1v -1v 1v -1v 1h 1v -1v 1v -1v 1v -1v 1h 1v
 -1v 1h 1v -1v 1v -1v 1h 1v -1h 1v 1v -1v 1h 1v -1v 1h 1v -1v 1h 1v -1v 1v -1v 1h 3v -1v 1h 3v -1v 1h 2v -1v 1v -1v 1v -1v 1v -1v 1h 2v -1v 1v -1v 1h 2v -1v 1h 3v -1v 1v -1v 1v -1v 1h 1v -1v 1h 2v -1v 1h 4v -1v 1h 4v -1v 1h 6v -1v 1v -1v 1h 1v -1v 1h
 11v -1v 1h 1v -1v 1h 4v -1v 1v -1v 1h 6v -1v 1h 1v -1v 1h 2v -1v 1h 4v -1v 1h 1v -1v 1h 4v -1v 1h 9v -1h 1v 1v -1v 1h 3v -1v 1h 7v -1v 1v -1v 1h 9v -1v 1h 7v -1v 1h 8v -1v 1h 31v -1v 1h 54" fill="none" stroke="#000099"/>
<path d="M59,97l 4, 32l 5, 28l 5, 24l 4, 22l 5, 18l 4, 16l 5, 14l 4, 13l 5, 10l 4, 10l 5, 8l 4, 7l 5, 6l 4, 5l 5, 5l 5, 4l 4, 3l 5, 4l 4, 2l 5, 3l 4, 2l 5, 1l 4, 2l 5, 1l 4, 2l 5, 1h 4l 5, 1l 4, 1h 5l 5, 1h 4l 5, 1h 9l 4, 1h 18l 5, 1h 36" fill="none"
 stroke="#ff0000" stroke-width="2"/>
<path d="M281,346h 222" fill="none" stroke="#ff0000" stroke-width="2"/>
<path d="M503,346h 5" fill="none" stroke="#ff0000" stroke-width="2"/>
<rect x="283" y="38" width="227" height="154" fill="white"/>
<path d="M283,192h 227" fill="none" stroke="black"/>
<path d="M510,192v -154" fill="none" stroke="black"/>
<path d="M510,38h -227" fill="none" stroke="black"/>
<path d="M283,38v 154" fill="none" stroke="black"/>
<text x="294" y="57" fill="black" font-size="18" font-family="Helvetica">
Entries 
</text>
<text x="433" y="57" fill="black" font-size="18" font-family="Helvetica">
 113731
</text>
<text x="294" y="82" fill="black" font-size="18" font-family="Helvetica">
Mean  
</text>
<text x="441" y="84" fill="black" font-size="18" font-family="Helvetica">
  3.456
</text>
<text x="427" y="84" fill="black" font-size="18" font-family="Times">
&#0177;
</text>
<text x="366" y="84" fill="black" font-size="18" font-family="Helvetica">
   1165 
</text>
<text x="294" y="108" fill="black" font-size="18" font-family="Helvetica">
RMS   
</text>
<text x="441" y="110" fill="black" font-size="18" font-family="Helvetica">
  2.443
</text>
<text x="427" y="110" fill="black" font-size="18" font-family="Times">
&#0177;
</text>
<text x="366" y="110" fill="black" font-size="18" font-family="Helvetica">
   1165 
</text>
<text x="310" y="136" fill="black" font-size="18" font-family="Helvetica">
 / ndf 
</text>
<text x="303" y="121" fill="black" font-size="12" font-family="Helvetica">
2
</text>
<text x="294" y="136" fill="black" font-size="18" font-family="Times">
&#0967;
</text>
<text x="389" y="133" fill="black" font-size="18" font-family="Helvetica">
  3980 / 7998
</text>
<text x="294" y="159" fill="black" font-size="18" font-family="Helvetica">
N        
</text>
<text x="468" y="161" fill="black" font-size="18" font-family="Helvetica">
 0.8
</text>
<text x="453" y="161" fill="black" font-size="18" font-family="Times">
&#0177;
</text>
<text x="396" y="161" fill="black" font-size="18" font-family="Helvetica">
 196.5 
</text>
<text x="301" y="186" fill="black" font-size="18" font-family="Helvetica">
     
</text>
<text x="294" y="186" fill="black" font-size="18" font-family="Times">
&#0964;
</text>
<text x="468" y="186" fill="black" font-size="18" font-family="Helvetica">
 3.4
</text>
<text x="453" y="186" fill="black" font-size="18" font-family="Times">
&#0177;
</text>
<text x="398" y="186" fill="black" font-size="18" font-family="Helvetica">
  1161 
</text>
<path d="M57,346h 453" fill="none" stroke="black"/>
<text x="419" y="372" fill="black" font-size="12" font-family="Helvetica">
Decay time (ns)
</text>
<path d="M113,337v 9" fill="none" stroke="black"/>
<path d="M127,342v 4" fill="none" stroke="black"/>
<path d="M142,342v 4" fill="none" stroke="black"/>
<path d="M156,342v 4" fill="none" stroke="black"/>
<path d="M170,337v 9" fill="none" stroke="black"/>
<path d="M184,342v 4" fill="none" stroke="black"/>
<path d="M198,342v 4" fill="none" stroke="black"/>
<path d="M212,342v 4" fill="none" stroke="black"/>
<path d="M227,337v 9" fill="none" stroke="black"/>
<path d="M241,342v 4" fill="none" stroke="black"/>
<path d="M255,342v 4" fill="none" stroke="black"/>
<path d="M269,342v 4" fill="none" stroke="black"/>
<path d="M283,337v 9" fill="none" stroke="black"/>
<path d="M298,342v 4" fill="none" stroke="black"/>
<path d="M312,342v 4" fill="none" stroke="black"/>
<path d="M326,342v 4" fill="none" stroke="black"/>
<path d="M340,337v 9" fill="none" stroke="black"/>
<path d="M354,342v 4" fill="none" stroke="black"/>
<path d="M368,342v 4" fill="none" stroke="black"/>
<path d="M383,342v 4" fill="none" stroke="black"/>
<path d="M397,337v 9" fill="none" stroke="black"/>
<path d="M411,342v 4" fill="none" stroke="black"/>
<path d="M425,342v 4" fill="none" stroke="black"/>
<path d="M439,342v 4" fill="none" stroke="black"/>
<path d="M453,337v 9" fill="none" stroke="black"/>
<path d="M468,342v 4" fill="none" stroke="black"/>
<path d="M482,342v 4" fill="none" stroke="black"/>
<path d="M496,342v 4" fill="none" stroke="black"/>
<path d="M510,337v 9" fill="none" stroke="black"/>
<path d="M113,337v 9" fill="none" stroke="black"/>
<path d="M99,342v 4" fill="none" stroke="black"/>
<path d="M85,342v 4" fill="none" stroke="black"/>
<path d="M71,342v 4" fill="none" stroke="black"/>
<path d="M510,337v 9" fill="none" stroke="black"/>
<text x="99" y="359" fill="black" font-size="12" font-family="Helvetica">
2000
</text>
<text x="155" y="359" fill="black" font-size="12" font-family="Helvetica">
4000
</text>
<text x="212" y="359" fill="black" font-size="12" font-family="Helvetica">
6000
</text>
<text x="268" y="359" fill="black" font-size="12" font-family="Helvetica">
8000
</text>
<text x="322" y="359" fill="black" font-size="12" font-family="Helvetica">
10000
</text>
<text x="379" y="359" fill="black" font-size="12" font-family="Helvetica">
12000
</text>
<text x="435" y="359" fill="black" font-size="12" font-family="Helvetica">
14000
</text>
<text x="492" y="359" fill="black" font-size="12" font-family="Helvetica">
16000
</text>
<path d="M57,346v -308" fill="none" stroke="black"/>
<g transform="rotate(-90,29,72)">
<text x="29" y="72" fill="black" font-size="12" font-family="Helvetica">
Count
</text>
</g>
<path d="M70,346h -13" fill="none" stroke="black"/>
<path d="M63,340h -6" fill="none" stroke="black"/>
<path d="M63,333h -6" fill="none" stroke="black"/>
<path d="M63,326h -6" fill="none" stroke="black"/>
<path d="M70,319h -13" fill="none" stroke="black"/>
<path d="M63,312h -6" fill="none" stroke="black"/>
<path d="M63,306h -6" fill="none" stroke="black"/>
<path d="M63,299h -6" fill="none" stroke="black"/>
<path d="M70,292h -13" fill="none" stroke="black"/>
<path d="M63,285h -6" fill="none" stroke="black"/>
<path d="M63,278h -6" fill="none" stroke="black"/>
<path d="M63,271h -6" fill="none" stroke="black"/>
<path d="M70,265h -13" fill="none" stroke="black"/>
<path d="M63,258h -6" fill="none" stroke="black"/>
<path d="M63,251h -6" fill="none" stroke="black"/>
<path d="M63,244h -6" fill="none" stroke="black"/>
<path d="M70,237h -13" fill="none" stroke="black"/>
<path d="M63,230h -6" fill="none" stroke="black"/>
<path d="M63,224h -6" fill="none" stroke="black"/>
<path d="M63,217h -6" fill="none" stroke="black"/>
<path d="M70,210h -13" fill="none" stroke="black"/>
<path d="M63,203h -6" fill="none" stroke="black"/>
<path d="M63,196h -6" fill="none" stroke="black"/>
<path d="M63,189h -6" fill="none" stroke="black"/>
<path d="M70,183h -13" fill="none" stroke="black"/>
<path d="M63,176h -6" fill="none" stroke="black"/>
<path d="M63,169h -6" fill="none" stroke="black"/>
<path d="M63,162h -6" fill="none" stroke="black"/>
<path d="M70,155h -13" fill="none" stroke="black"/>
<path d="M63,148h -6" fill="none" stroke="black"/>
<path d="M63,142h -6" fill="none" stroke="black"/>
<path d="M63,135h -6" fill="none" stroke="black"/>
<path d="M70,128h -13" fill="none" stroke="black"/>
<path d="M63,121h -6" fill="none" stroke="black"/>
<path d="M63,114h -6" fill="none" stroke="black"/>
<path d="M63,108h -6" fill="none" stroke="black"/>
<path d="M70,101h -13" fill="none" stroke="black"/>
<path d="M63,94h -6" fill="none" stroke="black"/>
<path d="M63,87h -6" fill="none" stroke="black"/>
<path d="M63,80h -6" fill="none" stroke="black"/>
<path d="M70,73h -13" fill="none" stroke="black"/>
<path d="M63,67h -6" fill="none" stroke="black"/>
<path d="M63,60h -6" fill="none" stroke="black"/>
<path d="M63,53h -6" fill="none" stroke="black"/>
<path d="M70,46h -13" fill="none" stroke="black"/>
<path d="M70,46h -13" fill="none" stroke="black"/>
<path d="M63,39h -6" fill="none" stroke="black"/>
<text x="47" y="350" fill="black" font-size="12" font-family="Helvetica">
0
</text>
<text x="40" y="323" fill="black" font-size="12" font-family="Helvetica">
20
</text>
<text x="40" y="295" fill="black" font-size="12" font-family="Helvetica">
40
</text>
<text x="40" y="269" fill="black" font-size="12" font-family="Helvetica">
60
</text>
<text x="40" y="241" fill="black" font-size="12" font-family="Helvetica">
80
</text>
<text x="33" y="214" fill="black" font-size="12" font-family="Helvetica">
100
</text>
<text x="33" y="186" fill="black" font-size="12" font-family="Helvetica">
120
</text>
<text x="33" y="159" fill="black" font-size="12" font-family="Helvetica">
140
</text>
<text x="33" y="132" fill="black" font-size="12" font-family="Helvetica">
160
</text>
<text x="33" y="104" fill="black" font-size="12" font-family="Helvetica">
180
</text>
<text x="33" y="77" fill="black" font-size="12" font-family="Helvetica">
200
</text>
<text x="33" y="49" fill="black" font-size="12" font-family="Helvetica">
220
</text>
<rect x="283" y="38" width="227" height="154" fill="white"/>
<path d="M283,192h 227" fill="none" stroke="black"/>
<path d="M510,192v -154" fill="none" stroke="black"/>
<path d="M510,38h -227" fill="none" stroke="black"/>
<path d="M283,38v 154" fill="none" stroke="black"/>
<text x="294" y="57" fill="black" font-size="18" font-family="Helvetica">
Entries 
</text>
<text x="433" y="57" fill="black" font-size="18" font-family="Helvetica">
 113731
</text>
<text x="294" y="82" fill="black" font-size="18" font-family="Helvetica">
Mean  
</text>
<text x="441" y="84" fill="black" font-size="18" font-family="Helvetica">
  3.456
</text>
<text x="427" y="84" fill="black" font-size="18" font-family="Times">
&#0177;
</text>
<text x="366" y="84" fill="black" font-size="18" font-family="Helvetica">
   1165 
</text>
<text x="294" y="108" fill="black" font-size="18" font-family="Helvetica">
RMS   
</text>
<text x="441" y="110" fill="black" font-size="18" font-family="Helvetica">
  2.443
</text>
<text x="427" y="110" fill="black" font-size="18" font-family="Times">
&#0177;
</text>
<text x="366" y="110" fill="black" font-size="18" font-family="Helvetica">
   1165 
</text>
<text x="310" y="136" fill="black" font-size="18" font-family="Helvetica">
 / ndf 
</text>
<text x="303" y="121" fill="black" font-size="12" font-family="Helvetica">
2
</text>
<text x="294" y="136" fill="black" font-size="18" font-family="Times">
&#0967;
</text>
<text x="389" y="133" fill="black" font-size="18" font-family="Helvetica">
  3980 / 7998
</text>
<text x="294" y="159" fill="black" font-size="18" font-family="Helvetica">
N        
</text>
<text x="468" y="161" fill="black" font-size="18" font-family="Helvetica">
 0.8
</text>
<text x="453" y="161" fill="black" font-size="18" font-family="Times">
&#0177;
</text>
<text x="396" y="161" fill="black" font-size="18" font-family="Helvetica">
 196.5 
</text>
<text x="301" y="186" fill="black" font-size="18" font-family="Helvetica">
     
</text>
<text x="294" y="186" fill="black" font-size="18" font-family="Times">
&#0964;
</text>
<text x="468" y="186" fill="black" font-size="18" font-family="Helvetica">
 3.4
</text>
<text x="453" y="186" fill="black" font-size="18" font-family="Times">
&#0177;
</text>
<text x="398" y="186" fill="black" font-size="18" font-family="Helvetica">
  1161 
</text>
<text x="97" y="19" fill="black" font-size="16" font-family="Helvetica">
muon lifetime in 1mm Cu (un-modified Geant4)
</text></svg>
