<?xml version="1.0" standalone="no"?>
<svg width="567" height="328" viewBox="0 0 567 328" xmlns="http://www.w3.org/2000/svg">
<title>
1D_charged_particle_flux.svg
</title>
<desc>
Creator: ROOT Version 5.34/18
CreationDate: Sun Aug 10 03:59:33 2014</desc>
<defs>
</defs>
<rect x="0" y="0" width="567" height="328" fill="white"/>
<rect x="57" y="33" width="453" height="262" fill="white"/>
<rect x="57" y="33" width="453" height="262" fill="none" stroke="black"/>
<rect x="57" y="33" width="453" height="262" fill="white"/>
<rect x="57" y="33" width="453" height="262" fill="none" stroke="black"/>
<path d="M57,295h 453" fill="none" stroke="black"/>
<text x="400" y="317" fill="black" font-size="11" font-family="Helvetica">
Vertical position (mm)
</text>
<path d="M112,287v 8" fill="none" stroke="black"/>
<path d="M124,291v 4" fill="none" stroke="black"/>
<path d="M135,291v 4" fill="none" stroke="black"/>
<path d="M146,291v 4" fill="none" stroke="black"/>
<path d="M158,291v 4" fill="none" stroke="black"/>
<path d="M169,287v 8" fill="none" stroke="black"/>
<path d="M181,291v 4" fill="none" stroke="black"/>
<path d="M192,291v 4" fill="none" stroke="black"/>
<path d="M204,291v 4" fill="none" stroke="black"/>
<path d="M215,291v 4" fill="none" stroke="black"/>
<path d="M226,287v 8" fill="none" stroke="black"/>
<path d="M238,291v 4" fill="none" stroke="black"/>
<path d="M249,291v 4" fill="none" stroke="black"/>
<path d="M261,291v 4" fill="none" stroke="black"/>
<path d="M272,291v 4" fill="none" stroke="black"/>
<path d="M283,287v 8" fill="none" stroke="black"/>
<path d="M295,291v 4" fill="none" stroke="black"/>
<path d="M306,291v 4" fill="none" stroke="black"/>
<path d="M318,291v 4" fill="none" stroke="black"/>
<path d="M329,291v 4" fill="none" stroke="black"/>
<path d="M341,287v 8" fill="none" stroke="black"/>
<path d="M352,291v 4" fill="none" stroke="black"/>
<path d="M363,291v 4" fill="none" stroke="black"/>
<path d="M375,291v 4" fill="none" stroke="black"/>
<path d="M386,291v 4" fill="none" stroke="black"/>
<path d="M398,287v 8" fill="none" stroke="black"/>
<path d="M409,291v 4" fill="none" stroke="black"/>
<path d="M420,291v 4" fill="none" stroke="black"/>
<path d="M432,291v 4" fill="none" stroke="black"/>
<path d="M443,291v 4" fill="none" stroke="black"/>
<path d="M455,287v 8" fill="none" stroke="black"/>
<path d="M112,287v 8" fill="none" stroke="black"/>
<path d="M101,291v 4" fill="none" stroke="black"/>
<path d="M89,291v 4" fill="none" stroke="black"/>
<path d="M78,291v 4" fill="none" stroke="black"/>
<path d="M67,291v 4" fill="none" stroke="black"/>
<path d="M455,287v 8" fill="none" stroke="black"/>
<path d="M466,291v 4" fill="none" stroke="black"/>
<path d="M478,291v 4" fill="none" stroke="black"/>
<path d="M489,291v 4" fill="none" stroke="black"/>
<path d="M500,291v 4" fill="none" stroke="black"/>
<text x="101" y="306" fill="black" font-size="11" font-family="Helvetica">
-150
</text>
<text x="158" y="306" fill="black" font-size="11" font-family="Helvetica">
-100
</text>
<text x="218" y="306" fill="black" font-size="11" font-family="Helvetica">
-50
</text>
<text x="280" y="306" fill="black" font-size="11" font-family="Helvetica">
0
</text>
<text x="334" y="306" fill="black" font-size="11" font-family="Helvetica">
50
</text>
<text x="388" y="306" fill="black" font-size="11" font-family="Helvetica">
100
</text>
<text x="445" y="306" fill="black" font-size="11" font-family="Helvetica">
150
</text>
<path d="M57,295v -262" fill="none" stroke="black"/>
<g transform="rotate(-90,29,36)">
<text x="29" y="36" fill="black" font-size="11" font-family="Helvetica">
)
</text>
</g>
<g transform="rotate(-90,22,42)">
<text x="22" y="42" fill="black" font-size="7" font-family="Helvetica">
-1
</text>
</g>
<g transform="rotate(-90,29,170)">
<text x="29" y="170" fill="black" font-size="11" font-family="Helvetica">
Charged particle rate (nA
</text>
</g>
<path d="M70,295h -13" fill="none" stroke="black"/>
<path d="M63,290h -6" fill="none" stroke="black"/>
<path d="M63,285h -6" fill="none" stroke="black"/>
<path d="M63,279h -6" fill="none" stroke="black"/>
<path d="M63,274h -6" fill="none" stroke="black"/>
<path d="M70,269h -13" fill="none" stroke="black"/>
<path d="M63,264h -6" fill="none" stroke="black"/>
<path d="M63,258h -6" fill="none" stroke="black"/>
<path d="M63,253h -6" fill="none" stroke="black"/>
<path d="M63,248h -6" fill="none" stroke="black"/>
<path d="M70,243h -13" fill="none" stroke="black"/>
<path d="M63,237h -6" fill="none" stroke="black"/>
<path d="M63,232h -6" fill="none" stroke="black"/>
<path d="M63,227h -6" fill="none" stroke="black"/>
<path d="M63,222h -6" fill="none" stroke="black"/>
<path d="M70,216h -13" fill="none" stroke="black"/>
<path d="M63,211h -6" fill="none" stroke="black"/>
<path d="M63,206h -6" fill="none" stroke="black"/>
<path d="M63,201h -6" fill="none" stroke="black"/>
<path d="M63,195h -6" fill="none" stroke="black"/>
<path d="M70,190h -13" fill="none" stroke="black"/>
<path d="M63,185h -6" fill="none" stroke="black"/>
<path d="M63,180h -6" fill="none" stroke="black"/>
<path d="M63,174h -6" fill="none" stroke="black"/>
<path d="M63,169h -6" fill="none" stroke="black"/>
<path d="M70,164h -13" fill="none" stroke="black"/>
<path d="M63,159h -6" fill="none" stroke="black"/>
<path d="M63,153h -6" fill="none" stroke="black"/>
<path d="M63,148h -6" fill="none" stroke="black"/>
<path d="M63,143h -6" fill="none" stroke="black"/>
<path d="M70,138h -13" fill="none" stroke="black"/>
<path d="M63,132h -6" fill="none" stroke="black"/>
<path d="M63,127h -6" fill="none" stroke="black"/>
<path d="M63,122h -6" fill="none" stroke="black"/>
<path d="M63,117h -6" fill="none" stroke="black"/>
<path d="M70,111h -13" fill="none" stroke="black"/>
<path d="M63,106h -6" fill="none" stroke="black"/>
<path d="M63,101h -6" fill="none" stroke="black"/>
<path d="M63,96h -6" fill="none" stroke="black"/>
<path d="M63,90h -6" fill="none" stroke="black"/>
<path d="M70,85h -13" fill="none" stroke="black"/>
<path d="M63,80h -6" fill="none" stroke="black"/>
<path d="M63,75h -6" fill="none" stroke="black"/>
<path d="M63,69h -6" fill="none" stroke="black"/>
<path d="M63,64h -6" fill="none" stroke="black"/>
<path d="M70,59h -13" fill="none" stroke="black"/>
<path d="M63,54h -6" fill="none" stroke="black"/>
<path d="M63,48h -6" fill="none" stroke="black"/>
<path d="M63,43h -6" fill="none" stroke="black"/>
<path d="M63,38h -6" fill="none" stroke="black"/>
<path d="M70,33h -13" fill="none" stroke="black"/>
<text x="48" y="299" fill="black" font-size="11" font-family="Helvetica">
0
</text>
<text x="41" y="272" fill="black" font-size="11" font-family="Helvetica">
10
</text>
<text x="41" y="246" fill="black" font-size="11" font-family="Helvetica">
20
</text>
<text x="41" y="220" fill="black" font-size="11" font-family="Helvetica">
30
</text>
<text x="41" y="193" fill="black" font-size="11" font-family="Helvetica">
40
</text>
<text x="41" y="167" fill="black" font-size="11" font-family="Helvetica">
50
</text>
<text x="41" y="141" fill="black" font-size="11" font-family="Helvetica">
60
</text>
<text x="41" y="115" fill="black" font-size="11" font-family="Helvetica">
70
</text>
<text x="41" y="88" fill="black" font-size="11" font-family="Helvetica">
80
</text>
<text x="41" y="62" fill="black" font-size="11" font-family="Helvetica">
90
</text>
<text x="35" y="36" fill="black" font-size="11" font-family="Helvetica">
100
</text>
<text x="76" y="22" fill="black" font-size="7" font-family="Helvetica">
3
</text>
<text x="64" y="31" fill="black" font-size="11" font-family="Helvetica">
10
</text>
<text x="57" y="31" fill="black" font-size="11" font-family="Times">
&#0215;
</text>
<g stroke="black" stroke-width="1" fill="none">
<line x1="282" y1="106" x2="283" y2="106"/>
<line x1="225" y1="173" x2="226" y2="173"/>
<line x1="112" y1="254" x2="113" y2="254"/>
<line x1="111" y1="248" x2="112" y2="248"/>
<line x1="340" y1="55" x2="341" y2="55"/>
<line x1="339" y1="47" x2="340" y2="47"/>
<line x1="454" y1="146" x2="455" y2="146"/>
<line x1="453" y1="137" x2="454" y2="137"/>
<line x1="283" y1="106" x2="284" y2="106"/>
</g>
<path d="M283,106h -17" fill="none" stroke="#0000ff"/>
<path d="M266,106v -1" fill="none" stroke="#0000ff"/>
<path d="M283,106h 17" fill="none" stroke="#0000ff"/>
<path d="M300,106v -1" fill="none" stroke="#0000ff"/>
<path d="M283,106v -9" fill="none" stroke="#0000ff"/>
<path d="M282,97h 2" fill="none" stroke="#0000ff"/>
<path d="M283,106v 8" fill="none" stroke="#0000ff"/>
<path d="M282,114h 2" fill="none" stroke="#0000ff"/>
<path d="M226,173h -17" fill="none" stroke="#0000ff"/>
<path d="M209,174v -2" fill="none" stroke="#0000ff"/>
<path d="M226,173h 17" fill="none" stroke="#0000ff"/>
<path d="M243,174v -2" fill="none" stroke="#0000ff"/>
<path d="M226,173v -6" fill="none" stroke="#0000ff"/>
<path d="M226,167h 1" fill="none" stroke="#0000ff"/>
<path d="M226,173v 5" fill="none" stroke="#0000ff"/>
<path d="M226,178h 1" fill="none" stroke="#0000ff"/>
<path d="M113,254h -17" fill="none" stroke="#0000ff"/>
<path d="M96,255v -2" fill="none" stroke="#0000ff"/>
<path d="M113,254h 17" fill="none" stroke="#0000ff"/>
<path d="M130,255v -2" fill="none" stroke="#0000ff"/>
<path d="M113,254v -2" fill="none" stroke="#0000ff"/>
<path d="M112,252h 2" fill="none" stroke="#0000ff"/>
<path d="M113,254v 2" fill="none" stroke="#0000ff"/>
<path d="M112,256h 2" fill="none" stroke="#0000ff"/>
<path d="M112,248h -18" fill="none" stroke="#0000ff"/>
<path d="M94,249v -1" fill="none" stroke="#0000ff"/>
<path d="M112,248h 17" fill="none" stroke="#0000ff"/>
<path d="M129,249v -1" fill="none" stroke="#0000ff"/>
<path d="M112,248v -2" fill="none" stroke="#0000ff"/>
<path d="M111,246h 1" fill="none" stroke="#0000ff"/>
<path d="M112,248v 3" fill="none" stroke="#0000ff"/>
<path d="M111,251h 1" fill="none" stroke="#0000ff"/>
<path d="M341,55h -17" fill="none" stroke="#0000ff"/>
<path d="M324,56v -1" fill="none" stroke="#0000ff"/>
<path d="M341,55h 17" fill="none" stroke="#0000ff"/>
<path d="M358,56v -1" fill="none" stroke="#0000ff"/>
<path d="M341,55v -10" fill="none" stroke="#0000ff"/>
<path d="M340,45h 2" fill="none" stroke="#0000ff"/>
<path d="M341,55v 11" fill="none" stroke="#0000ff"/>
<path d="M340,66h 2" fill="none" stroke="#0000ff"/>
<path d="M340,47h -17" fill="none" stroke="#0000ff"/>
<path d="M323,48v -1" fill="none" stroke="#0000ff"/>
<path d="M340,47h 17" fill="none" stroke="#0000ff"/>
<path d="M357,48v -1" fill="none" stroke="#0000ff"/>
<path d="M340,47v -12" fill="none" stroke="#0000ff"/>
<path d="M339,35h 2" fill="none" stroke="#0000ff"/>
<path d="M340,47v 13" fill="none" stroke="#0000ff"/>
<path d="M339,60h 2" fill="none" stroke="#0000ff"/>
<path d="M455,146h -17" fill="none" stroke="#0000ff"/>
<path d="M438,147v -2" fill="none" stroke="#0000ff"/>
<path d="M455,146h 17" fill="none" stroke="#0000ff"/>
<path d="M472,147v -2" fill="none" stroke="#0000ff"/>
<path d="M455,146v -7" fill="none" stroke="#0000ff"/>
<path d="M455,139h 1" fill="none" stroke="#0000ff"/>
<path d="M455,146v 6" fill="none" stroke="#0000ff"/>
<path d="M455,152h 1" fill="none" stroke="#0000ff"/>
<path d="M454,137h -17" fill="none" stroke="#0000ff"/>
<path d="M437,138v -2" fill="none" stroke="#0000ff"/>
<path d="M454,137h 17" fill="none" stroke="#0000ff"/>
<path d="M471,138v -2" fill="none" stroke="#0000ff"/>
<path d="M454,137v -6" fill="none" stroke="#0000ff"/>
<path d="M453,131h 2" fill="none" stroke="#0000ff"/>
<path d="M454,137v 7" fill="none" stroke="#0000ff"/>
<path d="M453,144h 2" fill="none" stroke="#0000ff"/>
<path d="M284,106h -17" fill="none" stroke="#0000ff"/>
<path d="M267,106v -1" fill="none" stroke="#0000ff"/>
<path d="M284,106h 17" fill="none" stroke="#0000ff"/>
<path d="M301,106v -1" fill="none" stroke="#0000ff"/>
<path d="M284,106v -9" fill="none" stroke="#0000ff"/>
<path d="M283,97h 2" fill="none" stroke="#0000ff"/>
<path d="M284,106v 8" fill="none" stroke="#0000ff"/>
<path d="M283,114h 2" fill="none" stroke="#0000ff"/>
<path d="M112,291" fill="none" stroke="#ff0000"/>
<path d="M112,291" fill="none" stroke="#ff0000"/>
<path d="M95,291h 17" fill="none" stroke="#ff0000"/>
<path d="M112,291h 17" fill="none" stroke="#ff0000"/>
<g stroke="black" stroke-width="1" fill="none">
<line x1="111" y1="291" x2="112" y2="291"/>
</g>
<path d="M226,281" fill="none" stroke="#ff0000"/>
<path d="M226,281" fill="none" stroke="#ff0000"/>
<path d="M209,281h 17" fill="none" stroke="#ff0000"/>
<path d="M226,281h 17" fill="none" stroke="#ff0000"/>
<g stroke="black" stroke-width="1" fill="none">
<line x1="225" y1="281" x2="226" y2="281"/>
</g>
<path d="M283,265" fill="none" stroke="#ff0000"/>
<path d="M283,265" fill="none" stroke="#ff0000"/>
<path d="M266,265h 17" fill="none" stroke="#ff0000"/>
<path d="M283,265h 18" fill="none" stroke="#ff0000"/>
<g stroke="black" stroke-width="1" fill="none">
<line x1="282" y1="265" x2="283" y2="265"/>
</g>
<path d="M341,180" fill="none" stroke="#ff0000"/>
<path d="M341,180v -1" fill="none" stroke="#ff0000"/>
<path d="M323,180h 18" fill="none" stroke="#ff0000"/>
<path d="M341,180h 17" fill="none" stroke="#ff0000"/>
<g stroke="black" stroke-width="1" fill="none">
<line x1="340" y1="180" x2="341" y2="180"/>
</g>
<path d="M455,199" fill="none" stroke="#ff0000"/>
<path d="M455,199v -1" fill="none" stroke="#ff0000"/>
<path d="M438,199h 17" fill="none" stroke="#ff0000"/>
<path d="M455,199h 17" fill="none" stroke="#ff0000"/>
<g stroke="black" stroke-width="1" fill="none">
<line x1="454" y1="199" x2="455" y2="199"/>
</g>
<rect x="57" y="33" width="170" height="65" fill="white"/>
<path d="M57,98h 170" fill="none" stroke="black"/>
<path d="M227,98v -65" fill="none" stroke="black"/>
<path d="M227,33h -170" fill="none" stroke="black"/>
<path d="M57,33v 65" fill="none" stroke="black"/>
<text x="99" y="56" fill="black" font-size="18" font-family="Helvetica">
Measured rate
</text>
<path d="M63,61h 30v -23h -30z" fill="white"/>
<path d="M63,49h 30" fill="none" stroke="#0000ff"/>
<g stroke="black" stroke-width="1" fill="none">
<line x1="77" y1="49" x2="78" y2="49"/>
</g>
<text x="99" y="89" fill="black" font-size="18" font-family="Helvetica">
Simulated rate
</text>
<path d="M63,93h 30v -23h -30z" fill="white"/>
<path d="M63,82h 30" fill="none" stroke="#ff0000"/>
<g stroke="black" stroke-width="1" fill="none">
<line x1="77" y1="82" x2="78" y2="82"/>
</g>
<rect x="57" y="33" width="170" height="65" fill="white"/>
<path d="M57,98h 170" fill="none" stroke="black"/>
<path d="M227,98v -65" fill="none" stroke="black"/>
<path d="M227,33h -170" fill="none" stroke="black"/>
<path d="M57,33v 65" fill="none" stroke="black"/>
<text x="99" y="56" fill="black" font-size="18" font-family="Helvetica">
Measured rate
</text>
<path d="M63,61h 30v -23h -30z" fill="white"/>
<path d="M63,49h 30" fill="none" stroke="#0000ff"/>
<g stroke="black" stroke-width="1" fill="none">
<line x1="77" y1="49" x2="78" y2="49"/>
</g>
<text x="99" y="89" fill="black" font-size="18" font-family="Helvetica">
Simulated rate
</text>
<path d="M63,93h 30v -23h -30z" fill="white"/>
<path d="M63,82h 30" fill="none" stroke="#ff0000"/>
<g stroke="black" stroke-width="1" fill="none">
<line x1="77" y1="82" x2="78" y2="82"/>
</g>
<text x="184" y="17" fill="black" font-size="17" font-family="Helvetica">
1D Charged particle rate
</text></svg>
