<?xml version="1.0" standalone="no"?>
<svg width="567" height="328" viewBox="0 0 567 328" xmlns="http://www.w3.org/2000/svg">
<title>
adjusted_muon_rates_cu.svg
</title>
<desc>
Creator: ROOT Version 5.34/18
CreationDate: Sun Aug 10 00:15:32 2014</desc>
<defs>
</defs>
<rect x="0" y="0" width="567" height="328" fill="white"/>
<rect x="57" y="33" width="453" height="262" fill="white"/>
<rect x="57" y="33" width="453" height="262" fill="none" stroke="black"/>
<rect x="57" y="33" width="453" height="262" fill="white"/>
<rect x="57" y="33" width="453" height="262" fill="none" stroke="black"/>
<path d="M57,295h 453" fill="none" stroke="black"/>
<text x="409" y="317" fill="black" font-size="11" font-family="Helvetica">
Momentum (MeV/c)
</text>
<path d="M95,287v 8" fill="none" stroke="black"/>
<path d="M113,291v 4" fill="none" stroke="black"/>
<path d="M131,291v 4" fill="none" stroke="black"/>
<path d="M149,291v 4" fill="none" stroke="black"/>
<path d="M167,291v 4" fill="none" stroke="black"/>
<path d="M185,287v 8" fill="none" stroke="black"/>
<path d="M203,291v 4" fill="none" stroke="black"/>
<path d="M221,291v 4" fill="none" stroke="black"/>
<path d="M239,291v 4" fill="none" stroke="black"/>
<path d="M257,291v 4" fill="none" stroke="black"/>
<path d="M275,287v 8" fill="none" stroke="black"/>
<path d="M293,291v 4" fill="none" stroke="black"/>
<path d="M311,291v 4" fill="none" stroke="black"/>
<path d="M329,291v 4" fill="none" stroke="black"/>
<path d="M347,291v 4" fill="none" stroke="black"/>
<path d="M365,287v 8" fill="none" stroke="black"/>
<path d="M383,291v 4" fill="none" stroke="black"/>
<path d="M401,291v 4" fill="none" stroke="black"/>
<path d="M419,291v 4" fill="none" stroke="black"/>
<path d="M437,291v 4" fill="none" stroke="black"/>
<path d="M455,287v 8" fill="none" stroke="black"/>
<path d="M95,287v 8" fill="none" stroke="black"/>
<path d="M77,291v 4" fill="none" stroke="black"/>
<path d="M59,291v 4" fill="none" stroke="black"/>
<path d="M455,287v 8" fill="none" stroke="black"/>
<path d="M473,291v 4" fill="none" stroke="black"/>
<path d="M491,291v 4" fill="none" stroke="black"/>
<path d="M509,291v 4" fill="none" stroke="black"/>
<text x="89" y="306" fill="black" font-size="11" font-family="Helvetica">
45
</text>
<text x="179" y="306" fill="black" font-size="11" font-family="Helvetica">
50
</text>
<text x="269" y="306" fill="black" font-size="11" font-family="Helvetica">
55
</text>
<text x="359" y="306" fill="black" font-size="11" font-family="Helvetica">
60
</text>
<text x="449" y="306" fill="black" font-size="11" font-family="Helvetica">
65
</text>
<path d="M57,295v -262" fill="none" stroke="black"/>
<g transform="rotate(-90,15,36)">
<text x="15" y="36" fill="black" font-size="11" font-family="Helvetica">
)
</text>
</g>
<g transform="rotate(-90,8,42)">
<text x="8" y="42" fill="black" font-size="7" font-family="Helvetica">
-1
</text>
</g>
<g transform="rotate(-90,15,115)">
<text x="15" y="115" fill="black" font-size="11" font-family="Helvetica">
Muon rate (nA
</text>
</g>
<path d="M70,295h -13" fill="none" stroke="black"/>
<path d="M63,286h -6" fill="none" stroke="black"/>
<path d="M63,278h -6" fill="none" stroke="black"/>
<path d="M63,269h -6" fill="none" stroke="black"/>
<path d="M63,260h -6" fill="none" stroke="black"/>
<path d="M70,251h -13" fill="none" stroke="black"/>
<path d="M63,243h -6" fill="none" stroke="black"/>
<path d="M63,234h -6" fill="none" stroke="black"/>
<path d="M63,225h -6" fill="none" stroke="black"/>
<path d="M63,216h -6" fill="none" stroke="black"/>
<path d="M70,208h -13" fill="none" stroke="black"/>
<path d="M63,199h -6" fill="none" stroke="black"/>
<path d="M63,190h -6" fill="none" stroke="black"/>
<path d="M63,181h -6" fill="none" stroke="black"/>
<path d="M63,173h -6" fill="none" stroke="black"/>
<path d="M70,164h -13" fill="none" stroke="black"/>
<path d="M63,155h -6" fill="none" stroke="black"/>
<path d="M63,146h -6" fill="none" stroke="black"/>
<path d="M63,138h -6" fill="none" stroke="black"/>
<path d="M63,129h -6" fill="none" stroke="black"/>
<path d="M70,120h -13" fill="none" stroke="black"/>
<path d="M63,111h -6" fill="none" stroke="black"/>
<path d="M63,103h -6" fill="none" stroke="black"/>
<path d="M63,94h -6" fill="none" stroke="black"/>
<path d="M63,85h -6" fill="none" stroke="black"/>
<path d="M70,76h -13" fill="none" stroke="black"/>
<path d="M63,68h -6" fill="none" stroke="black"/>
<path d="M63,59h -6" fill="none" stroke="black"/>
<path d="M63,50h -6" fill="none" stroke="black"/>
<path d="M63,41h -6" fill="none" stroke="black"/>
<path d="M70,33h -13" fill="none" stroke="black"/>
<text x="48" y="299" fill="black" font-size="11" font-family="Helvetica">
0
</text>
<text x="35" y="255" fill="black" font-size="11" font-family="Helvetica">
500
</text>
<text x="29" y="211" fill="black" font-size="11" font-family="Helvetica">
1000
</text>
<text x="29" y="167" fill="black" font-size="11" font-family="Helvetica">
1500
</text>
<text x="29" y="123" fill="black" font-size="11" font-family="Helvetica">
2000
</text>
<text x="29" y="80" fill="black" font-size="11" font-family="Helvetica">
2500
</text>
<text x="29" y="36" fill="black" font-size="11" font-family="Helvetica">
3000
</text>
<g stroke="black" stroke-width="1" fill="none">
<line x1="93" y1="159" x2="95" y2="161"/><line x1="93" y1="161" x2="95" y2="159"/>
<line x1="183" y1="184" x2="185" y2="186"/><line x1="183" y1="186" x2="185" y2="184"/>
<line x1="219" y1="184" x2="221" y2="186"/><line x1="219" y1="186" x2="221" y2="184"/>
<line x1="471" y1="196" x2="473" y2="198"/><line x1="471" y1="198" x2="473" y2="196"/>
</g>
<path d="M94,160v -3" fill="none" stroke="black"/>
<path d="M94,157h 1" fill="none" stroke="black"/>
<path d="M94,160v 4" fill="none" stroke="black"/>
<path d="M94,164h 1" fill="none" stroke="black"/>
<path d="M184,185v -4" fill="none" stroke="black"/>
<path d="M184,181h 1" fill="none" stroke="black"/>
<path d="M184,185v 4" fill="none" stroke="black"/>
<path d="M184,189h 1" fill="none" stroke="black"/>
<path d="M220,185v -3" fill="none" stroke="black"/>
<path d="M220,182h 1" fill="none" stroke="black"/>
<path d="M220,185v 3" fill="none" stroke="black"/>
<path d="M220,188h 1" fill="none" stroke="black"/>
<path d="M472,197v -2" fill="none" stroke="black"/>
<path d="M472,195h 1" fill="none" stroke="black"/>
<path d="M472,197v 2" fill="none" stroke="black"/>
<path d="M472,199h 1" fill="none" stroke="black"/>
<path d="M94,160v -84" fill="none" stroke="#ff0000"/>
<path d="M94,76h 1" fill="none" stroke="#ff0000"/>
<path d="M94,160v 84" fill="none" stroke="#ff0000"/>
<path d="M94,244h 1" fill="none" stroke="#ff0000"/>
<path d="M184,185v -69" fill="none" stroke="#ff0000"/>
<path d="M184,116h 1" fill="none" stroke="#ff0000"/>
<path d="M184,185v 68" fill="none" stroke="#ff0000"/>
<path d="M184,253h 1" fill="none" stroke="#ff0000"/>
<path d="M220,185v -69" fill="none" stroke="#ff0000"/>
<path d="M220,116h 1" fill="none" stroke="#ff0000"/>
<path d="M220,185v 68" fill="none" stroke="#ff0000"/>
<path d="M220,253h 1" fill="none" stroke="#ff0000"/>
<path d="M472,197v -61" fill="none" stroke="#ff0000"/>
<path d="M472,136h 1" fill="none" stroke="#ff0000"/>
<path d="M472,197v 61" fill="none" stroke="#ff0000"/>
<path d="M472,258h 1" fill="none" stroke="#ff0000"/>
<g stroke="#ff0000" stroke-width="1" fill="none">
<line x1="93" y1="160" x2="94" y2="160"/>
<line x1="183" y1="185" x2="184" y2="185"/>
<line x1="219" y1="185" x2="220" y2="185"/>
<line x1="471" y1="197" x2="472" y2="197"/>
</g>
<path d="M94,160v -127" fill="none" stroke="#0000ff"/>
<path d="M94,33h 1" fill="none" stroke="#0000ff"/>
<path d="M94,160v 135" fill="none" stroke="#0000ff"/>
<path d="M94,295h 1" fill="none" stroke="#0000ff"/>
<path d="M184,185v -123" fill="none" stroke="#0000ff"/>
<path d="M184,62h 1" fill="none" stroke="#0000ff"/>
<path d="M184,185v 110" fill="none" stroke="#0000ff"/>
<path d="M184,295h 1" fill="none" stroke="#0000ff"/>
<path d="M220,185v -123" fill="none" stroke="#0000ff"/>
<path d="M220,62h 1" fill="none" stroke="#0000ff"/>
<path d="M220,185v 110" fill="none" stroke="#0000ff"/>
<path d="M220,295h 1" fill="none" stroke="#0000ff"/>
<path d="M472,197v -109" fill="none" stroke="#0000ff"/>
<path d="M472,88h 1" fill="none" stroke="#0000ff"/>
<path d="M472,197v 98" fill="none" stroke="#0000ff"/>
<path d="M472,295h 1" fill="none" stroke="#0000ff"/>
<g stroke="#0000ff" stroke-width="0" fill="none">
<line x1="93" y1="160" x2="94" y2="160"/>
<line x1="183" y1="185" x2="184" y2="185"/>
<line x1="219" y1="185" x2="220" y2="185"/>
<line x1="471" y1="197" x2="472" y2="197"/>
</g>
<rect x="340" y="33" width="170" height="32" fill="none" stroke="black"/>
<path d="M340,65h 170" fill="none" stroke="black"/>
<path d="M510,65v -32" fill="none" stroke="black"/>
<path d="M510,33h -170" fill="none" stroke="black"/>
<path d="M340,33v 32" fill="none" stroke="black"/>
<text x="344" y="38" fill="black" font-size="6" font-family="Helvetica">
Muon momentum distribution
</text>
<text x="382" y="47" fill="black" font-size="6" font-family="Helvetica">
Corrected rate of muons decaying in copper
</text>
<path d="M347,48h 29v -6h -29z" fill="white"/>
<path d="M347,45h 29" fill="none" stroke="black"/>
<g stroke="black" stroke-width="1" fill="none">
<line x1="360" y1="44" x2="362" y2="46"/><line x1="360" y1="46" x2="362" y2="44"/>
</g>
<text x="382" y="55" fill="black" font-size="6" font-family="Helvetica">
Errors due to MPPC efficiency
</text>
<path d="M347,56h 29v -6h -29z" fill="white"/>
<path d="M347,53h 29" fill="none" stroke="#ff0000"/>
<g stroke="#ff0000" stroke-width="1" fill="none">
<line x1="360" y1="53" x2="361" y2="53"/>
</g>
<text x="382" y="63" fill="black" font-size="6" font-family="Helvetica">
Systematic errors
</text>
<path d="M347,64h 29v -6h -29z" fill="white"/>
<path d="M347,61h 29" fill="none" stroke="#0000ff"/>
<g stroke="#0000ff" stroke-width="0" fill="none">
<line x1="360" y1="61" x2="361" y2="61"/>
</g>
<path d="M94,160v -84" fill="none" stroke="#ff0000"/>
<path d="M94,76h 1" fill="none" stroke="#ff0000"/>
<path d="M94,160v 84" fill="none" stroke="#ff0000"/>
<path d="M94,244h 1" fill="none" stroke="#ff0000"/>
<path d="M184,185v -69" fill="none" stroke="#ff0000"/>
<path d="M184,116h 1" fill="none" stroke="#ff0000"/>
<path d="M184,185v 68" fill="none" stroke="#ff0000"/>
<path d="M184,253h 1" fill="none" stroke="#ff0000"/>
<path d="M220,185v -69" fill="none" stroke="#ff0000"/>
<path d="M220,116h 1" fill="none" stroke="#ff0000"/>
<path d="M220,185v 68" fill="none" stroke="#ff0000"/>
<path d="M220,253h 1" fill="none" stroke="#ff0000"/>
<path d="M472,197v -61" fill="none" stroke="#ff0000"/>
<path d="M472,136h 1" fill="none" stroke="#ff0000"/>
<path d="M472,197v 61" fill="none" stroke="#ff0000"/>
<path d="M472,258h 1" fill="none" stroke="#ff0000"/>
<g stroke="#ff0000" stroke-width="1" fill="none">
<line x1="93" y1="160" x2="94" y2="160"/>
<line x1="183" y1="185" x2="184" y2="185"/>
<line x1="219" y1="185" x2="220" y2="185"/>
<line x1="471" y1="197" x2="472" y2="197"/>
</g>
<path d="M94,160v -3" fill="none" stroke="black"/>
<path d="M94,157h 1" fill="none" stroke="black"/>
<path d="M94,160v 4" fill="none" stroke="black"/>
<path d="M94,164h 1" fill="none" stroke="black"/>
<path d="M184,185v -4" fill="none" stroke="black"/>
<path d="M184,181h 1" fill="none" stroke="black"/>
<path d="M184,185v 4" fill="none" stroke="black"/>
<path d="M184,189h 1" fill="none" stroke="black"/>
<path d="M220,185v -3" fill="none" stroke="black"/>
<path d="M220,182h 1" fill="none" stroke="black"/>
<path d="M220,185v 3" fill="none" stroke="black"/>
<path d="M220,188h 1" fill="none" stroke="black"/>
<path d="M472,197v -2" fill="none" stroke="black"/>
<path d="M472,195h 1" fill="none" stroke="black"/>
<path d="M472,197v 2" fill="none" stroke="black"/>
<path d="M472,199h 1" fill="none" stroke="black"/>
<g stroke="black" stroke-width="1" fill="none">
<line x1="93" y1="159" x2="95" y2="161"/><line x1="93" y1="161" x2="95" y2="159"/>
<line x1="183" y1="184" x2="185" y2="186"/><line x1="183" y1="186" x2="185" y2="184"/>
<line x1="219" y1="184" x2="221" y2="186"/><line x1="219" y1="186" x2="221" y2="184"/>
<line x1="471" y1="196" x2="473" y2="198"/><line x1="471" y1="198" x2="473" y2="196"/>
</g>
<text x="106" y="17" fill="black" font-size="17" font-family="Helvetica">
Corrected rate of muons decaying in copper
</text></svg>
