<?xml version="1.0" standalone="no"?>
<svg width="567" height="328" viewBox="0 0 567 328" xmlns="http://www.w3.org/2000/svg">
<title>
adjusted_muon_rates_cu.svg
</title>
<desc>
Creator: ROOT Version 5.34/14
CreationDate: Sun Feb  9 00:44:32 2014</desc>
<defs>
</defs>
<rect x="0" y="0" width="567" height="328" fill="white"/>
<rect x="57" y="33" width="453" height="262" fill="white"/>
<rect x="57" y="33" width="453" height="262" fill="none" stroke="black"/>
<rect x="57" y="33" width="453" height="262" fill="white"/>
<rect x="57" y="33" width="453" height="262" fill="none" stroke="black"/>
<path d="M57,295h 453" fill="none" stroke="black"/>
<text x="417" y="317" fill="black" font-size="11" font-family="Helvetica">
Momentum (MeV/c)
</text>
<path d="M95,287v 8" fill="none" stroke="black"/>
<path d="M113,291v 4" fill="none" stroke="black"/>
<path d="M131,291v 4" fill="none" stroke="black"/>
<path d="M149,291v 4" fill="none" stroke="black"/>
<path d="M167,291v 4" fill="none" stroke="black"/>
<path d="M185,287v 8" fill="none" stroke="black"/>
<path d="M203,291v 4" fill="none" stroke="black"/>
<path d="M221,291v 4" fill="none" stroke="black"/>
<path d="M239,291v 4" fill="none" stroke="black"/>
<path d="M257,291v 4" fill="none" stroke="black"/>
<path d="M275,287v 8" fill="none" stroke="black"/>
<path d="M293,291v 4" fill="none" stroke="black"/>
<path d="M311,291v 4" fill="none" stroke="black"/>
<path d="M329,291v 4" fill="none" stroke="black"/>
<path d="M347,291v 4" fill="none" stroke="black"/>
<path d="M365,287v 8" fill="none" stroke="black"/>
<path d="M383,291v 4" fill="none" stroke="black"/>
<path d="M401,291v 4" fill="none" stroke="black"/>
<path d="M419,291v 4" fill="none" stroke="black"/>
<path d="M437,291v 4" fill="none" stroke="black"/>
<path d="M455,287v 8" fill="none" stroke="black"/>
<path d="M95,287v 8" fill="none" stroke="black"/>
<path d="M77,291v 4" fill="none" stroke="black"/>
<path d="M59,291v 4" fill="none" stroke="black"/>
<path d="M455,287v 8" fill="none" stroke="black"/>
<path d="M473,291v 4" fill="none" stroke="black"/>
<path d="M491,291v 4" fill="none" stroke="black"/>
<path d="M509,291v 4" fill="none" stroke="black"/>
<text x="89" y="306" fill="black" font-size="11" font-family="Helvetica">
45
</text>
<text x="179" y="306" fill="black" font-size="11" font-family="Helvetica">
50
</text>
<text x="269" y="306" fill="black" font-size="11" font-family="Helvetica">
55
</text>
<text x="359" y="306" fill="black" font-size="11" font-family="Helvetica">
60
</text>
<text x="449" y="306" fill="black" font-size="11" font-family="Helvetica">
65
</text>
<path d="M57,295v -262" fill="none" stroke="black"/>
<g transform="rotate(-90,14,35)">
<text x="14" y="35" fill="black" font-size="11" font-family="Helvetica">
)
</text>
</g>
<g transform="rotate(-90,10,41)">
<text x="10" y="41" fill="black" font-size="7" font-family="Helvetica">
-1
</text>
</g>
<g transform="rotate(-90,14,108)">
<text x="14" y="108" fill="black" font-size="11" font-family="Helvetica">
Muon rate (nA
</text>
</g>
<path d="M70,295h -13" fill="none" stroke="black"/>
<path d="M63,285h -6" fill="none" stroke="black"/>
<path d="M63,274h -6" fill="none" stroke="black"/>
<path d="M63,264h -6" fill="none" stroke="black"/>
<path d="M63,253h -6" fill="none" stroke="black"/>
<path d="M70,243h -13" fill="none" stroke="black"/>
<path d="M63,232h -6" fill="none" stroke="black"/>
<path d="M63,222h -6" fill="none" stroke="black"/>
<path d="M63,211h -6" fill="none" stroke="black"/>
<path d="M63,201h -6" fill="none" stroke="black"/>
<path d="M70,190h -13" fill="none" stroke="black"/>
<path d="M63,180h -6" fill="none" stroke="black"/>
<path d="M63,169h -6" fill="none" stroke="black"/>
<path d="M63,159h -6" fill="none" stroke="black"/>
<path d="M63,148h -6" fill="none" stroke="black"/>
<path d="M70,138h -13" fill="none" stroke="black"/>
<path d="M63,127h -6" fill="none" stroke="black"/>
<path d="M63,117h -6" fill="none" stroke="black"/>
<path d="M63,106h -6" fill="none" stroke="black"/>
<path d="M63,96h -6" fill="none" stroke="black"/>
<path d="M70,85h -13" fill="none" stroke="black"/>
<path d="M63,75h -6" fill="none" stroke="black"/>
<path d="M63,64h -6" fill="none" stroke="black"/>
<path d="M63,54h -6" fill="none" stroke="black"/>
<path d="M63,43h -6" fill="none" stroke="black"/>
<path d="M70,33h -13" fill="none" stroke="black"/>
<text x="48" y="299" fill="black" font-size="11" font-family="Helvetica">
0
</text>
<text x="36" y="246" fill="black" font-size="11" font-family="Helvetica">
500
</text>
<text x="30" y="194" fill="black" font-size="11" font-family="Helvetica">
1000
</text>
<text x="30" y="142" fill="black" font-size="11" font-family="Helvetica">
1500
</text>
<text x="30" y="89" fill="black" font-size="11" font-family="Helvetica">
2000
</text>
<text x="30" y="37" fill="black" font-size="11" font-family="Helvetica">
2500
</text>
<g stroke="black" stroke-width="1" fill="none">
<line x1="93" y1="132" x2="95" y2="134"/><line x1="93" y1="134" x2="95" y2="132"/>
<line x1="183" y1="162" x2="185" y2="164"/><line x1="183" y1="164" x2="185" y2="162"/>
<line x1="219" y1="162" x2="221" y2="164"/><line x1="219" y1="164" x2="221" y2="162"/>
<line x1="471" y1="177" x2="473" y2="179"/><line x1="471" y1="179" x2="473" y2="177"/>
</g>
<path d="M94,133v -4" fill="none" stroke="black"/>
<path d="M94,129h 1" fill="none" stroke="black"/>
<path d="M94,133v 4" fill="none" stroke="black"/>
<path d="M94,137h 1" fill="none" stroke="black"/>
<path d="M184,163v -5" fill="none" stroke="black"/>
<path d="M184,158h 1" fill="none" stroke="black"/>
<path d="M184,163v 4" fill="none" stroke="black"/>
<path d="M184,167h 1" fill="none" stroke="black"/>
<path d="M220,163v -3" fill="none" stroke="black"/>
<path d="M220,160h 1" fill="none" stroke="black"/>
<path d="M220,163v 4" fill="none" stroke="black"/>
<path d="M220,167h 1" fill="none" stroke="black"/>
<path d="M472,178v -3" fill="none" stroke="black"/>
<path d="M472,175h 1" fill="none" stroke="black"/>
<path d="M472,178v 2" fill="none" stroke="black"/>
<path d="M472,180h 1" fill="none" stroke="black"/>
<path d="M94,133v -36" fill="none" stroke="#ff0000"/>
<path d="M94,97h 1" fill="none" stroke="#ff0000"/>
<path d="M94,133v 36" fill="none" stroke="#ff0000"/>
<path d="M94,169h 1" fill="none" stroke="#ff0000"/>
<path d="M184,163v -30" fill="none" stroke="#ff0000"/>
<path d="M184,133h 1" fill="none" stroke="#ff0000"/>
<path d="M184,163v 29" fill="none" stroke="#ff0000"/>
<path d="M184,192h 1" fill="none" stroke="#ff0000"/>
<path d="M220,163v -29" fill="none" stroke="#ff0000"/>
<path d="M220,134h 1" fill="none" stroke="#ff0000"/>
<path d="M220,163v 30" fill="none" stroke="#ff0000"/>
<path d="M220,193h 1" fill="none" stroke="#ff0000"/>
<path d="M472,178v -27" fill="none" stroke="#ff0000"/>
<path d="M472,151h 1" fill="none" stroke="#ff0000"/>
<path d="M472,178v 26" fill="none" stroke="#ff0000"/>
<path d="M472,204h 1" fill="none" stroke="#ff0000"/>
<g stroke="#ff0000" stroke-width="1" fill="none">
<line x1="93" y1="133" x2="94" y2="133"/>
<line x1="183" y1="163" x2="184" y2="163"/>
<line x1="219" y1="163" x2="220" y2="163"/>
<line x1="471" y1="178" x2="472" y2="178"/>
</g>
<path d="M94,133v -64" fill="none" stroke="#0000ff"/>
<path d="M94,69h 1" fill="none" stroke="#0000ff"/>
<path d="M94,133v 65" fill="none" stroke="#0000ff"/>
<path d="M94,198h 1" fill="none" stroke="#0000ff"/>
<path d="M184,163v -53" fill="none" stroke="#0000ff"/>
<path d="M184,110h 1" fill="none" stroke="#0000ff"/>
<path d="M184,163v 53" fill="none" stroke="#0000ff"/>
<path d="M184,216h 1" fill="none" stroke="#0000ff"/>
<path d="M220,163v -52" fill="none" stroke="#0000ff"/>
<path d="M220,111h 1" fill="none" stroke="#0000ff"/>
<path d="M220,163v 53" fill="none" stroke="#0000ff"/>
<path d="M220,216h 1" fill="none" stroke="#0000ff"/>
<path d="M472,178v -47" fill="none" stroke="#0000ff"/>
<path d="M472,131h 1" fill="none" stroke="#0000ff"/>
<path d="M472,178v 46" fill="none" stroke="#0000ff"/>
<path d="M472,224h 1" fill="none" stroke="#0000ff"/>
<g stroke="#0000ff" stroke-width="0" fill="none">
<line x1="93" y1="133" x2="94" y2="133"/>
<line x1="183" y1="163" x2="184" y2="163"/>
<line x1="219" y1="163" x2="220" y2="163"/>
<line x1="471" y1="178" x2="472" y2="178"/>
</g>
<rect x="340" y="33" width="170" height="33" fill="none" stroke="black"/>
<path d="M340,66h 170" fill="none" stroke="black"/>
<path d="M510,66v -33" fill="none" stroke="black"/>
<path d="M510,33h -170" fill="none" stroke="black"/>
<path d="M340,33v 33" fill="none" stroke="black"/>
<text x="344" y="39" fill="black" font-size="6" font-family="Helvetica">
Muon momentum distribution
</text>
<text x="382" y="47" fill="black" font-size="6" font-family="Helvetica">
Adjusted rate of muons decaying in copper
</text>
<path d="M347,48h 29v -6h -29z" fill="white"/>
<path d="M347,45h 29" fill="none" stroke="black"/>
<g stroke="black" stroke-width="1" fill="none">
<line x1="360" y1="44" x2="362" y2="46"/><line x1="360" y1="46" x2="362" y2="44"/>
</g>
<text x="382" y="55" fill="black" font-size="6" font-family="Helvetica">
Errors due to MPPC efficiency
</text>
<path d="M347,56h 29v -5h -29z" fill="white"/>
<path d="M347,53h 29" fill="none" stroke="#ff0000"/>
<g stroke="#ff0000" stroke-width="1" fill="none">
<line x1="360" y1="53" x2="361" y2="53"/>
</g>
<text x="382" y="63" fill="black" font-size="6" font-family="Helvetica">
Systematic errors
</text>
<path d="M347,65h 29v -6h -29z" fill="white"/>
<path d="M347,62h 29" fill="none" stroke="#0000ff"/>
<g stroke="#0000ff" stroke-width="0" fill="none">
<line x1="360" y1="62" x2="361" y2="62"/>
</g>
<path d="M94,133v -36" fill="none" stroke="#ff0000"/>
<path d="M94,97h 1" fill="none" stroke="#ff0000"/>
<path d="M94,133v 36" fill="none" stroke="#ff0000"/>
<path d="M94,169h 1" fill="none" stroke="#ff0000"/>
<path d="M184,163v -30" fill="none" stroke="#ff0000"/>
<path d="M184,133h 1" fill="none" stroke="#ff0000"/>
<path d="M184,163v 29" fill="none" stroke="#ff0000"/>
<path d="M184,192h 1" fill="none" stroke="#ff0000"/>
<path d="M220,163v -29" fill="none" stroke="#ff0000"/>
<path d="M220,134h 1" fill="none" stroke="#ff0000"/>
<path d="M220,163v 30" fill="none" stroke="#ff0000"/>
<path d="M220,193h 1" fill="none" stroke="#ff0000"/>
<path d="M472,178v -27" fill="none" stroke="#ff0000"/>
<path d="M472,151h 1" fill="none" stroke="#ff0000"/>
<path d="M472,178v 26" fill="none" stroke="#ff0000"/>
<path d="M472,204h 1" fill="none" stroke="#ff0000"/>
<g stroke="#ff0000" stroke-width="1" fill="none">
<line x1="93" y1="133" x2="94" y2="133"/>
<line x1="183" y1="163" x2="184" y2="163"/>
<line x1="219" y1="163" x2="220" y2="163"/>
<line x1="471" y1="178" x2="472" y2="178"/>
</g>
<path d="M94,133v -4" fill="none" stroke="black"/>
<path d="M94,129h 1" fill="none" stroke="black"/>
<path d="M94,133v 4" fill="none" stroke="black"/>
<path d="M94,137h 1" fill="none" stroke="black"/>
<path d="M184,163v -5" fill="none" stroke="black"/>
<path d="M184,158h 1" fill="none" stroke="black"/>
<path d="M184,163v 4" fill="none" stroke="black"/>
<path d="M184,167h 1" fill="none" stroke="black"/>
<path d="M220,163v -3" fill="none" stroke="black"/>
<path d="M220,160h 1" fill="none" stroke="black"/>
<path d="M220,163v 4" fill="none" stroke="black"/>
<path d="M220,167h 1" fill="none" stroke="black"/>
<path d="M472,178v -3" fill="none" stroke="black"/>
<path d="M472,175h 1" fill="none" stroke="black"/>
<path d="M472,178v 2" fill="none" stroke="black"/>
<path d="M472,180h 1" fill="none" stroke="black"/>
<g stroke="black" stroke-width="1" fill="none">
<line x1="93" y1="132" x2="95" y2="134"/><line x1="93" y1="134" x2="95" y2="132"/>
<line x1="183" y1="162" x2="185" y2="164"/><line x1="183" y1="164" x2="185" y2="162"/>
<line x1="219" y1="162" x2="221" y2="164"/><line x1="219" y1="164" x2="221" y2="162"/>
<line x1="471" y1="177" x2="473" y2="179"/><line x1="471" y1="179" x2="473" y2="177"/>
</g>
<text x="133" y="16" fill="black" font-size="16" font-family="Helvetica">
Adjusted rate of muons decaying in copper
</text></svg>
