<?xml version="1.0" standalone="no"?>
<svg width="567" height="328" viewBox="0 0 567 328" xmlns="http://www.w3.org/2000/svg">
<title>
adjusted_muon_rates_exec_summary_version.svg
</title>
<desc>
Creator: ROOT Version 5.34/18
CreationDate: Sun Aug 10 00:14:53 2014</desc>
<defs>
</defs>
<rect x="0" y="0" width="567" height="328" fill="white"/>
<rect x="57" y="33" width="453" height="262" fill="white"/>
<rect x="57" y="33" width="453" height="262" fill="none" stroke="black"/>
<rect x="57" y="33" width="453" height="262" fill="white"/>
<rect x="57" y="33" width="453" height="262" fill="none" stroke="black"/>
<path d="M57,295h 453" fill="none" stroke="black"/>
<text x="409" y="317" fill="black" font-size="11" font-family="Helvetica">
Momentum (MeV/c)
</text>
<path d="M95,287v 8" fill="none" stroke="black"/>
<path d="M113,291v 4" fill="none" stroke="black"/>
<path d="M131,291v 4" fill="none" stroke="black"/>
<path d="M149,291v 4" fill="none" stroke="black"/>
<path d="M167,291v 4" fill="none" stroke="black"/>
<path d="M185,287v 8" fill="none" stroke="black"/>
<path d="M203,291v 4" fill="none" stroke="black"/>
<path d="M221,291v 4" fill="none" stroke="black"/>
<path d="M239,291v 4" fill="none" stroke="black"/>
<path d="M257,291v 4" fill="none" stroke="black"/>
<path d="M275,287v 8" fill="none" stroke="black"/>
<path d="M293,291v 4" fill="none" stroke="black"/>
<path d="M311,291v 4" fill="none" stroke="black"/>
<path d="M329,291v 4" fill="none" stroke="black"/>
<path d="M347,291v 4" fill="none" stroke="black"/>
<path d="M365,287v 8" fill="none" stroke="black"/>
<path d="M383,291v 4" fill="none" stroke="black"/>
<path d="M401,291v 4" fill="none" stroke="black"/>
<path d="M419,291v 4" fill="none" stroke="black"/>
<path d="M437,291v 4" fill="none" stroke="black"/>
<path d="M455,287v 8" fill="none" stroke="black"/>
<path d="M95,287v 8" fill="none" stroke="black"/>
<path d="M77,291v 4" fill="none" stroke="black"/>
<path d="M59,291v 4" fill="none" stroke="black"/>
<path d="M455,287v 8" fill="none" stroke="black"/>
<path d="M473,291v 4" fill="none" stroke="black"/>
<path d="M491,291v 4" fill="none" stroke="black"/>
<path d="M509,291v 4" fill="none" stroke="black"/>
<text x="89" y="306" fill="black" font-size="11" font-family="Helvetica">
45
</text>
<text x="179" y="306" fill="black" font-size="11" font-family="Helvetica">
50
</text>
<text x="269" y="306" fill="black" font-size="11" font-family="Helvetica">
55
</text>
<text x="359" y="306" fill="black" font-size="11" font-family="Helvetica">
60
</text>
<text x="449" y="306" fill="black" font-size="11" font-family="Helvetica">
65
</text>
<path d="M57,295v -262" fill="none" stroke="black"/>
<g transform="rotate(-90,15,36)">
<text x="15" y="36" fill="black" font-size="11" font-family="Helvetica">
)
</text>
</g>
<g transform="rotate(-90,8,42)">
<text x="8" y="42" fill="black" font-size="7" font-family="Helvetica">
-1
</text>
</g>
<g transform="rotate(-90,15,144)">
<text x="15" y="144" fill="black" font-size="11" font-family="Helvetica">
Muon rate (muons s
</text>
</g>
<path d="M70,295h -13" fill="none" stroke="black"/>
<path d="M63,288h -6" fill="none" stroke="black"/>
<path d="M63,280h -6" fill="none" stroke="black"/>
<path d="M63,273h -6" fill="none" stroke="black"/>
<path d="M63,265h -6" fill="none" stroke="black"/>
<path d="M70,258h -13" fill="none" stroke="black"/>
<path d="M63,250h -6" fill="none" stroke="black"/>
<path d="M63,243h -6" fill="none" stroke="black"/>
<path d="M63,235h -6" fill="none" stroke="black"/>
<path d="M63,228h -6" fill="none" stroke="black"/>
<path d="M70,220h -13" fill="none" stroke="black"/>
<path d="M63,213h -6" fill="none" stroke="black"/>
<path d="M63,205h -6" fill="none" stroke="black"/>
<path d="M63,198h -6" fill="none" stroke="black"/>
<path d="M63,190h -6" fill="none" stroke="black"/>
<path d="M70,183h -13" fill="none" stroke="black"/>
<path d="M63,175h -6" fill="none" stroke="black"/>
<path d="M63,168h -6" fill="none" stroke="black"/>
<path d="M63,160h -6" fill="none" stroke="black"/>
<path d="M63,153h -6" fill="none" stroke="black"/>
<path d="M70,145h -13" fill="none" stroke="black"/>
<path d="M63,138h -6" fill="none" stroke="black"/>
<path d="M63,130h -6" fill="none" stroke="black"/>
<path d="M63,123h -6" fill="none" stroke="black"/>
<path d="M63,115h -6" fill="none" stroke="black"/>
<path d="M70,108h -13" fill="none" stroke="black"/>
<path d="M63,100h -6" fill="none" stroke="black"/>
<path d="M63,93h -6" fill="none" stroke="black"/>
<path d="M63,85h -6" fill="none" stroke="black"/>
<path d="M63,78h -6" fill="none" stroke="black"/>
<path d="M70,70h -13" fill="none" stroke="black"/>
<path d="M63,63h -6" fill="none" stroke="black"/>
<path d="M63,55h -6" fill="none" stroke="black"/>
<path d="M63,48h -6" fill="none" stroke="black"/>
<path d="M63,40h -6" fill="none" stroke="black"/>
<path d="M70,33h -13" fill="none" stroke="black"/>
<text x="48" y="299" fill="black" font-size="11" font-family="Helvetica">
0
</text>
<text x="22" y="261" fill="black" font-size="11" font-family="Helvetica">
10000
</text>
<text x="22" y="223" fill="black" font-size="11" font-family="Helvetica">
20000
</text>
<text x="22" y="186" fill="black" font-size="11" font-family="Helvetica">
30000
</text>
<text x="22" y="149" fill="black" font-size="11" font-family="Helvetica">
40000
</text>
<text x="22" y="111" fill="black" font-size="11" font-family="Helvetica">
50000
</text>
<text x="22" y="73" fill="black" font-size="11" font-family="Helvetica">
60000
</text>
<text x="22" y="36" fill="black" font-size="11" font-family="Helvetica">
70000
</text>
<g stroke="black" stroke-width="1" fill="none">
<line x1="93" y1="141" x2="95" y2="143"/><line x1="93" y1="143" x2="95" y2="141"/>
<line x1="183" y1="190" x2="185" y2="192"/><line x1="183" y1="192" x2="185" y2="190"/>
<line x1="219" y1="197" x2="221" y2="199"/><line x1="219" y1="199" x2="221" y2="197"/>
<line x1="471" y1="230" x2="473" y2="232"/><line x1="471" y1="232" x2="473" y2="230"/>
</g>
<path d="M94,142v -3" fill="none" stroke="black"/>
<path d="M94,139h 1" fill="none" stroke="black"/>
<path d="M94,142v 2" fill="none" stroke="black"/>
<path d="M94,144h 1" fill="none" stroke="black"/>
<path d="M184,191v -2" fill="none" stroke="black"/>
<path d="M184,189h 1" fill="none" stroke="black"/>
<path d="M184,191v 1" fill="none" stroke="black"/>
<path d="M184,192h 1" fill="none" stroke="black"/>
<path d="M220,198v -2" fill="none" stroke="black"/>
<path d="M220,196h 1" fill="none" stroke="black"/>
<path d="M220,198v 1" fill="none" stroke="black"/>
<path d="M220,199h 1" fill="none" stroke="black"/>
<path d="M472,231v -1" fill="none" stroke="black"/>
<path d="M472,230h 1" fill="none" stroke="black"/>
<path d="M472,231v 1" fill="none" stroke="black"/>
<path d="M472,232h 1" fill="none" stroke="black"/>
<path d="M94,142v -96" fill="none" stroke="#0000ff"/>
<path d="M94,46h 1" fill="none" stroke="#0000ff"/>
<path d="M94,142v 95" fill="none" stroke="#0000ff"/>
<path d="M94,237h 1" fill="none" stroke="#0000ff"/>
<path d="M184,191v -65" fill="none" stroke="#0000ff"/>
<path d="M184,126h 1" fill="none" stroke="#0000ff"/>
<path d="M184,191v 65" fill="none" stroke="#0000ff"/>
<path d="M184,256h 1" fill="none" stroke="#0000ff"/>
<path d="M220,198v -61" fill="none" stroke="#0000ff"/>
<path d="M220,137h 1" fill="none" stroke="#0000ff"/>
<path d="M220,198v 60" fill="none" stroke="#0000ff"/>
<path d="M220,258h 1" fill="none" stroke="#0000ff"/>
<path d="M472,231v -40" fill="none" stroke="#0000ff"/>
<path d="M472,191h 1" fill="none" stroke="#0000ff"/>
<path d="M472,231v 40" fill="none" stroke="#0000ff"/>
<path d="M472,271h 1" fill="none" stroke="#0000ff"/>
<g stroke="#0000ff" stroke-width="1" fill="none">
<line x1="93" y1="142" x2="94" y2="142"/>
<line x1="183" y1="191" x2="184" y2="191"/>
<line x1="219" y1="198" x2="220" y2="198"/>
<line x1="471" y1="231" x2="472" y2="231"/>
</g>
<path d="M96,156v -2" fill="none" stroke="#ff0000"/>
<path d="M95,154h 2" fill="none" stroke="#ff0000"/>
<path d="M96,156v 2" fill="none" stroke="#ff0000"/>
<path d="M95,158h 2" fill="none" stroke="#ff0000"/>
<path d="M186,172v -2" fill="none" stroke="#ff0000"/>
<path d="M185,170h 2" fill="none" stroke="#ff0000"/>
<path d="M186,172v 2" fill="none" stroke="#ff0000"/>
<path d="M185,174h 2" fill="none" stroke="#ff0000"/>
<path d="M222,180v -2" fill="none" stroke="#ff0000"/>
<path d="M221,178h 2" fill="none" stroke="#ff0000"/>
<path d="M222,180v 1" fill="none" stroke="#ff0000"/>
<path d="M221,181h 2" fill="none" stroke="#ff0000"/>
<path d="M474,216v -1" fill="none" stroke="#ff0000"/>
<path d="M473,215h 2" fill="none" stroke="#ff0000"/>
<path d="M474,216v 2" fill="none" stroke="#ff0000"/>
<path d="M473,218h 2" fill="none" stroke="#ff0000"/>
<g stroke="#ff0000" stroke-width="1" fill="none">
<line x1="95" y1="156" x2="97" y2="156"/><line x1="96" y1="155" x2="96" y2="157"/>
<line x1="185" y1="172" x2="187" y2="172"/><line x1="186" y1="171" x2="186" y2="173"/>
<line x1="221" y1="180" x2="223" y2="180"/><line x1="222" y1="179" x2="222" y2="181"/>
<line x1="473" y1="216" x2="475" y2="216"/><line x1="474" y1="215" x2="474" y2="217"/>
</g>
<rect x="340" y="33" width="170" height="65" fill="none" stroke="black"/>
<path d="M340,98h 170" fill="none" stroke="black"/>
<path d="M510,98v -65" fill="none" stroke="black"/>
<path d="M510,33h -170" fill="none" stroke="black"/>
<path d="M340,33v 65" fill="none" stroke="black"/>
<text x="344" y="44" fill="black" font-size="7" font-family="Helvetica">
Muon momentum distribution
</text>
<text x="382" y="61" fill="black" font-size="7" font-family="Helvetica">
Rate of freely decaying muons
</text>
<path d="M347,63h 29v -12h -29z" fill="white"/>
<path d="M347,57h 29" fill="none" stroke="black"/>
<g stroke="black" stroke-width="1" fill="none">
<line x1="360" y1="56" x2="362" y2="58"/><line x1="360" y1="58" x2="362" y2="56"/>
</g>
<text x="382" y="77" fill="black" font-size="7" font-family="Helvetica">
Errors due to MPPC efficiency
</text>
<path d="M347,79h 29v -11h -29z" fill="white"/>
<path d="M347,74h 29" fill="none" stroke="#0000ff"/>
<g stroke="#0000ff" stroke-width="1" fill="none">
<line x1="360" y1="74" x2="361" y2="74"/>
</g>
<text x="382" y="94" fill="black" font-size="7" font-family="Helvetica">
Simulated rate of freely decaying muons
</text>
<path d="M347,96h 29v -12h -29z" fill="white"/>
<path d="M347,90h 29" fill="none" stroke="#ff0000"/>
<g stroke="#ff0000" stroke-width="1" fill="none">
<line x1="360" y1="90" x2="362" y2="90"/><line x1="361" y1="89" x2="361" y2="91"/>
</g>
<path d="M94,142v -3" fill="none" stroke="black"/>
<path d="M94,139h 1" fill="none" stroke="black"/>
<path d="M94,142v 2" fill="none" stroke="black"/>
<path d="M94,144h 1" fill="none" stroke="black"/>
<path d="M184,191v -2" fill="none" stroke="black"/>
<path d="M184,189h 1" fill="none" stroke="black"/>
<path d="M184,191v 1" fill="none" stroke="black"/>
<path d="M184,192h 1" fill="none" stroke="black"/>
<path d="M220,198v -2" fill="none" stroke="black"/>
<path d="M220,196h 1" fill="none" stroke="black"/>
<path d="M220,198v 1" fill="none" stroke="black"/>
<path d="M220,199h 1" fill="none" stroke="black"/>
<path d="M472,231v -1" fill="none" stroke="black"/>
<path d="M472,230h 1" fill="none" stroke="black"/>
<path d="M472,231v 1" fill="none" stroke="black"/>
<path d="M472,232h 1" fill="none" stroke="black"/>
<g stroke="black" stroke-width="1" fill="none">
<line x1="93" y1="141" x2="95" y2="143"/><line x1="93" y1="143" x2="95" y2="141"/>
<line x1="183" y1="190" x2="185" y2="192"/><line x1="183" y1="192" x2="185" y2="190"/>
<line x1="219" y1="197" x2="221" y2="199"/><line x1="219" y1="199" x2="221" y2="197"/>
<line x1="471" y1="230" x2="473" y2="232"/><line x1="471" y1="232" x2="473" y2="230"/>
</g>
<text x="160" y="17" fill="black" font-size="17" font-family="Helvetica">
Rate of freely decaying muons
</text></svg>
