<?xml version="1.0" standalone="no"?>
<svg width="567" height="384" viewBox="0 0 567 384" xmlns="http://www.w3.org/2000/svg">
<title>
gross_photon_counts.svg
</title>
<desc>
Creator: ROOT Version 5.34/09
CreationDate: Mon Jan  6 16:50:24 2014</desc>
<defs>
</defs>
<rect x="0" y="0" width="567" height="384" fill="white"/>
<rect x="57" y="38" width="453" height="308" fill="white"/>
<rect x="57" y="38" width="453" height="308" fill="none" stroke="black"/>
<rect x="57" y="38" width="453" height="308" fill="white"/>
<rect x="57" y="38" width="453" height="308" fill="none" stroke="black"/>
<path d="M57,346v -290v 27h 1v 7v -1h 1v 9h 1v 7h 1v 4h 1v 6v -1h 1v 4v -1v 4h 1v 4v -2h 1v 4v -1v 2h 1v 4v -1v 2h 1v -1v 3v -1v 3h 1v -1v 5h 1v -1v 2v -1v 2v -2h 1v 5v -1v 3h 1v -2v 4h 1v 1v -2v 5h 1v -4v 5v -1v 5v -3h 1v 4v -2v 1h 1v -3v 6v -3v 1h
 1v 3v -1v 2h 1v 1v -1v 3h 1v 2v -1v 2v -2v 2v -1h 1v 3v -3h 1v 5v -1v 3v -3h 1v 4v -1h 1v 6h 1v -4v 4v -4h 1v 5v -2v 3v -5h 1v 6v -3v 2v -1v 4h 1v 1v -5v 4v -2v 8v -6v 1h 1v -3v 3v -1v 4h 1v 4v -3v 4v -2h 1v -3v 5v -6v 2h 1v 7v -5h 1v -2v 6v -2v 9v
 -7h 1v -5v 9v -10h 1v 12v -7v 6h 1v -6v 8v -3v 5v -4v 5h 1v -5v 2v -2v 4v -5v 5h 1v -4v 6v -4v 7h 1v -7v 5v -2v 2v -7h 1v 10v -7v 6v -7v 6v -1h 1v 3v -3v 2v -2v 4v -1h 1v -4v 4v -4v 7v -4v 3h 1v -3v 2v -4v 13v -10v 1h 1v -8v 14v -4v 2v -1h 1v -2v 6v
 -8v 10h 1v -4v 5v -4v 4v -3h 1v -3v 7v -4v 5v -3h 1v 2v -4v 5v -4v 6h 1v -7v 7v -5v 3v -4h 1v -1v 7v -4v 6v -5h 1v 3v -5v 4v -7v 15v -4h 1v -5v 15v -20h 1v 12v -10v 16v -15h 1v 16v -9v 4v -3v 8h 1v -11v 11v -8v 4v -7h 1v 12v -11v 8v -3v 1v -8h 1v
 20v -15h 1v 17v -17v 5v -4v 4h 1v 3v -10v 11v -19v 15h 1v 7v -9v 5v -5v 11h 1v -14v 11v -13v 14v -4v 4h 1v -12v 14v -7v 5v -6h 1v 6v -11v 11v -7h 1v 16v -10v 12v -8v 2v -6v 8h 1v -13v 11v -6h 1v 8v -8v 4v -1v 3v -8v 3h 1v 3v -9v 17v -4h 1v -16v 27v
 -15v 2h 1v 4v -13v 3v -2v 10h 1v -11v 17v -8v 16h 1v -18v 6v -6v 21h 1v -15v 12v -16h 1v 13v -16v 1h 1v 15v -19v 29v -19h 1v 15v -15v 19v -19h 1v -9v 37v -32h 1v 19v -9v 13v -26h 1v 26v -10v 14v -21v 17h 1v -15v 2v -8v 17v -11v 24h 1v -30v 17v -19v
 27h 1v -11v 3v -11v 11h 1v -9v 6v -6v 22v -19h 1v 25v -32v 13v -11v 15h 1v -15v 19v -14v 10v -4h 1v 4v -17v 10v -6v 28h 1v -30v 24v -16v 11h 1v 11v -28v 6v -10v 26h 1v -5v 49v -49v 19h 1v -30v 22v -22v 30v -19h 1v -14v 19v -22h 1v 22v -9v 15v -11h
 1v 19v -14v 25v -25v 14h 1v -19v 19v -30v 7v -4h 1v 19v -19v 13h 1v -24v 30v -6v 25h 1v -47v 17h 1v 30v -30v 11v -19h 1v 19v -6h 1v 14v -14v 14h 1v -14v 14v -30v 60v -19h 1v -30v 30v -30h 1v 30v -44v 63v -38h 1v 38v -38v 19h 1v -38v 57v -53h 1v 9v
 -5v 11v -15v 53h 1v -44v 44v -38h 1v -22v 22v -6v 14h 1v -14v 44v -38v 19v -25h 1v 25v -19v 38v -44h 1v 6v -6v 25v -19h 1v 38v -49v 49v -38h 1v 19v -30v 30v -30v 30h 1v -25v 25v -19v 19v -19v 19h 1v -25v 44v -30v 30h 1v -30v 30v -38v 38v -19h 1v
 -19v 19v -11v 11h 1v -19v 19v -11v 30v -30h 1v -8v 38v -38v 19h 1v -19v 58v -39v 39h 1v -50v 11v -11v 30h 1v -44v 64v -20v 20h 1v -58v 58v -58h 1v 38v -30v 50v -50v 11h 1v 39v -39h 1v 19v -19v 39h 1v -20v 20v -64h 1v 64v -39v 39v -39v 39h 1v -39v
 39h 1v -39v 19v -19v 39v -50h 1v 30v -38v 58v -20h 1v -19v 39v -39v 39v -39h 1v 39v -39v 19v -30v 50h 1v -39v 39v -39h 1v 39v -20v 20v -50v 30v -19h 1v -11v 50v -50v 50v -20v 20h 1v -20v 20v -50v 50v -39v 39h 1v -50v 50v -20h 1v -38v 38v -19v 39v
 -20h 1v -38v 58v -58v 58v -20v 20h 1v -20v 20v -20h 1v -19v 19v -19v 39v -58v 38h 1v -19v 19v -19v 39v -20h 1v -38v 58h 1v -39v 39v -39v 39h 1v -20v 20v -20v 20v -20h 1v 20v -20v 20v -20v 20v -20h 1v -19v 39v -20h 1v -30v 50v -39v 39v -39h 1v 39v
 -39v 19v -19v 39h 1v -39v 19v -19v 19v -19h 1v 39v -20h 1v 20v -20v 20v -20v 20h 1v -20v 20v -20h 1v 20v -20h 1v -19v 39v -20v 20v -39v 19h 1v 20v -50v 50v -20h 1v 20v -20v 20v -39v 39h 1v -39v 19v -19h 1v 39v -20v 20h 2v -39v 39v -20v 20h 1v -50v
 50v -20h 1v 20v -20v 20h 1v -39v 39h 1v -20v 20h 1v -20v 20v -20v 20h 1v -20v 20v -20v 20h 1v -39v 39v -20v 20h 1v -39h 1v 39v -20v 20h 1v -20v 20v -20v 20h 2v -39v 39h 4v -39v 39h 2v -20v 20h 2v -39v 39h 1v -39v 39v -20h 1v 20h 1v -20v 20h 1v -20v
 20v -20v 20h 1v -20v 20h 1v -20v 20v -20v 20h 1v -20v 20v -20h 1v 20v -20v 20v -39h 1v 39h 1v -20v 20v -20v 20h 1v -39v 39v -20v 20v -20h 1v 20v -20v 20h 1v -20v 20v -20v 20h 2v -20v 20v -20v 20v -20h 1v 20v -20v 20h 4v -20v 20h 2v -20h 1v 20h 1v
 -20h 1v 20h 1v -20v 20h 1v -20v 20v -20h 1v 20v -20v 20h 1v -20v 20h 3v -20v 20h 2v -20v 20h 1v -20v 20h 1v -20v 20v -20h 1v 20h 1v -20v 20v -20h 1v 20h 1v -20v 20h 1v -20v 20h 5v -20v 20h 2v -20v 20h 1v -20v 20h 1v -20h 1v 20v -20v 20h 2v -20v 20h
 1v -20v 20v -20v 20h 2v -20v 20h 3v -20h 1v 20v -20v 20h 4v -20v 20h 2v -20v 20v -20h 1v 20h 8v -20v 20h 2v -20v 20h 4v -20v 20h 14v -20v 20h 19v -20v 20h 15v -20v 20h 34v -20h 1v 20h 40v -20v 20h 67" fill="none" stroke="#000099"/>
<rect x="340" y="38" width="170" height="77" fill="white"/>
<path d="M340,115h 170" fill="none" stroke="black"/>
<path d="M510,115v -77" fill="none" stroke="black"/>
<path d="M510,38h -170" fill="none" stroke="black"/>
<path d="M340,38v 77" fill="none" stroke="black"/>
<text x="349" y="56" fill="black" font-size="14" font-family="Helvetica">
Entries 
</text>
<text x="448" y="56" fill="black" font-size="14" font-family="Helvetica">
 294637
</text>
<text x="349" y="82" fill="black" font-size="14" font-family="Helvetica">
Mean  
</text>
<text x="452" y="82" fill="black" font-size="14" font-family="Helvetica">
 0.1673
</text>
<text x="444" y="82" fill="black" font-size="14" font-family="Times">
&#0177;
</text>
<text x="397" y="82" fill="black" font-size="14" font-family="Helvetica">
  56.61 
</text>
<text x="349" y="107" fill="black" font-size="14" font-family="Helvetica">
RMS   
</text>
<text x="452" y="107" fill="black" font-size="14" font-family="Helvetica">
 0.1183
</text>
<text x="444" y="107" fill="black" font-size="14" font-family="Times">
&#0177;
</text>
<text x="394" y="107" fill="black" font-size="14" font-family="Helvetica">
  90.79 
</text>
<path d="M57,346h 453" fill="none" stroke="black"/>
<text x="411" y="371" fill="black" font-size="12" font-family="Helvetica">
Photons per event
</text>
<path d="M57,336v 10" fill="none" stroke="black"/>
<path d="M72,341v 5" fill="none" stroke="black"/>
<path d="M87,341v 5" fill="none" stroke="black"/>
<path d="M102,341v 5" fill="none" stroke="black"/>
<path d="M117,341v 5" fill="none" stroke="black"/>
<path d="M132,336v 10" fill="none" stroke="black"/>
<path d="M147,341v 5" fill="none" stroke="black"/>
<path d="M163,341v 5" fill="none" stroke="black"/>
<path d="M178,341v 5" fill="none" stroke="black"/>
<path d="M193,341v 5" fill="none" stroke="black"/>
<path d="M208,336v 10" fill="none" stroke="black"/>
<path d="M223,341v 5" fill="none" stroke="black"/>
<path d="M238,341v 5" fill="none" stroke="black"/>
<path d="M253,341v 5" fill="none" stroke="black"/>
<path d="M268,341v 5" fill="none" stroke="black"/>
<path d="M283,336v 10" fill="none" stroke="black"/>
<path d="M299,341v 5" fill="none" stroke="black"/>
<path d="M314,341v 5" fill="none" stroke="black"/>
<path d="M329,341v 5" fill="none" stroke="black"/>
<path d="M344,341v 5" fill="none" stroke="black"/>
<path d="M359,336v 10" fill="none" stroke="black"/>
<path d="M374,341v 5" fill="none" stroke="black"/>
<path d="M389,341v 5" fill="none" stroke="black"/>
<path d="M404,341v 5" fill="none" stroke="black"/>
<path d="M420,341v 5" fill="none" stroke="black"/>
<path d="M435,336v 10" fill="none" stroke="black"/>
<path d="M450,341v 5" fill="none" stroke="black"/>
<path d="M465,341v 5" fill="none" stroke="black"/>
<path d="M480,341v 5" fill="none" stroke="black"/>
<path d="M495,341v 5" fill="none" stroke="black"/>
<path d="M510,336v 10" fill="none" stroke="black"/>
<text x="53" y="358" fill="black" font-size="12" font-family="Helvetica">
0
</text>
<text x="121" y="358" fill="black" font-size="12" font-family="Helvetica">
500
</text>
<text x="194" y="358" fill="black" font-size="12" font-family="Helvetica">
1000
</text>
<text x="270" y="358" fill="black" font-size="12" font-family="Helvetica">
1500
</text>
<text x="345" y="358" fill="black" font-size="12" font-family="Helvetica">
2000
</text>
<text x="420" y="358" fill="black" font-size="12" font-family="Helvetica">
2500
</text>
<text x="496" y="358" fill="black" font-size="12" font-family="Helvetica">
3000
</text>
<path d="M57,346v -308" fill="none" stroke="black"/>
<g transform="rotate(-90,29,70)">
<text x="29" y="70" fill="black" font-size="12" font-family="Helvetica">
Count
</text>
</g>
<path d="M63,346h -6" fill="none" stroke="black"/>
<path d="M63,341h -6" fill="none" stroke="black"/>
<path d="M63,336h -6" fill="none" stroke="black"/>
<path d="M63,333h -6" fill="none" stroke="black"/>
<path d="M63,329h -6" fill="none" stroke="black"/>
<path d="M70,326h -13" fill="none" stroke="black"/>
<text x="52" y="332" text-anchor="end" fill="black" font-size="12" font-family="Helvetica">
1
</text>
<path d="M63,307h -6" fill="none" stroke="black"/>
<path d="M63,296h -6" fill="none" stroke="black"/>
<path d="M63,288h -6" fill="none" stroke="black"/>
<path d="M63,282h -6" fill="none" stroke="black"/>
<path d="M63,277h -6" fill="none" stroke="black"/>
<path d="M63,273h -6" fill="none" stroke="black"/>
<path d="M63,269h -6" fill="none" stroke="black"/>
<path d="M63,266h -6" fill="none" stroke="black"/>
<path d="M70,263h -13" fill="none" stroke="black"/>
<text x="52" y="269" text-anchor="end" fill="black" font-size="12" font-family="Helvetica">
10
</text>
<path d="M63,244h -6" fill="none" stroke="black"/>
<path d="M63,233h -6" fill="none" stroke="black"/>
<path d="M63,225h -6" fill="none" stroke="black"/>
<path d="M63,218h -6" fill="none" stroke="black"/>
<path d="M63,213h -6" fill="none" stroke="black"/>
<path d="M63,209h -6" fill="none" stroke="black"/>
<path d="M63,205h -6" fill="none" stroke="black"/>
<path d="M63,202h -6" fill="none" stroke="black"/>
<path d="M70,199h -13" fill="none" stroke="black"/>
<text x="47" y="200" fill="black" font-size="8" font-family="Helvetica">
2
</text>
<text x="33" y="205" fill="black" font-size="12" font-family="Helvetica">
10
</text>
<path d="M63,180h -6" fill="none" stroke="black"/>
<path d="M63,169h -6" fill="none" stroke="black"/>
<path d="M63,161h -6" fill="none" stroke="black"/>
<path d="M63,155h -6" fill="none" stroke="black"/>
<path d="M63,150h -6" fill="none" stroke="black"/>
<path d="M63,146h -6" fill="none" stroke="black"/>
<path d="M63,142h -6" fill="none" stroke="black"/>
<path d="M63,139h -6" fill="none" stroke="black"/>
<path d="M70,136h -13" fill="none" stroke="black"/>
<text x="47" y="136" fill="black" font-size="8" font-family="Helvetica">
3
</text>
<text x="33" y="141" fill="black" font-size="12" font-family="Helvetica">
10
</text>
<path d="M63,117h -6" fill="none" stroke="black"/>
<path d="M63,105h -6" fill="none" stroke="black"/>
<path d="M63,98h -6" fill="none" stroke="black"/>
<path d="M63,91h -6" fill="none" stroke="black"/>
<path d="M63,86h -6" fill="none" stroke="black"/>
<path d="M63,82h -6" fill="none" stroke="black"/>
<path d="M63,78h -6" fill="none" stroke="black"/>
<path d="M63,75h -6" fill="none" stroke="black"/>
<path d="M70,72h -13" fill="none" stroke="black"/>
<text x="47" y="73" fill="black" font-size="8" font-family="Helvetica">
4
</text>
<text x="33" y="78" fill="black" font-size="12" font-family="Helvetica">
10
</text>
<path d="M63,53h -6" fill="none" stroke="black"/>
<path d="M63,42h -6" fill="none" stroke="black"/>
<rect x="340" y="38" width="170" height="77" fill="white"/>
<path d="M340,115h 170" fill="none" stroke="black"/>
<path d="M510,115v -77" fill="none" stroke="black"/>
<path d="M510,38h -170" fill="none" stroke="black"/>
<path d="M340,38v 77" fill="none" stroke="black"/>
<text x="349" y="56" fill="black" font-size="14" font-family="Helvetica">
Entries 
</text>
<text x="448" y="56" fill="black" font-size="14" font-family="Helvetica">
 294637
</text>
<text x="349" y="82" fill="black" font-size="14" font-family="Helvetica">
Mean  
</text>
<text x="452" y="82" fill="black" font-size="14" font-family="Helvetica">
 0.1673
</text>
<text x="444" y="82" fill="black" font-size="14" font-family="Times">
&#0177;
</text>
<text x="397" y="82" fill="black" font-size="14" font-family="Helvetica">
  56.61 
</text>
<text x="349" y="107" fill="black" font-size="14" font-family="Helvetica">
RMS   
</text>
<text x="452" y="107" fill="black" font-size="14" font-family="Helvetica">
 0.1183
</text>
<text x="444" y="107" fill="black" font-size="14" font-family="Times">
&#0177;
</text>
<text x="394" y="107" fill="black" font-size="14" font-family="Helvetica">
  90.79 
</text>
<text x="102" y="17" fill="black" font-size="16" font-family="Helvetica">
Detected photon counts at all scintillators (no cuts)
</text></svg>
