<?xml version="1.0" standalone="no"?>
<svg width="567" height="328" viewBox="0 0 567 328" xmlns="http://www.w3.org/2000/svg">
<title>
measured_1d_charged_flux.svg
</title>
<desc>
Creator: ROOT Version 5.34/09
CreationDate: Mon Dec  2 21:12:31 2013</desc>
<defs>
</defs>
<rect x="0" y="0" width="567" height="328" fill="white"/>
<rect x="57" y="33" width="453" height="262" fill="white"/>
<rect x="57" y="33" width="453" height="262" fill="none" stroke="black"/>
<rect x="57" y="33" width="453" height="262" fill="white"/>
<rect x="57" y="33" width="453" height="262" fill="none" stroke="black"/>
<path d="M57,295h 453" fill="none" stroke="black"/>
<text x="407" y="317" fill="black" font-size="11" font-family="Helvetica">
Vertical position (mm)
</text>
<path d="M112,287v 8" fill="none" stroke="black"/>
<path d="M124,291v 4" fill="none" stroke="black"/>
<path d="M135,291v 4" fill="none" stroke="black"/>
<path d="M146,291v 4" fill="none" stroke="black"/>
<path d="M158,291v 4" fill="none" stroke="black"/>
<path d="M169,287v 8" fill="none" stroke="black"/>
<path d="M181,291v 4" fill="none" stroke="black"/>
<path d="M192,291v 4" fill="none" stroke="black"/>
<path d="M204,291v 4" fill="none" stroke="black"/>
<path d="M215,291v 4" fill="none" stroke="black"/>
<path d="M226,287v 8" fill="none" stroke="black"/>
<path d="M238,291v 4" fill="none" stroke="black"/>
<path d="M249,291v 4" fill="none" stroke="black"/>
<path d="M261,291v 4" fill="none" stroke="black"/>
<path d="M272,291v 4" fill="none" stroke="black"/>
<path d="M283,287v 8" fill="none" stroke="black"/>
<path d="M295,291v 4" fill="none" stroke="black"/>
<path d="M306,291v 4" fill="none" stroke="black"/>
<path d="M318,291v 4" fill="none" stroke="black"/>
<path d="M329,291v 4" fill="none" stroke="black"/>
<path d="M341,287v 8" fill="none" stroke="black"/>
<path d="M352,291v 4" fill="none" stroke="black"/>
<path d="M363,291v 4" fill="none" stroke="black"/>
<path d="M375,291v 4" fill="none" stroke="black"/>
<path d="M386,291v 4" fill="none" stroke="black"/>
<path d="M398,287v 8" fill="none" stroke="black"/>
<path d="M409,291v 4" fill="none" stroke="black"/>
<path d="M420,291v 4" fill="none" stroke="black"/>
<path d="M432,291v 4" fill="none" stroke="black"/>
<path d="M443,291v 4" fill="none" stroke="black"/>
<path d="M455,287v 8" fill="none" stroke="black"/>
<path d="M112,287v 8" fill="none" stroke="black"/>
<path d="M101,291v 4" fill="none" stroke="black"/>
<path d="M89,291v 4" fill="none" stroke="black"/>
<path d="M78,291v 4" fill="none" stroke="black"/>
<path d="M67,291v 4" fill="none" stroke="black"/>
<path d="M455,287v 8" fill="none" stroke="black"/>
<path d="M466,291v 4" fill="none" stroke="black"/>
<path d="M478,291v 4" fill="none" stroke="black"/>
<path d="M489,291v 4" fill="none" stroke="black"/>
<path d="M500,291v 4" fill="none" stroke="black"/>
<text x="101" y="306" fill="black" font-size="11" font-family="Helvetica">
-150
</text>
<text x="158" y="306" fill="black" font-size="11" font-family="Helvetica">
-100
</text>
<text x="219" y="306" fill="black" font-size="11" font-family="Helvetica">
-50
</text>
<text x="281" y="306" fill="black" font-size="11" font-family="Helvetica">
0
</text>
<text x="335" y="306" fill="black" font-size="11" font-family="Helvetica">
50
</text>
<text x="389" y="306" fill="black" font-size="11" font-family="Helvetica">
100
</text>
<text x="446" y="306" fill="black" font-size="11" font-family="Helvetica">
150
</text>
<path d="M57,295v -262" fill="none" stroke="black"/>
<g transform="rotate(-90,29,35)">
<text x="29" y="35" fill="black" font-size="11" font-family="Helvetica">
)
</text>
</g>
<g transform="rotate(-90,24,41)">
<text x="24" y="41" fill="black" font-size="7" font-family="Helvetica">
-1
</text>
</g>
<g transform="rotate(-90,29,160)">
<text x="29" y="160" fill="black" font-size="11" font-family="Helvetica">
Charged particle rate (nA
</text>
</g>
<path d="M70,295h -13" fill="none" stroke="black"/>
<path d="M63,290h -6" fill="none" stroke="black"/>
<path d="M63,285h -6" fill="none" stroke="black"/>
<path d="M63,279h -6" fill="none" stroke="black"/>
<path d="M63,274h -6" fill="none" stroke="black"/>
<path d="M70,269h -13" fill="none" stroke="black"/>
<path d="M63,264h -6" fill="none" stroke="black"/>
<path d="M63,259h -6" fill="none" stroke="black"/>
<path d="M63,253h -6" fill="none" stroke="black"/>
<path d="M63,248h -6" fill="none" stroke="black"/>
<path d="M70,243h -13" fill="none" stroke="black"/>
<path d="M63,238h -6" fill="none" stroke="black"/>
<path d="M63,232h -6" fill="none" stroke="black"/>
<path d="M63,227h -6" fill="none" stroke="black"/>
<path d="M63,222h -6" fill="none" stroke="black"/>
<path d="M70,217h -13" fill="none" stroke="black"/>
<path d="M63,211h -6" fill="none" stroke="black"/>
<path d="M63,206h -6" fill="none" stroke="black"/>
<path d="M63,201h -6" fill="none" stroke="black"/>
<path d="M63,196h -6" fill="none" stroke="black"/>
<path d="M70,190h -13" fill="none" stroke="black"/>
<path d="M63,185h -6" fill="none" stroke="black"/>
<path d="M63,180h -6" fill="none" stroke="black"/>
<path d="M63,175h -6" fill="none" stroke="black"/>
<path d="M63,169h -6" fill="none" stroke="black"/>
<path d="M70,164h -13" fill="none" stroke="black"/>
<path d="M63,159h -6" fill="none" stroke="black"/>
<path d="M63,154h -6" fill="none" stroke="black"/>
<path d="M63,148h -6" fill="none" stroke="black"/>
<path d="M63,143h -6" fill="none" stroke="black"/>
<path d="M70,138h -13" fill="none" stroke="black"/>
<path d="M63,133h -6" fill="none" stroke="black"/>
<path d="M63,127h -6" fill="none" stroke="black"/>
<path d="M63,122h -6" fill="none" stroke="black"/>
<path d="M63,117h -6" fill="none" stroke="black"/>
<path d="M70,112h -13" fill="none" stroke="black"/>
<path d="M63,106h -6" fill="none" stroke="black"/>
<path d="M63,101h -6" fill="none" stroke="black"/>
<path d="M63,96h -6" fill="none" stroke="black"/>
<path d="M63,91h -6" fill="none" stroke="black"/>
<path d="M70,85h -13" fill="none" stroke="black"/>
<path d="M63,80h -6" fill="none" stroke="black"/>
<path d="M63,75h -6" fill="none" stroke="black"/>
<path d="M63,70h -6" fill="none" stroke="black"/>
<path d="M63,64h -6" fill="none" stroke="black"/>
<path d="M70,59h -13" fill="none" stroke="black"/>
<path d="M63,54h -6" fill="none" stroke="black"/>
<path d="M63,49h -6" fill="none" stroke="black"/>
<path d="M63,43h -6" fill="none" stroke="black"/>
<path d="M63,38h -6" fill="none" stroke="black"/>
<path d="M70,33h -13" fill="none" stroke="black"/>
<text x="48" y="299" fill="black" font-size="11" font-family="Helvetica">
0
</text>
<text x="42" y="273" fill="black" font-size="11" font-family="Helvetica">
10
</text>
<text x="42" y="246" fill="black" font-size="11" font-family="Helvetica">
20
</text>
<text x="42" y="220" fill="black" font-size="11" font-family="Helvetica">
30
</text>
<text x="42" y="194" fill="black" font-size="11" font-family="Helvetica">
40
</text>
<text x="42" y="168" fill="black" font-size="11" font-family="Helvetica">
50
</text>
<text x="42" y="142" fill="black" font-size="11" font-family="Helvetica">
60
</text>
<text x="42" y="115" fill="black" font-size="11" font-family="Helvetica">
70
</text>
<text x="42" y="89" fill="black" font-size="11" font-family="Helvetica">
80
</text>
<text x="42" y="63" fill="black" font-size="11" font-family="Helvetica">
90
</text>
<text x="36" y="37" fill="black" font-size="11" font-family="Helvetica">
100
</text>
<text x="74" y="26" fill="black" font-size="7" font-family="Helvetica">
3
</text>
<text x="63" y="31" fill="black" font-size="11" font-family="Helvetica">
10
</text>
<text x="57" y="31" fill="black" font-size="11" font-family="Times">
&#0215;
</text>
<g stroke="black" stroke-width="1" fill="none">
<line x1="282" y1="106" x2="283" y2="106"/>
<line x1="225" y1="172" x2="226" y2="172"/>
<line x1="112" y1="254" x2="113" y2="254"/>
<line x1="111" y1="249" x2="112" y2="249"/>
<line x1="340" y1="61" x2="341" y2="61"/>
<line x1="339" y1="53" x2="340" y2="53"/>
<line x1="454" y1="149" x2="455" y2="149"/>
<line x1="453" y1="141" x2="454" y2="141"/>
<line x1="283" y1="110" x2="284" y2="110"/>
</g>
<path d="M283,106h -17" fill="none" stroke="black"/>
<path d="M266,107v -2" fill="none" stroke="black"/>
<path d="M283,106h 17" fill="none" stroke="black"/>
<path d="M300,107v -2" fill="none" stroke="black"/>
<path d="M283,106v -10" fill="none" stroke="black"/>
<path d="M282,96h 2" fill="none" stroke="black"/>
<path d="M283,106v 9" fill="none" stroke="black"/>
<path d="M282,115h 2" fill="none" stroke="black"/>
<path d="M226,172h -17" fill="none" stroke="black"/>
<path d="M209,173v -2" fill="none" stroke="black"/>
<path d="M226,172h 17" fill="none" stroke="black"/>
<path d="M243,173v -2" fill="none" stroke="black"/>
<path d="M226,172v -6" fill="none" stroke="black"/>
<path d="M226,166h 1" fill="none" stroke="black"/>
<path d="M226,172v 6" fill="none" stroke="black"/>
<path d="M226,178h 1" fill="none" stroke="black"/>
<path d="M113,254h -17" fill="none" stroke="black"/>
<path d="M96,255v -2" fill="none" stroke="black"/>
<path d="M113,254h 17" fill="none" stroke="black"/>
<path d="M130,255v -2" fill="none" stroke="black"/>
<path d="M113,254v -2" fill="none" stroke="black"/>
<path d="M112,252h 2" fill="none" stroke="black"/>
<path d="M113,254v 2" fill="none" stroke="black"/>
<path d="M112,256h 2" fill="none" stroke="black"/>
<path d="M112,249h -18" fill="none" stroke="black"/>
<path d="M94,249v -1" fill="none" stroke="black"/>
<path d="M112,249h 17" fill="none" stroke="black"/>
<path d="M129,249v -1" fill="none" stroke="black"/>
<path d="M112,249v -3" fill="none" stroke="black"/>
<path d="M111,246h 1" fill="none" stroke="black"/>
<path d="M112,249v 2" fill="none" stroke="black"/>
<path d="M111,251h 1" fill="none" stroke="black"/>
<path d="M341,61h -17" fill="none" stroke="black"/>
<path d="M324,62v -2" fill="none" stroke="black"/>
<path d="M341,61h 17" fill="none" stroke="black"/>
<path d="M358,62v -2" fill="none" stroke="black"/>
<path d="M341,61v -12" fill="none" stroke="black"/>
<path d="M340,49h 2" fill="none" stroke="black"/>
<path d="M341,61v 12" fill="none" stroke="black"/>
<path d="M340,73h 2" fill="none" stroke="black"/>
<path d="M340,53h -17" fill="none" stroke="black"/>
<path d="M323,54v -1" fill="none" stroke="black"/>
<path d="M340,53h 17" fill="none" stroke="black"/>
<path d="M357,54v -1" fill="none" stroke="black"/>
<path d="M340,53v -13" fill="none" stroke="black"/>
<path d="M339,40h 2" fill="none" stroke="black"/>
<path d="M340,53v 14" fill="none" stroke="black"/>
<path d="M339,67h 2" fill="none" stroke="black"/>
<path d="M455,149h -17" fill="none" stroke="black"/>
<path d="M438,150v -1" fill="none" stroke="black"/>
<path d="M455,149h 17" fill="none" stroke="black"/>
<path d="M472,150v -1" fill="none" stroke="black"/>
<path d="M455,149v -7" fill="none" stroke="black"/>
<path d="M455,142h 1" fill="none" stroke="black"/>
<path d="M455,149v 8" fill="none" stroke="black"/>
<path d="M455,157h 1" fill="none" stroke="black"/>
<path d="M454,141h -17" fill="none" stroke="black"/>
<path d="M437,142v -2" fill="none" stroke="black"/>
<path d="M454,141h 17" fill="none" stroke="black"/>
<path d="M471,142v -2" fill="none" stroke="black"/>
<path d="M454,141v -8" fill="none" stroke="black"/>
<path d="M453,133h 2" fill="none" stroke="black"/>
<path d="M454,141v 8" fill="none" stroke="black"/>
<path d="M453,149h 2" fill="none" stroke="black"/>
<path d="M284,110h -17" fill="none" stroke="black"/>
<path d="M267,111v -2" fill="none" stroke="black"/>
<path d="M284,110h 17" fill="none" stroke="black"/>
<path d="M301,111v -2" fill="none" stroke="black"/>
<path d="M284,110v -9" fill="none" stroke="black"/>
<path d="M283,101h 2" fill="none" stroke="black"/>
<path d="M284,110v 10" fill="none" stroke="black"/>
<path d="M283,120h 2" fill="none" stroke="black"/>
<text x="157" y="16" fill="black" font-size="16" font-family="Helvetica">
Measured charged particle rate (1D)
</text></svg>
