<?xml version="1.0" standalone="no"?>
<svg width="567" height="328" viewBox="0 0 567 328" xmlns="http://www.w3.org/2000/svg">
<title>
measured_2d_charged_flux.svg
</title>
<desc>
Creator: ROOT Version 5.34/14
CreationDate: Mon Feb  3 00:11:58 2014</desc>
<defs>
</defs>
<rect x="0" y="0" width="567" height="328" fill="white"/>
<path d="M57,214l 287, -42" fill="none" stroke="black" stroke-dasharray=" 1, 2"/>
<path d="M57,196l 287, -42" fill="none" stroke="black" stroke-dasharray=" 1, 2"/>
<path d="M57,179l 287, -42" fill="none" stroke="black" stroke-dasharray=" 1, 2"/>
<path d="M57,162l 287, -43" fill="none" stroke="black" stroke-dasharray=" 1, 2"/>
<path d="M57,144l 287, -42" fill="none" stroke="black" stroke-dasharray=" 1, 2"/>
<path d="M57,127l 287, -42" fill="none" stroke="black" stroke-dasharray=" 1, 2"/>
<path d="M57,110l 287, -43" fill="none" stroke="black" stroke-dasharray=" 1, 2"/>
<path d="M57,92l 287, -42" fill="none" stroke="black" stroke-dasharray=" 1, 2"/>
<path d="M57,222l 287, -42" fill="none" stroke="black"/>
<path d="M344,180v -147" fill="none" stroke="black"/>
<path d="M57,75l 287, -42" fill="none" stroke="black"/>
<path d="M57,222v -147" fill="none" stroke="black"/>
<path d="M344,172l 166, 73" fill="none" stroke="black" stroke-dasharray=" 1, 2"/>
<path d="M344,154l 166, 73" fill="none" stroke="black" stroke-dasharray=" 1, 2"/>
<path d="M344,137l 166, 73" fill="none" stroke="black" stroke-dasharray=" 1, 2"/>
<path d="M344,119l 166, 74" fill="none" stroke="black" stroke-dasharray=" 1, 2"/>
<path d="M344,102l 166, 73" fill="none" stroke="black" stroke-dasharray=" 1, 2"/>
<path d="M344,85l 166, 73" fill="none" stroke="black" stroke-dasharray=" 1, 2"/>
<path d="M344,67l 166, 74" fill="none" stroke="black" stroke-dasharray=" 1, 2"/>
<path d="M344,50l 166, 73" fill="none" stroke="black" stroke-dasharray=" 1, 2"/>
<path d="M344,180l 166, 73" fill="none" stroke="black"/>
<path d="M510,253v -147" fill="none" stroke="black"/>
<path d="M344,33l 166, 73" fill="none" stroke="black"/>
<path d="M344,180z" fill="none" stroke="black"/>
<path d="M274,181l 50, -7" fill="none" stroke="black"/>
<path d="M311,183l -24, -11" fill="none" stroke="black"/>
<path d="M299,195v -35" fill="none" stroke="black"/>
<path d="M86,101l 49, -7" fill="none" stroke="black"/>
<path d="M123,103l -24, -11" fill="none" stroke="black"/>
<path d="M111,127v -42" fill="none" stroke="black"/>
<path d="M211,278l 49, -7" fill="none" stroke="black"/>
<path d="M247,280l -24, -11" fill="none" stroke="black"/>
<path d="M235,280v -11" fill="none" stroke="black"/>
<path d="M155,205l 49, -7" fill="none" stroke="black"/>
<path d="M192,207l -24, -11" fill="none" stroke="black"/>
<path d="M180,214v -25" fill="none" stroke="black"/>
<path d="M394,203l 49, -7" fill="none" stroke="black"/>
<path d="M430,205l -24, -11" fill="none" stroke="black"/>
<path d="M418,207v -15" fill="none" stroke="black"/>
<path d="M325,129l 49, -7" fill="none" stroke="black"/>
<path d="M361,131l -24, -11" fill="none" stroke="black"/>
<path d="M349,140v -28" fill="none" stroke="black"/>
<path d="M449,255l 49, -7" fill="none" stroke="black"/>
<path d="M486,257l -25, -11" fill="none" stroke="black"/>
<path d="M474,251v -4" fill="none" stroke="black"/>
<path d="M330,257l 49, -7" fill="none" stroke="black"/>
<path d="M366,259l -24, -11" fill="none" stroke="black"/>
<path d="M354,260v -12" fill="none" stroke="black"/>
<path d="M205,96l 49, -8" fill="none" stroke="black"/>
<path d="M242,97l -24, -10" fill="none" stroke="black"/>
<path d="M230,115v -46" fill="none" stroke="black"/>
<path d="M274,199l 50, -7" fill="none" stroke="black"/>
<path d="M311,201l -24, -11" fill="none" stroke="black"/>
<path d="M299,207v -23" fill="none" stroke="black"/>
<path d="M188,119l 49, -8" fill="none" stroke="black"/>
<path d="M225,120l -25, -10" fill="none" stroke="black"/>
<path d="M213,151v -71" fill="none" stroke="black"/>
<path d="M69,81l 49, -8" fill="none" stroke="black"/>
<path d="M105,82l -24, -10" fill="none" stroke="black"/>
<path d="M93,129v -52" fill="none" stroke="black"/>
<path d="M205,96l 49, -8" fill="none" stroke="black"/>
<path d="M242,97l -24, -10" fill="none" stroke="black"/>
<path d="M230,133v -66" fill="none" stroke="black"/>
<g stroke="#00ff84" stroke-width="1" fill="#00ff84">
<circle cx="299" cy="177" r="5"/>
</g>
<g stroke="#ff7700" stroke-width="1" fill="#ff7700">
<circle cx="111" cy="97" r="5"/>
</g>
<g stroke="#4a00ff" stroke-width="1" fill="#4a00ff">
<circle cx="235" cy="275" r="5"/>
</g>
<g stroke="#00ffb4" stroke-width="1" fill="#00ffb4">
<circle cx="180" cy="202" r="5"/>
</g>
<g stroke="#0044ff" stroke-width="1" fill="#0044ff">
<circle cx="418" cy="199" r="5"/>
</g>
<g stroke="#00ff6c" stroke-width="1" fill="#00ff6c">
<circle cx="349" cy="126" r="5"/>
</g>
<g stroke="#9200ff" stroke-width="1" fill="#9200ff">
<circle cx="474" cy="251" r="5"/>
</g>
<g stroke="#3300ff" stroke-width="1" fill="#3300ff">
<circle cx="354" cy="254" r="5"/>
</g>
<g stroke="#ffd600" stroke-width="1" fill="#ffd600">
<circle cx="230" cy="92" r="5"/>
</g>
<g stroke="#00eaff" stroke-width="1" fill="#00eaff">
<circle cx="299" cy="195" r="5"/>
</g>
<g stroke="#39ff00" stroke-width="1" fill="#39ff00">
<circle cx="213" cy="115" r="5"/>
</g>
<g stroke="#ff0000" stroke-width="1" fill="#ff0000">
<circle cx="93" cy="77" r="5"/>
</g>
<g stroke="#ffd600" stroke-width="1" fill="#ffd600">
<circle cx="230" cy="92" r="5"/>
</g>
<path d="M223,295l 287, -42" fill="none" stroke="black"/>
<g transform="rotate(-8,407,296)">
<text x="407" y="296" fill="black" font-size="11" font-family="Helvetica">
Horizontal position (mm)
</text>
</g>
<path d="M228,300l -2, -5" fill="none" stroke="black"/>
<path d="M234,296l -1, -2" fill="none" stroke="black"/>
<path d="M241,295l -1, -2" fill="none" stroke="black"/>
<path d="M248,294l -1, -2" fill="none" stroke="black"/>
<path d="M255,293l -1, -2" fill="none" stroke="black"/>
<path d="M263,295l -2, -5" fill="none" stroke="black"/>
<path d="M269,291l -1, -2" fill="none" stroke="black"/>
<path d="M276,290l -1, -3" fill="none" stroke="black"/>
<path d="M283,289l -1, -3" fill="none" stroke="black"/>
<path d="M290,288l -1, -3" fill="none" stroke="black"/>
<path d="M299,289l -3, -5" fill="none" stroke="black"/>
<path d="M304,286l -1, -3" fill="none" stroke="black"/>
<path d="M311,285l -1, -3" fill="none" stroke="black"/>
<path d="M318,284l -1, -3" fill="none" stroke="black"/>
<path d="M325,283l -1, -3" fill="none" stroke="black"/>
<path d="M334,284l -3, -5" fill="none" stroke="black"/>
<path d="M340,281l -2, -3" fill="none" stroke="black"/>
<path d="M347,280l -2, -3" fill="none" stroke="black"/>
<path d="M354,279l -2, -3" fill="none" stroke="black"/>
<path d="M361,278l -2, -3" fill="none" stroke="black"/>
<path d="M369,279l -3, -5" fill="none" stroke="black"/>
<path d="M375,276l -2, -3" fill="none" stroke="black"/>
<path d="M382,274l -2, -2" fill="none" stroke="black"/>
<path d="M389,273l -1, -2" fill="none" stroke="black"/>
<path d="M396,272l -1, -2" fill="none" stroke="black"/>
<path d="M404,274l -2, -5" fill="none" stroke="black"/>
<path d="M410,270l -1, -2" fill="none" stroke="black"/>
<path d="M417,269l -1, -2" fill="none" stroke="black"/>
<path d="M424,268l -1, -2" fill="none" stroke="black"/>
<path d="M431,267l -1, -2" fill="none" stroke="black"/>
<path d="M439,269l -2, -5" fill="none" stroke="black"/>
<path d="M445,265l -1, -2" fill="none" stroke="black"/>
<path d="M452,264l -1, -2" fill="none" stroke="black"/>
<path d="M459,263l -1, -2" fill="none" stroke="black"/>
<path d="M466,262l -1, -2" fill="none" stroke="black"/>
<path d="M474,264l -2, -5" fill="none" stroke="black"/>
<path d="M480,260l -1, -2" fill="none" stroke="black"/>
<path d="M487,259l -1, -2" fill="none" stroke="black"/>
<path d="M494,258l -1, -3" fill="none" stroke="black"/>
<path d="M501,257l -1, -3" fill="none" stroke="black"/>
<path d="M509,258l -2, -5" fill="none" stroke="black"/>
<path d="M228,300l -2, -5" fill="none" stroke="black"/>
<path d="M509,258l -2, -5" fill="none" stroke="black"/>
<text x="220" y="309" fill="black" font-size="11" font-family="Helvetica">
-200
</text>
<text x="255" y="304" fill="black" font-size="11" font-family="Helvetica">
-150
</text>
<text x="290" y="299" fill="black" font-size="11" font-family="Helvetica">
-100
</text>
<text x="329" y="294" fill="black" font-size="11" font-family="Helvetica">
-50
</text>
<text x="369" y="289" fill="black" font-size="11" font-family="Helvetica">
0
</text>
<text x="400" y="284" fill="black" font-size="11" font-family="Helvetica">
50
</text>
<text x="433" y="279" fill="black" font-size="11" font-family="Helvetica">
100
</text>
<text x="468" y="273" fill="black" font-size="11" font-family="Helvetica">
150
</text>
<text x="503" y="268" fill="black" font-size="11" font-family="Helvetica">
200
</text>
<path d="M223,295l -166, -73" fill="none" stroke="black"/>
<g transform="rotate(23,26,246)">
<text x="26" y="246" fill="black" font-size="11" font-family="Helvetica">
Vertical position (mm)
</text>
</g>
<path d="M203,291l 4, -3" fill="none" stroke="black"/>
<path d="M202,288l 2, -1" fill="none" stroke="black"/>
<path d="M198,287l 2, -2" fill="none" stroke="black"/>
<path d="M195,285l 2, -1" fill="none" stroke="black"/>
<path d="M191,284l 2, -2" fill="none" stroke="black"/>
<path d="M186,284l 4, -3" fill="none" stroke="black"/>
<path d="M184,281l 2, -2" fill="none" stroke="black"/>
<path d="M181,279l 2, -1" fill="none" stroke="black"/>
<path d="M178,278l 1, -2" fill="none" stroke="black"/>
<path d="M174,276l 2, -1" fill="none" stroke="black"/>
<path d="M169,276l 4, -3" fill="none" stroke="black"/>
<path d="M167,273l 2, -1" fill="none" stroke="black"/>
<path d="M164,271l 2, -1" fill="none" stroke="black"/>
<path d="M160,270l 2, -2" fill="none" stroke="black"/>
<path d="M157,268l 2, -1" fill="none" stroke="black"/>
<path d="M151,268l 4, -3" fill="none" stroke="black"/>
<path d="M150,265l 2, -1" fill="none" stroke="black"/>
<path d="M146,264l 2, -2" fill="none" stroke="black"/>
<path d="M143,262l 2, -1" fill="none" stroke="black"/>
<path d="M140,261l 1, -2" fill="none" stroke="black"/>
<path d="M134,261l 4, -3" fill="none" stroke="black"/>
<path d="M133,258l 2, -2" fill="none" stroke="black"/>
<path d="M129,256l 2, -1" fill="none" stroke="black"/>
<path d="M126,255l 2, -2" fill="none" stroke="black"/>
<path d="M122,253l 2, -1" fill="none" stroke="black"/>
<path d="M117,253l 4, -3" fill="none" stroke="black"/>
<path d="M115,250l 2, -1" fill="none" stroke="black"/>
<path d="M112,249l 2, -2" fill="none" stroke="black"/>
<path d="M108,247l 2, -1" fill="none" stroke="black"/>
<path d="M105,245l 2, -1" fill="none" stroke="black"/>
<path d="M100,245l 3, -2" fill="none" stroke="black"/>
<path d="M98,242l 2, -1" fill="none" stroke="black"/>
<path d="M95,241l 1, -2" fill="none" stroke="black"/>
<path d="M91,239l 2, -1" fill="none" stroke="black"/>
<path d="M88,238l 2, -2" fill="none" stroke="black"/>
<path d="M82,238l 4, -3" fill="none" stroke="black"/>
<path d="M81,235l 2, -2" fill="none" stroke="black"/>
<path d="M77,233l 2, -1" fill="none" stroke="black"/>
<path d="M74,232l 2, -2" fill="none" stroke="black"/>
<path d="M70,230l 2, -1" fill="none" stroke="black"/>
<path d="M65,230l 4, -3" fill="none" stroke="black"/>
<path d="M203,291l 4, -3" fill="none" stroke="black"/>
<path d="M209,291l 2, -1" fill="none" stroke="black"/>
<path d="M212,293l 2, -2" fill="none" stroke="black"/>
<path d="M216,294l 2, -1" fill="none" stroke="black"/>
<path d="M219,296l 2, -2" fill="none" stroke="black"/>
<path d="M65,230l 4, -3" fill="none" stroke="black"/>
<path d="M63,227l 2, -1" fill="none" stroke="black"/>
<path d="M60,226l 2, -2" fill="none" stroke="black"/>
<path d="M57,224l 1, -1" fill="none" stroke="black"/>
<text x="174" y="301" fill="black" font-size="11" font-family="Helvetica">
-150
</text>
<text x="157" y="294" fill="black" font-size="11" font-family="Helvetica">
-100
</text>
<text x="145" y="286" fill="black" font-size="11" font-family="Helvetica">
-50
</text>
<text x="137" y="279" fill="black" font-size="11" font-family="Helvetica">
0
</text>
<text x="114" y="271" fill="black" font-size="11" font-family="Helvetica">
50
</text>
<text x="91" y="263" fill="black" font-size="11" font-family="Helvetica">
100
</text>
<text x="74" y="256" fill="black" font-size="11" font-family="Helvetica">
150
</text>
<text x="57" y="248" fill="black" font-size="11" font-family="Helvetica">
200
</text>
<text x="39" y="240" fill="black" font-size="11" font-family="Helvetica">
250
</text>
<path d="M57,222v -147" fill="none" stroke="black"/>
<g transform="rotate(-90,13,78)">
<text x="13" y="78" fill="black" font-size="11" font-family="Helvetica">
)
</text>
</g>
<g transform="rotate(-90,8,83)">
<text x="8" y="83" fill="black" font-size="7" font-family="Helvetica">
-1
</text>
</g>
<g transform="rotate(-90,13,202)">
<text x="13" y="202" fill="black" font-size="11" font-family="Helvetica">
Charged particle rate (nA
</text>
</g>
<path d="M49,214h 8" fill="none" stroke="black"/>
<path d="M53,210h 4" fill="none" stroke="black"/>
<path d="M53,207h 4" fill="none" stroke="black"/>
<path d="M53,203h 4" fill="none" stroke="black"/>
<path d="M53,200h 4" fill="none" stroke="black"/>
<path d="M49,196h 8" fill="none" stroke="black"/>
<path d="M53,193h 4" fill="none" stroke="black"/>
<path d="M53,190h 4" fill="none" stroke="black"/>
<path d="M53,186h 4" fill="none" stroke="black"/>
<path d="M53,183h 4" fill="none" stroke="black"/>
<path d="M49,179h 8" fill="none" stroke="black"/>
<path d="M53,176h 4" fill="none" stroke="black"/>
<path d="M53,172h 4" fill="none" stroke="black"/>
<path d="M53,169h 4" fill="none" stroke="black"/>
<path d="M53,165h 4" fill="none" stroke="black"/>
<path d="M49,162h 8" fill="none" stroke="black"/>
<path d="M53,158h 4" fill="none" stroke="black"/>
<path d="M53,155h 4" fill="none" stroke="black"/>
<path d="M53,151h 4" fill="none" stroke="black"/>
<path d="M53,148h 4" fill="none" stroke="black"/>
<path d="M49,144h 8" fill="none" stroke="black"/>
<path d="M53,141h 4" fill="none" stroke="black"/>
<path d="M53,138h 4" fill="none" stroke="black"/>
<path d="M53,134h 4" fill="none" stroke="black"/>
<path d="M53,131h 4" fill="none" stroke="black"/>
<path d="M49,127h 8" fill="none" stroke="black"/>
<path d="M53,124h 4" fill="none" stroke="black"/>
<path d="M53,120h 4" fill="none" stroke="black"/>
<path d="M53,117h 4" fill="none" stroke="black"/>
<path d="M53,113h 4" fill="none" stroke="black"/>
<path d="M49,110h 8" fill="none" stroke="black"/>
<path d="M53,106h 4" fill="none" stroke="black"/>
<path d="M53,103h 4" fill="none" stroke="black"/>
<path d="M53,99h 4" fill="none" stroke="black"/>
<path d="M53,96h 4" fill="none" stroke="black"/>
<path d="M49,92h 8" fill="none" stroke="black"/>
<path d="M49,214h 8" fill="none" stroke="black"/>
<path d="M53,217h 4" fill="none" stroke="black"/>
<path d="M53,221h 4" fill="none" stroke="black"/>
<path d="M49,92h 8" fill="none" stroke="black"/>
<path d="M53,89h 4" fill="none" stroke="black"/>
<path d="M53,85h 4" fill="none" stroke="black"/>
<path d="M53,82h 4" fill="none" stroke="black"/>
<path d="M53,79h 4" fill="none" stroke="black"/>
<text x="24" y="218" fill="black" font-size="11" font-family="Helvetica">
2000
</text>
<text x="24" y="200" fill="black" font-size="11" font-family="Helvetica">
3000
</text>
<text x="24" y="183" fill="black" font-size="11" font-family="Helvetica">
4000
</text>
<text x="24" y="166" fill="black" font-size="11" font-family="Helvetica">
5000
</text>
<text x="24" y="148" fill="black" font-size="11" font-family="Helvetica">
6000
</text>
<text x="24" y="131" fill="black" font-size="11" font-family="Helvetica">
7000
</text>
<text x="24" y="113" fill="black" font-size="11" font-family="Helvetica">
8000
</text>
<text x="24" y="96" fill="black" font-size="11" font-family="Helvetica">
9000
</text>
<text x="155" y="16" fill="black" font-size="16" font-family="Helvetica">
Measured Charged particle rate (2D)
</text></svg>
