<?xml version="1.0" standalone="no"?>
<svg width="567" height="384" viewBox="0 0 567 384" xmlns="http://www.w3.org/2000/svg">
<title>
photon_counts.svg
</title>
<desc>
Creator: ROOT Version 5.34/14
CreationDate: Sun Feb  9 00:27:03 2014</desc>
<defs>
</defs>
<rect x="0" y="0" width="567" height="384" fill="white"/>
<rect x="57" y="38" width="453" height="308" fill="white"/>
<rect x="57" y="38" width="453" height="308" fill="none" stroke="black"/>
<rect x="57" y="38" width="453" height="308" fill="white"/>
<rect x="57" y="38" width="453" height="308" fill="none" stroke="black"/>
<path d="M57,346v -78h 1v 78v -78h 1v 78v -39h 1v -129v 51h 1v -31v 19v -10h 1v -78v 11h 1v 5v -13h 1v -28v 19v -2h 1v 6v -14v 2v -16h 1v 8v -14v 15h 1v -16v 12h 1v -18v 18h 1v -10h 1v 4v -11v 2h 1v -4v 6v -10h 1v -3v 27v -4h 1v -20h 1v 11h 1v 5v
 -12h 1v -6v 6v -11h 1v 10v -9v 11h 1v 13v -19v 13h 1v -10v 4h 1v 10v -9v 7h 1v -6v 2v -8h 1v 19v -9h 1v -8v 8h 1v -1v 20v -17h 1v -8v 7v -8h 1v 15v -3h 1v -12v 19h 1v -16v 23v -24h 1v 27v -22h 1v -2v 28v -15h 1v -2v 30h 1v -19v 16h 1v -21v 5v -3h 1v
 17v -35v 27h 1v -9v 19h 1v -22v 12h 1v -15h 1v 17v -16v 16h 1v -8v 24v -35h 1v 25v -6v 8h 1v -12v 25v -30h 1v 13h 1v 7v -7v 2h 1v 13v -11v 11h 1v -13h 1v -4v 6v -16h 1v 43v -27v 35h 1v -30v 18h 1v -3v 10v -17h 1v -5v 3h 1v 9v -22v 13h 1v 12v -23v
 23h 1v -3v 24h 1v -28v 7v -10v 10h 1v 12v -19v 11h 1v 8v -27h 1v 41v -38v 33h 1v -21v 16h 1v -19h 1v 3v -10v 17h 1v 9v -12h 1v -4h 1v 26v -29h 1v 24v -21v 4h 1v -14v 42h 1v -25v 25v -6h 1v -29v 96v -89h 1v -7v 35h 1v -16v 16h 1v -28v 12h 1v 39v -34h
 1v 18v -18v 11h 1v -20v 53h 1v -33v 61v -54h 1v -18v 72v -54h 1v 7v -20v 29h 1v -39v 77v -54h 1v -35v 89h 1v -77v 16v -11h 1v 18v -13v 51v -22h 1v -29v 20h 1v 19v -26h 1v 26v -33h 1v -25v 58h 1v 28v -61v 61h 1v -47v 9h 1v -16v 16h 1v -16v 26h 1v
 -10v 10v -19h 1v 47v -54v 38h 1v 16v -28h 1v 51v -39h 1v -56v 72h 1v -61v 45h 1v -22v 22v -51h 1v 29v -16v 116h 1v -109v 47h 1v -61h 1v 45v -22v 38v -28h 1v 28v -28h 1v -10v 38h 1v -54v 77h 1v -70v 148v -78v 39h 1v -129v 51h 1v -22v 38h 1v -47v 70h
 1v -61v 38v -47h 1v 70v -61v 22h 1v 16v -16v 16v -16h 1v 16v -47v 70h 1v 39v -109h 1v 109v -90v 12h 1v -12v 90h 1v -62v 23v -39h 1v 78v -62h 1v -38v 61v -39h 1v 39v -23h 1v -54v 77v -39h 1v 78v -39h 1v -23v 62v -62h 1v -28v 28v -16h 1v 78v -62h 1v
 -16v 78h 1v -90v 90h 1v -90v 90v -100h 1v 10v -10v 38h 1v 62v -39h 1v 39v -62v 101h 1v -117v 39v -23h 1v 101v -101h 1v 62h 1v 39v -78h 1v 39v -78h 1v 117h 1v -139v 61h 1v -61v 100h 1v -39h 1v -39v 78h 1v -78v 39v -23h 1v 101v -78h 1v -39v 117v -39h
 1v -62v 101v -101h 1v -28v 51h 1v 78v -78h 1v 39v -62v 62v -39h 1v -23v 101h 1v -101v 23h 1v 78v -101v 23h 1v -23v 62h 1v -39v 78v -117h 1v 117h 1v -78v 39h 1v 39v -78v 39h 1v -39v 39h 1v -78v 117v -39h 1v -62v 101h 1v -117v 39v -23h 1v 101v -78h 1v
 78v -78h 1v -23v 101h 1v -101v 101v -39h 1v -39v 39h 1v -39v 39h 1v -39v 39h 1v -39v 78h 1v -39h 1v 39v -39v 39h 1v -39v 39h 1v -78v 39h 1v 39h 1v -78v 78h 1v -78v 78h 1v -101v 62h 1v -39v 39v -62h 1v 101h 1v -39h 1v 39v -78v 39h 1v -62v 101v -39h
 1v 39h 1v -39v 39h 1v -78v 78h 1v -39h 1v -62v 101v -39h 1v 39h 1v -39v 39h 1v -78h 1v 78v -39v 39h 1v -39v 39h 1v -78h 1v 78v -39v 39h 1v -78v 78h 1v -39v 39h 1v -78v 78h 1v -39v 39v -78h 1v 78v -39v 39h 2v -78v 39h 1v 39v -39h 1v 39v -39v 39h 2v
 -78v 78h 1v -78v 39h 1v 39v -39h 1v -62v 101v -39v 39h 1v -39v 39h 1v -101v 101h 2v -39h 1v -62v 101h 2v -39v 39h 1v -39v 39h 1v -101v 101h 1v -39v 39h 3v -39v 39h 2v -39v 39v -39h 1v -39v 78v -39v 39h 3v -101h 1v 101v -39h 1v -39v 78h 1v -78h 1v
 78h 3v -39h 1v 39h 2v -39v 39h 3v -39v 39h 4v -39v 39h 4v -78v 78h 2v -78v 78h 6v -39v 39h 6v -39h 1v 39h 2v -78h 1v 78h 13v -78v 78h 1v -39h 1v 39v -39v 39h 4v -39v 39h 1v -39v 39h 4v -39h 1v 39h 1v -39v 39v -39h 1v 39v -39v 39h 1v -39v 39h 4v -39h
 1v 39v -39h 1v 39h 2v -39h 1v 39v -39h 1v 39v -39v 39h 3v -39v 39h 4v -39v 39h 8v -39h 1v 39h 7v -39v 39h 1v -39v 39v -39h 1v 39h 21v -39v 39h 104" fill="none" stroke="#000099"/>
<rect x="340" y="38" width="170" height="77" fill="white"/>
<path d="M340,115h 170" fill="none" stroke="black"/>
<path d="M510,115v -77" fill="none" stroke="black"/>
<path d="M510,38h -170" fill="none" stroke="black"/>
<path d="M340,38v 77" fill="none" stroke="black"/>
<text x="349" y="56" fill="black" font-size="15" font-family="Helvetica">
Entries 
</text>
<text x="464" y="56" fill="black" font-size="15" font-family="Helvetica">
 8362
</text>
<text x="349" y="82" fill="black" font-size="15" font-family="Helvetica">
Mean  
</text>
<text x="456" y="82" fill="black" font-size="15" font-family="Helvetica">
  1.462
</text>
<text x="448" y="82" fill="black" font-size="15" font-family="Times">
&#0177;
</text>
<text x="398" y="82" fill="black" font-size="15" font-family="Helvetica">
  152.4 
</text>
<text x="349" y="107" fill="black" font-size="15" font-family="Helvetica">
RMS   
</text>
<text x="456" y="107" fill="black" font-size="15" font-family="Helvetica">
  1.034
</text>
<text x="448" y="107" fill="black" font-size="15" font-family="Times">
&#0177;
</text>
<text x="398" y="107" fill="black" font-size="15" font-family="Helvetica">
  133.7 
</text>
<path d="M57,346h 453" fill="none" stroke="black"/>
<text x="411" y="371" fill="black" font-size="12" font-family="Helvetica">
Photons per event
</text>
<path d="M57,336v 10" fill="none" stroke="black"/>
<path d="M72,341v 5" fill="none" stroke="black"/>
<path d="M87,341v 5" fill="none" stroke="black"/>
<path d="M102,341v 5" fill="none" stroke="black"/>
<path d="M117,336v 10" fill="none" stroke="black"/>
<path d="M132,341v 5" fill="none" stroke="black"/>
<path d="M147,341v 5" fill="none" stroke="black"/>
<path d="M163,341v 5" fill="none" stroke="black"/>
<path d="M178,336v 10" fill="none" stroke="black"/>
<path d="M193,341v 5" fill="none" stroke="black"/>
<path d="M208,341v 5" fill="none" stroke="black"/>
<path d="M223,341v 5" fill="none" stroke="black"/>
<path d="M238,336v 10" fill="none" stroke="black"/>
<path d="M253,341v 5" fill="none" stroke="black"/>
<path d="M268,341v 5" fill="none" stroke="black"/>
<path d="M283,341v 5" fill="none" stroke="black"/>
<path d="M299,336v 10" fill="none" stroke="black"/>
<path d="M314,341v 5" fill="none" stroke="black"/>
<path d="M329,341v 5" fill="none" stroke="black"/>
<path d="M344,341v 5" fill="none" stroke="black"/>
<path d="M359,336v 10" fill="none" stroke="black"/>
<path d="M374,341v 5" fill="none" stroke="black"/>
<path d="M389,341v 5" fill="none" stroke="black"/>
<path d="M404,341v 5" fill="none" stroke="black"/>
<path d="M420,336v 10" fill="none" stroke="black"/>
<path d="M435,341v 5" fill="none" stroke="black"/>
<path d="M450,341v 5" fill="none" stroke="black"/>
<path d="M465,341v 5" fill="none" stroke="black"/>
<path d="M480,336v 10" fill="none" stroke="black"/>
<path d="M480,336v 10" fill="none" stroke="black"/>
<path d="M495,341v 5" fill="none" stroke="black"/>
<path d="M510,341v 5" fill="none" stroke="black"/>
<text x="53" y="358" fill="black" font-size="12" font-family="Helvetica">
0
</text>
<text x="106" y="358" fill="black" font-size="12" font-family="Helvetica">
200
</text>
<text x="167" y="358" fill="black" font-size="12" font-family="Helvetica">
400
</text>
<text x="227" y="358" fill="black" font-size="12" font-family="Helvetica">
600
</text>
<text x="288" y="358" fill="black" font-size="12" font-family="Helvetica">
800
</text>
<text x="345" y="358" fill="black" font-size="12" font-family="Helvetica">
1000
</text>
<text x="406" y="358" fill="black" font-size="12" font-family="Helvetica">
1200
</text>
<text x="466" y="358" fill="black" font-size="12" font-family="Helvetica">
1400
</text>
<path d="M57,346v -308" fill="none" stroke="black"/>
<g transform="rotate(-90,29,70)">
<text x="29" y="70" fill="black" font-size="12" font-family="Helvetica">
Count
</text>
</g>
<path d="M63,346h -6" fill="none" stroke="black"/>
<path d="M63,335h -6" fill="none" stroke="black"/>
<path d="M63,327h -6" fill="none" stroke="black"/>
<path d="M63,319h -6" fill="none" stroke="black"/>
<path d="M63,313h -6" fill="none" stroke="black"/>
<path d="M70,307h -13" fill="none" stroke="black"/>
<text x="52" y="313" text-anchor="end" fill="black" font-size="12" font-family="Helvetica">
1
</text>
<path d="M63,268h -6" fill="none" stroke="black"/>
<path d="M63,245h -6" fill="none" stroke="black"/>
<path d="M63,229h -6" fill="none" stroke="black"/>
<path d="M63,217h -6" fill="none" stroke="black"/>
<path d="M63,207h -6" fill="none" stroke="black"/>
<path d="M63,198h -6" fill="none" stroke="black"/>
<path d="M63,191h -6" fill="none" stroke="black"/>
<path d="M63,184h -6" fill="none" stroke="black"/>
<path d="M70,178h -13" fill="none" stroke="black"/>
<text x="52" y="184" text-anchor="end" fill="black" font-size="12" font-family="Helvetica">
10
</text>
<path d="M63,140h -6" fill="none" stroke="black"/>
<path d="M63,117h -6" fill="none" stroke="black"/>
<path d="M63,101h -6" fill="none" stroke="black"/>
<path d="M63,88h -6" fill="none" stroke="black"/>
<path d="M63,78h -6" fill="none" stroke="black"/>
<path d="M63,70h -6" fill="none" stroke="black"/>
<path d="M63,62h -6" fill="none" stroke="black"/>
<path d="M63,55h -6" fill="none" stroke="black"/>
<path d="M70,50h -13" fill="none" stroke="black"/>
<text x="47" y="50" fill="black" font-size="8" font-family="Helvetica">
2
</text>
<text x="33" y="55" fill="black" font-size="12" font-family="Helvetica">
10
</text>
<rect x="340" y="38" width="170" height="77" fill="white"/>
<path d="M340,115h 170" fill="none" stroke="black"/>
<path d="M510,115v -77" fill="none" stroke="black"/>
<path d="M510,38h -170" fill="none" stroke="black"/>
<path d="M340,38v 77" fill="none" stroke="black"/>
<text x="349" y="56" fill="black" font-size="15" font-family="Helvetica">
Entries 
</text>
<text x="464" y="56" fill="black" font-size="15" font-family="Helvetica">
 8362
</text>
<text x="349" y="82" fill="black" font-size="15" font-family="Helvetica">
Mean  
</text>
<text x="456" y="82" fill="black" font-size="15" font-family="Helvetica">
  1.462
</text>
<text x="448" y="82" fill="black" font-size="15" font-family="Times">
&#0177;
</text>
<text x="398" y="82" fill="black" font-size="15" font-family="Helvetica">
  152.4 
</text>
<text x="349" y="107" fill="black" font-size="15" font-family="Helvetica">
RMS   
</text>
<text x="456" y="107" fill="black" font-size="15" font-family="Helvetica">
  1.034
</text>
<text x="448" y="107" fill="black" font-size="15" font-family="Times">
&#0177;
</text>
<text x="398" y="107" fill="black" font-size="15" font-family="Helvetica">
  133.7 
</text>
<text x="104" y="17" fill="black" font-size="14" font-family="Helvetica">
Detected photon counts at all scintillators for muon decays
</text></svg>
