<?xml version="1.0" standalone="no"?>
<svg width="567" height="384" viewBox="0 0 567 384" xmlns="http://www.w3.org/2000/svg">
<title>
photon_counts50ns.svg
</title>
<desc>
Creator: ROOT Version 5.34/09
CreationDate: Mon Jan  6 16:50:24 2014</desc>
<defs>
</defs>
<rect x="0" y="0" width="567" height="384" fill="white"/>
<rect x="57" y="38" width="453" height="308" fill="white"/>
<rect x="57" y="38" width="453" height="308" fill="none" stroke="black"/>
<rect x="57" y="38" width="453" height="308" fill="white"/>
<rect x="57" y="38" width="453" height="308" fill="none" stroke="black"/>
<path d="M57,346h 1v -42h 1v 42v -42v 42v -42h 1v -124v 124h 1v -83v 17h 1v -65v 35v -74v 12h 1v 15v -19h 1v -37v 23h 1v 27v -52h 1v 25v -17h 1v 3v -11v 16h 1v -26v 16h 1v 7v -11v 2h 1v -12h 1v -2v 2v -4h 1v -5v 25v -4v 7h 1v -29h 1v 22v -12h 1v 14v
 -21h 1v 11v -13h 1v 14v -18h 1v 25v -24v 14h 1v -21v 23v -4h 1v 5v -12v 5h 1v 12v -6v 1v -9h 1v 20v -4h 1v -16v 6v -2h 1v 19v -11h 1v -13v 13v -10v 2h 1v 36v -20h 1v -25v 28h 1v -21v 23v -30h 1v 33v -12v 2h 1v -12v 22v -10h 1v -10v 35h 1v -18v 22h
 1v -27v 14v -22h 1v 35v -41v 22h 1v -8v 35h 1v -30v 15h 1v -15v 6v -22h 1v 25v -22v 28h 1v -17v 32v -39h 1v 27v -12v 3h 1v -11v 47v -45h 1v 9v -3h 1v 12h 1v 8v -4v 17h 1v -44v 27h 1v -19v 9v -19h 1v 57v -24v 38h 1v -46v 32h 1v -15v 15v -20h 1v -18v
 23h 1v 29v -42v 8h 1v -24v 51h 1v -7v 22h 1v -50v 4h 1v 19v -15v 9h 1v 6v -27h 1v 46v -49v 66h 1v -46v 22h 1v -31h 1v 13v -13v 19h 1v 19v -29h 1v 15v -20v 9h 1v 18v -27v 5h 1v 22v -12h 1v -30v 42h 1v -22v 37h 1v -33v 83v -87h 1v -5v 42h 1v -15v 24v
 -9h 1v -42v 20h 1v 55v -60h 1v 36v -24v 15h 1v -37v 57h 1v -28v 58v -58h 1v 58v -30h 1v 30h 1v -50v 75v -83h 1v -34v 92h 1v -77v 19v -7h 1v 24v -17v 41v -13h 1v -35v 24h 1v 24v -33h 1v 50v -65h 1v -12v 77v -17h 1v 17v -50v 50h 1v -50v 33h 1v -24v
 11h 1v -20v 50h 1v -41h 1v 66v -75v 116v -83h 1v 17v -17h 1v -13v 55v -42h 1v -55v 97h 1v -90v 48h 1v -24v 41v -58h 1v 28v -20v 116h 1v -107v 41h 1v -65h 1v 65v -41v 66v -42h 1v 17v -30h 1v 30h 1v -50v 75h 1v -55v 138v -83v 41h 1v -138v 72h 1v -41v
 66h 1v -66v 66h 1v -55v 55v -55h 1v 96v -107v 41h 1v -17h 1v 42v -66v 66h 1v 41v -107h 1v 107v -96v 55h 1v -42v 125h 1v -108v 25v -42h 1v 83v -66h 1v -30v 55v -25h 1v 25v -25h 1v -50v 75v -25h 1v 108v -83v 41v -41h 1v -25v 66v -41h 1v -55v 55v -42h
 1v 83v -66h 1v 108h 1v -138v 96h 1v -83v 125v -138h 1v -11v 41h 1v 66v -41h 1v 83v -108v 108h 1v -125v 42v -25v 25h 1v 83v -83h 1v 41v -41v 41h 1v 42v -83h 1v 41v -83h 1v 125h 1v -149v 66h 1v -55v 96h 1v -41h 1v -42v 83h 1v -83v 42v -25h 1v 108v
 -42h 1v -83v 125v -42h 1v -66v 108v -108h 1v -17v 42h 1v 83v -83h 1v 41v -66v 66v -41h 1v -25v 108h 1v -108v 66h 1v -41v 83v -108v 25h 1v 41h 1v -41v 83v -125h 1v 125v -42v 42h 1v -83v 83h 1v -83v 41h 1v -41v 41h 1v -83v 125v -42h 1v -66v 108h 1v
 -125v 42v -25h 1v 108v -83h 1v 83v -83h 1v -25v 108h 1v -108v 108v -42h 1v -41v 41h 1v -41v 41h 1v -41v 41h 1v -41v 83h 1v -42h 1v 42v -42v 42h 1v -42v 42h 1v -83v 41h 1v 42h 1v -83v 83h 1v -83v 83h 1v -108v 66h 1v -66h 1v 108h 1v -42h 1v 42v -83v
 41h 1v -66v 108v -42h 1v 42h 1v -42v 42h 1v -83v 83h 1v -42v 42v -42h 1v -66v 108v -42h 1v 42h 1v -42v 42h 1v -83h 1v 83v -42v 42h 1v -42v 42h 1v -83h 1v 83v -42v 42h 1v -83v 83h 1v -42v 42h 1v -83v 83h 1v -42v 42v -83h 1v 83v -42v 42h 2v -83v 41h
 1v 42v -42h 1v 42v -42v 42h 2v -83v 83h 1v -83v 41h 1v 42v -42h 1v -66v 108v -42v 42h 1v -42v 42h 1v -83v 83h 2v -42h 1v -66v 108h 2v -42v 42h 1v -42v 42h 1v -108v 108h 1v -42v 42h 3v -42v 42h 2v -42v 42v -42h 1v 42v -42v 42h 3v -108h 1v 108v -42h
 1v -41v 83h 1v -83h 1v 83h 3v -42h 1v 42h 2v -42v 42h 3v -42v 42h 4v -42v 42h 4v -83v 83h 2v -83v 83h 6v -42v 42h 6v -42h 1v 42h 2v -83h 1v 83h 13v -83v 83h 1v -42h 1v 42v -42v 42h 5v -42v 42h 4v -42h 1v 42h 1v -42v 42v -42h 1v 42v -42v 42h 1v -42v
 42h 4v -42h 1v 42v -42h 1v 42h 2v -42h 1v 42v -42h 1v 42v -42v 42h 3v -42v 42h 4v -42v 42h 8v -42h 1v 42h 7v -42v 42h 1v -42v 42v -42h 1v 42h 21v -42v 42h 104" fill="none" stroke="#000099"/>
<rect x="340" y="38" width="170" height="77" fill="white"/>
<path d="M340,115h 170" fill="none" stroke="black"/>
<path d="M510,115v -77" fill="none" stroke="black"/>
<path d="M510,38h -170" fill="none" stroke="black"/>
<path d="M340,38v 77" fill="none" stroke="black"/>
<text x="349" y="56" fill="black" font-size="15" font-family="Helvetica">
Entries 
</text>
<text x="463" y="56" fill="black" font-size="15" font-family="Helvetica">
 5974
</text>
<text x="349" y="82" fill="black" font-size="15" font-family="Helvetica">
Mean  
</text>
<text x="454" y="82" fill="black" font-size="15" font-family="Helvetica">
  1.883
</text>
<text x="445" y="82" fill="black" font-size="15" font-family="Times">
&#0177;
</text>
<text x="395" y="82" fill="black" font-size="15" font-family="Helvetica">
  168.1 
</text>
<text x="349" y="108" fill="black" font-size="15" font-family="Helvetica">
RMS   
</text>
<text x="456" y="107" fill="black" font-size="15" font-family="Helvetica">
  1.331
</text>
<text x="447" y="107" fill="black" font-size="15" font-family="Times">
&#0177;
</text>
<text x="395" y="107" fill="black" font-size="15" font-family="Helvetica">
  145.5 
</text>
<path d="M57,346h 453" fill="none" stroke="black"/>
<text x="411" y="371" fill="black" font-size="12" font-family="Helvetica">
Photons per event
</text>
<path d="M57,336v 10" fill="none" stroke="black"/>
<path d="M72,341v 5" fill="none" stroke="black"/>
<path d="M87,341v 5" fill="none" stroke="black"/>
<path d="M102,341v 5" fill="none" stroke="black"/>
<path d="M117,336v 10" fill="none" stroke="black"/>
<path d="M132,341v 5" fill="none" stroke="black"/>
<path d="M147,341v 5" fill="none" stroke="black"/>
<path d="M163,341v 5" fill="none" stroke="black"/>
<path d="M178,336v 10" fill="none" stroke="black"/>
<path d="M193,341v 5" fill="none" stroke="black"/>
<path d="M208,341v 5" fill="none" stroke="black"/>
<path d="M223,341v 5" fill="none" stroke="black"/>
<path d="M238,336v 10" fill="none" stroke="black"/>
<path d="M253,341v 5" fill="none" stroke="black"/>
<path d="M268,341v 5" fill="none" stroke="black"/>
<path d="M283,341v 5" fill="none" stroke="black"/>
<path d="M299,336v 10" fill="none" stroke="black"/>
<path d="M314,341v 5" fill="none" stroke="black"/>
<path d="M329,341v 5" fill="none" stroke="black"/>
<path d="M344,341v 5" fill="none" stroke="black"/>
<path d="M359,336v 10" fill="none" stroke="black"/>
<path d="M374,341v 5" fill="none" stroke="black"/>
<path d="M389,341v 5" fill="none" stroke="black"/>
<path d="M404,341v 5" fill="none" stroke="black"/>
<path d="M420,336v 10" fill="none" stroke="black"/>
<path d="M435,341v 5" fill="none" stroke="black"/>
<path d="M450,341v 5" fill="none" stroke="black"/>
<path d="M465,341v 5" fill="none" stroke="black"/>
<path d="M480,336v 10" fill="none" stroke="black"/>
<path d="M480,336v 10" fill="none" stroke="black"/>
<path d="M495,341v 5" fill="none" stroke="black"/>
<path d="M510,341v 5" fill="none" stroke="black"/>
<text x="53" y="358" fill="black" font-size="12" font-family="Helvetica">
0
</text>
<text x="106" y="358" fill="black" font-size="12" font-family="Helvetica">
200
</text>
<text x="167" y="358" fill="black" font-size="12" font-family="Helvetica">
400
</text>
<text x="227" y="358" fill="black" font-size="12" font-family="Helvetica">
600
</text>
<text x="288" y="358" fill="black" font-size="12" font-family="Helvetica">
800
</text>
<text x="345" y="358" fill="black" font-size="12" font-family="Helvetica">
1000
</text>
<text x="406" y="358" fill="black" font-size="12" font-family="Helvetica">
1200
</text>
<text x="466" y="358" fill="black" font-size="12" font-family="Helvetica">
1400
</text>
<path d="M57,346v -308" fill="none" stroke="black"/>
<g transform="rotate(-90,29,70)">
<text x="29" y="70" fill="black" font-size="12" font-family="Helvetica">
Count
</text>
</g>
<path d="M63,346h -6" fill="none" stroke="black"/>
<path d="M63,335h -6" fill="none" stroke="black"/>
<path d="M63,325h -6" fill="none" stroke="black"/>
<path d="M63,317h -6" fill="none" stroke="black"/>
<path d="M63,310h -6" fill="none" stroke="black"/>
<path d="M70,304h -13" fill="none" stroke="black"/>
<text x="52" y="310" text-anchor="end" fill="black" font-size="12" font-family="Helvetica">
1
</text>
<path d="M63,263h -6" fill="none" stroke="black"/>
<path d="M63,238h -6" fill="none" stroke="black"/>
<path d="M63,221h -6" fill="none" stroke="black"/>
<path d="M63,208h -6" fill="none" stroke="black"/>
<path d="M63,197h -6" fill="none" stroke="black"/>
<path d="M63,188h -6" fill="none" stroke="black"/>
<path d="M63,180h -6" fill="none" stroke="black"/>
<path d="M63,173h -6" fill="none" stroke="black"/>
<path d="M70,166h -13" fill="none" stroke="black"/>
<text x="52" y="172" text-anchor="end" fill="black" font-size="12" font-family="Helvetica">
10
</text>
<path d="M63,125h -6" fill="none" stroke="black"/>
<path d="M63,100h -6" fill="none" stroke="black"/>
<path d="M63,83h -6" fill="none" stroke="black"/>
<path d="M63,70h -6" fill="none" stroke="black"/>
<path d="M63,59h -6" fill="none" stroke="black"/>
<path d="M63,50h -6" fill="none" stroke="black"/>
<path d="M63,42h -6" fill="none" stroke="black"/>
<rect x="340" y="38" width="170" height="77" fill="white"/>
<path d="M340,115h 170" fill="none" stroke="black"/>
<path d="M510,115v -77" fill="none" stroke="black"/>
<path d="M510,38h -170" fill="none" stroke="black"/>
<path d="M340,38v 77" fill="none" stroke="black"/>
<text x="349" y="56" fill="black" font-size="15" font-family="Helvetica">
Entries 
</text>
<text x="463" y="56" fill="black" font-size="15" font-family="Helvetica">
 5974
</text>
<text x="349" y="82" fill="black" font-size="15" font-family="Helvetica">
Mean  
</text>
<text x="454" y="82" fill="black" font-size="15" font-family="Helvetica">
  1.883
</text>
<text x="445" y="82" fill="black" font-size="15" font-family="Times">
&#0177;
</text>
<text x="395" y="82" fill="black" font-size="15" font-family="Helvetica">
  168.1 
</text>
<text x="349" y="108" fill="black" font-size="15" font-family="Helvetica">
RMS   
</text>
<text x="456" y="107" fill="black" font-size="15" font-family="Helvetica">
  1.331
</text>
<text x="447" y="107" fill="black" font-size="15" font-family="Times">
&#0177;
</text>
<text x="395" y="107" fill="black" font-size="15" font-family="Helvetica">
  145.5 
</text>
<text x="425" y="16" fill="black" font-size="11" font-family="Helvetica">
 t &gt; 50ns
</text>
<text x="418" y="16" fill="black" font-size="11" font-family="Times">
&#0916;
</text>
<text x="97" y="16" fill="black" font-size="11" font-family="Helvetica">
Detected photon counts at all scintillators for muon decays with 
</text></svg>
