<?xml version="1.0" standalone="no"?>
<svg width="567" height="328" viewBox="0 0 567 328" xmlns="http://www.w3.org/2000/svg">
<title>
simulated_free_lifetime.svg
</title>
<desc>
Creator: ROOT Version 5.34/09
CreationDate: Mon Sep  9 23:05:25 2013</desc>
<defs>
</defs>
<rect x="0" y="0" width="567" height="328" fill="white"/>
<rect x="57" y="33" width="453" height="262" fill="white"/>
<rect x="57" y="33" width="453" height="262" fill="none" stroke="black"/>
<path d="M57,295h 453" fill="none" stroke="black"/>
<text x="391" y="317" fill="black" font-size="11" font-family="Helvetica">
Degrader thickness (mm)
</text>
<path d="M98,287v 8" fill="none" stroke="black"/>
<path d="M113,291v 4" fill="none" stroke="black"/>
<path d="M128,291v 4" fill="none" stroke="black"/>
<path d="M143,291v 4" fill="none" stroke="black"/>
<path d="M157,291v 4" fill="none" stroke="black"/>
<path d="M172,287v 8" fill="none" stroke="black"/>
<path d="M187,291v 4" fill="none" stroke="black"/>
<path d="M202,291v 4" fill="none" stroke="black"/>
<path d="M217,291v 4" fill="none" stroke="black"/>
<path d="M232,291v 4" fill="none" stroke="black"/>
<path d="M246,287v 8" fill="none" stroke="black"/>
<path d="M261,291v 4" fill="none" stroke="black"/>
<path d="M276,291v 4" fill="none" stroke="black"/>
<path d="M291,291v 4" fill="none" stroke="black"/>
<path d="M306,291v 4" fill="none" stroke="black"/>
<path d="M321,287v 8" fill="none" stroke="black"/>
<path d="M335,291v 4" fill="none" stroke="black"/>
<path d="M350,291v 4" fill="none" stroke="black"/>
<path d="M365,291v 4" fill="none" stroke="black"/>
<path d="M380,291v 4" fill="none" stroke="black"/>
<path d="M395,287v 8" fill="none" stroke="black"/>
<path d="M409,291v 4" fill="none" stroke="black"/>
<path d="M424,291v 4" fill="none" stroke="black"/>
<path d="M439,291v 4" fill="none" stroke="black"/>
<path d="M454,291v 4" fill="none" stroke="black"/>
<path d="M469,287v 8" fill="none" stroke="black"/>
<path d="M98,287v 8" fill="none" stroke="black"/>
<path d="M83,291v 4" fill="none" stroke="black"/>
<path d="M69,291v 4" fill="none" stroke="black"/>
<path d="M469,287v 8" fill="none" stroke="black"/>
<path d="M484,291v 4" fill="none" stroke="black"/>
<path d="M498,291v 4" fill="none" stroke="black"/>
<text x="95" y="306" fill="black" font-size="11" font-family="Helvetica">
0
</text>
<text x="170" y="306" fill="black" font-size="11" font-family="Helvetica">
1
</text>
<text x="243" y="306" fill="black" font-size="11" font-family="Helvetica">
2
</text>
<text x="318" y="306" fill="black" font-size="11" font-family="Helvetica">
3
</text>
<text x="391" y="306" fill="black" font-size="11" font-family="Helvetica">
4
</text>
<text x="466" y="306" fill="black" font-size="11" font-family="Helvetica">
5
</text>
<path d="M57,295v -262" fill="none" stroke="black"/>
<g transform="rotate(-90,28,91)">
<text x="28" y="91" fill="black" font-size="11" font-family="Helvetica">
Lifetime (ns)
</text>
</g>
<path d="M70,295h -13" fill="none" stroke="black"/>
<path d="M63,290h -6" fill="none" stroke="black"/>
<path d="M63,285h -6" fill="none" stroke="black"/>
<path d="M63,279h -6" fill="none" stroke="black"/>
<path d="M63,274h -6" fill="none" stroke="black"/>
<path d="M70,269h -13" fill="none" stroke="black"/>
<path d="M63,264h -6" fill="none" stroke="black"/>
<path d="M63,259h -6" fill="none" stroke="black"/>
<path d="M63,253h -6" fill="none" stroke="black"/>
<path d="M63,248h -6" fill="none" stroke="black"/>
<path d="M70,243h -13" fill="none" stroke="black"/>
<path d="M63,238h -6" fill="none" stroke="black"/>
<path d="M63,232h -6" fill="none" stroke="black"/>
<path d="M63,227h -6" fill="none" stroke="black"/>
<path d="M63,222h -6" fill="none" stroke="black"/>
<path d="M70,217h -13" fill="none" stroke="black"/>
<path d="M63,211h -6" fill="none" stroke="black"/>
<path d="M63,206h -6" fill="none" stroke="black"/>
<path d="M63,201h -6" fill="none" stroke="black"/>
<path d="M63,196h -6" fill="none" stroke="black"/>
<path d="M70,190h -13" fill="none" stroke="black"/>
<path d="M63,185h -6" fill="none" stroke="black"/>
<path d="M63,180h -6" fill="none" stroke="black"/>
<path d="M63,175h -6" fill="none" stroke="black"/>
<path d="M63,169h -6" fill="none" stroke="black"/>
<path d="M70,164h -13" fill="none" stroke="black"/>
<path d="M63,159h -6" fill="none" stroke="black"/>
<path d="M63,154h -6" fill="none" stroke="black"/>
<path d="M63,148h -6" fill="none" stroke="black"/>
<path d="M63,143h -6" fill="none" stroke="black"/>
<path d="M70,138h -13" fill="none" stroke="black"/>
<path d="M63,133h -6" fill="none" stroke="black"/>
<path d="M63,127h -6" fill="none" stroke="black"/>
<path d="M63,122h -6" fill="none" stroke="black"/>
<path d="M63,117h -6" fill="none" stroke="black"/>
<path d="M70,112h -13" fill="none" stroke="black"/>
<path d="M63,106h -6" fill="none" stroke="black"/>
<path d="M63,101h -6" fill="none" stroke="black"/>
<path d="M63,96h -6" fill="none" stroke="black"/>
<path d="M63,91h -6" fill="none" stroke="black"/>
<path d="M70,85h -13" fill="none" stroke="black"/>
<path d="M63,80h -6" fill="none" stroke="black"/>
<path d="M63,75h -6" fill="none" stroke="black"/>
<path d="M63,70h -6" fill="none" stroke="black"/>
<path d="M63,64h -6" fill="none" stroke="black"/>
<path d="M70,59h -13" fill="none" stroke="black"/>
<path d="M63,54h -6" fill="none" stroke="black"/>
<path d="M63,49h -6" fill="none" stroke="black"/>
<path d="M63,43h -6" fill="none" stroke="black"/>
<path d="M63,38h -6" fill="none" stroke="black"/>
<path d="M70,33h -13" fill="none" stroke="black"/>
<text x="30" y="299" fill="black" font-size="11" font-family="Helvetica">
2150
</text>
<text x="30" y="273" fill="black" font-size="11" font-family="Helvetica">
2155
</text>
<text x="30" y="246" fill="black" font-size="11" font-family="Helvetica">
2160
</text>
<text x="30" y="220" fill="black" font-size="11" font-family="Helvetica">
2165
</text>
<text x="30" y="194" fill="black" font-size="11" font-family="Helvetica">
2170
</text>
<text x="30" y="168" fill="black" font-size="11" font-family="Helvetica">
2175
</text>
<text x="30" y="142" fill="black" font-size="11" font-family="Helvetica">
2180
</text>
<text x="30" y="115" fill="black" font-size="11" font-family="Helvetica">
2185
</text>
<text x="30" y="89" fill="black" font-size="11" font-family="Helvetica">
2190
</text>
<text x="30" y="63" fill="black" font-size="11" font-family="Helvetica">
2195
</text>
<text x="30" y="37" fill="black" font-size="11" font-family="Helvetica">
2200
</text>
<text x="193" y="16" fill="black" font-size="14" font-family="Helvetica">
Simulated free muon lifetime
</text>
<g stroke="black" stroke-width="1" fill="none">
<line x1="97" y1="91" x2="98" y2="91"/>
<line x1="134" y1="195" x2="135" y2="195"/>
<line x1="171" y1="64" x2="172" y2="64"/>
<line x1="468" y1="233" x2="469" y2="233"/>
</g>
<path d="M98,91h -4" fill="none" stroke="black"/>
<path d="M94,92v -2" fill="none" stroke="black"/>
<path d="M98,91h 4" fill="none" stroke="black"/>
<path d="M102,92v -2" fill="none" stroke="black"/>
<path d="M98,91v -49" fill="none" stroke="black"/>
<path d="M97,42h 2" fill="none" stroke="black"/>
<path d="M98,91v 48" fill="none" stroke="black"/>
<path d="M97,139h 2" fill="none" stroke="black"/>
<path d="M135,195h -3" fill="none" stroke="black"/>
<path d="M132,196v -1" fill="none" stroke="black"/>
<path d="M135,195h 4" fill="none" stroke="black"/>
<path d="M139,196v -1" fill="none" stroke="black"/>
<path d="M135,195v -117" fill="none" stroke="black"/>
<path d="M134,78h 2" fill="none" stroke="black"/>
<path d="M135,195v 100" fill="none" stroke="black"/>
<path d="M134,295h 2" fill="none" stroke="black"/>
<path d="M172,64h -3" fill="none" stroke="black"/>
<path d="M169,65v -1" fill="none" stroke="black"/>
<path d="M172,64h 4" fill="none" stroke="black"/>
<path d="M176,65v -1" fill="none" stroke="black"/>
<path d="M172,64v -31" fill="none" stroke="black"/>
<path d="M172,33h 1" fill="none" stroke="black"/>
<path d="M172,64v 120" fill="none" stroke="black"/>
<path d="M172,184h 1" fill="none" stroke="black"/>
<path d="M469,233h -4" fill="none" stroke="black"/>
<path d="M465,234v -1" fill="none" stroke="black"/>
<path d="M469,233h 3" fill="none" stroke="black"/>
<path d="M472,234v -1" fill="none" stroke="black"/>
<path d="M469,233v -200" fill="none" stroke="black"/>
<path d="M468,33h 2" fill="none" stroke="black"/>
<path d="M469,233v 62" fill="none" stroke="black"/>
<path d="M468,295h 2" fill="none" stroke="black"/>
<text x="193" y="16" fill="black" font-size="14" font-family="Helvetica">
Simulated free muon lifetime
</text></svg>
