<?xml version="1.0" standalone="no"?>
<svg width="567" height="328" viewBox="0 0 567 328" xmlns="http://www.w3.org/2000/svg">
<title>
stopped_mom.svg
</title>
<desc>
Creator: ROOT Version 5.34/09
CreationDate: Mon Dec  2 21:15:22 2013</desc>
<defs>
</defs>
<rect x="0" y="0" width="567" height="328" fill="white"/>
<rect x="57" y="33" width="453" height="262" fill="white"/>
<rect x="57" y="33" width="453" height="262" fill="none" stroke="black"/>
<rect x="57" y="33" width="453" height="262" fill="white"/>
<rect x="57" y="33" width="453" height="262" fill="none" stroke="black"/>
<path d="M57,295h 22v -28h 5v -40h 4v -21h 5v -28h 5v -30h 4v -36h 5v -40h 4v -27h 5v 48h 4v 63h 5v -17h 4v 9h 5v 43h 4v 54h 5v 10h 4v 5h 5v -10h 4v 1h 5v 6h 5v 12h 4v -3h 5v 3h 4v 7h 9v -1h 5v 5h 4v 6h 5v -1h 4v 3h 5v 2h 9v 1h 9v 1h 9v -1h 5v 3h 4v
 -1h 5v 1h 9v 1h 4v -1h 5v 1h 240" fill="none" stroke="#000099"/>
<rect x="340" y="69" width="170" height="62" fill="white"/>
<path d="M340,131h 170" fill="none" stroke="black"/>
<path d="M510,131v -62" fill="none" stroke="black"/>
<path d="M510,69h -170" fill="none" stroke="black"/>
<path d="M340,69v 62" fill="none" stroke="black"/>
<text x="350" y="79" fill="black" font-size="10" font-family="Helvetica">
Decay muon momentum spectrum
</text>
<path d="M340,85h 170" fill="none" stroke="black"/>
<text x="348" y="97" fill="black" font-size="13" font-family="Helvetica">
Entries 
</text>
<text x="461" y="97" fill="black" font-size="13" font-family="Helvetica">
 10500
</text>
<text x="348" y="113" fill="black" font-size="13" font-family="Helvetica">
Mean  
</text>
<text x="457" y="113" fill="black" font-size="13" font-family="Helvetica">
 0.1899
</text>
<text x="450" y="113" fill="black" font-size="13" font-family="Times">
&#0177;
</text>
<text x="404" y="113" fill="black" font-size="13" font-family="Helvetica">
  44.63 
</text>
<text x="348" y="128" fill="black" font-size="13" font-family="Helvetica">
RMS   
</text>
<text x="457" y="128" fill="black" font-size="13" font-family="Helvetica">
 0.1343
</text>
<text x="450" y="128" fill="black" font-size="13" font-family="Times">
&#0177;
</text>
<text x="404" y="128" fill="black" font-size="13" font-family="Helvetica">
  19.46 
</text>
<path d="M57,295h 453" fill="none" stroke="black"/>
<text x="389" y="317" fill="black" font-size="11" font-family="Helvetica">
Initial momentum (MeV/c)
</text>
<path d="M57,287v 8" fill="none" stroke="black"/>
<path d="M72,291v 4" fill="none" stroke="black"/>
<path d="M87,291v 4" fill="none" stroke="black"/>
<path d="M102,291v 4" fill="none" stroke="black"/>
<path d="M117,291v 4" fill="none" stroke="black"/>
<path d="M132,287v 8" fill="none" stroke="black"/>
<path d="M147,291v 4" fill="none" stroke="black"/>
<path d="M163,291v 4" fill="none" stroke="black"/>
<path d="M178,291v 4" fill="none" stroke="black"/>
<path d="M193,291v 4" fill="none" stroke="black"/>
<path d="M208,287v 8" fill="none" stroke="black"/>
<path d="M223,291v 4" fill="none" stroke="black"/>
<path d="M238,291v 4" fill="none" stroke="black"/>
<path d="M253,291v 4" fill="none" stroke="black"/>
<path d="M268,291v 4" fill="none" stroke="black"/>
<path d="M283,287v 8" fill="none" stroke="black"/>
<path d="M299,291v 4" fill="none" stroke="black"/>
<path d="M314,291v 4" fill="none" stroke="black"/>
<path d="M329,291v 4" fill="none" stroke="black"/>
<path d="M344,291v 4" fill="none" stroke="black"/>
<path d="M359,287v 8" fill="none" stroke="black"/>
<path d="M374,291v 4" fill="none" stroke="black"/>
<path d="M389,291v 4" fill="none" stroke="black"/>
<path d="M404,291v 4" fill="none" stroke="black"/>
<path d="M420,291v 4" fill="none" stroke="black"/>
<path d="M435,287v 8" fill="none" stroke="black"/>
<path d="M450,291v 4" fill="none" stroke="black"/>
<path d="M465,291v 4" fill="none" stroke="black"/>
<path d="M480,291v 4" fill="none" stroke="black"/>
<path d="M495,291v 4" fill="none" stroke="black"/>
<path d="M510,287v 8" fill="none" stroke="black"/>
<text x="54" y="306" fill="black" font-size="11" font-family="Helvetica">
0
</text>
<text x="126" y="306" fill="black" font-size="11" font-family="Helvetica">
50
</text>
<text x="199" y="306" fill="black" font-size="11" font-family="Helvetica">
100
</text>
<text x="275" y="306" fill="black" font-size="11" font-family="Helvetica">
150
</text>
<text x="350" y="306" fill="black" font-size="11" font-family="Helvetica">
200
</text>
<text x="426" y="306" fill="black" font-size="11" font-family="Helvetica">
250
</text>
<text x="501" y="306" fill="black" font-size="11" font-family="Helvetica">
300
</text>
<path d="M57,295v -262" fill="none" stroke="black"/>
<g transform="rotate(-90,29,61)">
<text x="29" y="61" fill="black" font-size="11" font-family="Helvetica">
Count
</text>
</g>
<path d="M70,295h -13" fill="none" stroke="black"/>
<path d="M63,284h -6" fill="none" stroke="black"/>
<path d="M63,273h -6" fill="none" stroke="black"/>
<path d="M63,262h -6" fill="none" stroke="black"/>
<path d="M70,251h -13" fill="none" stroke="black"/>
<path d="M63,240h -6" fill="none" stroke="black"/>
<path d="M63,229h -6" fill="none" stroke="black"/>
<path d="M63,217h -6" fill="none" stroke="black"/>
<path d="M70,206h -13" fill="none" stroke="black"/>
<path d="M63,195h -6" fill="none" stroke="black"/>
<path d="M63,184h -6" fill="none" stroke="black"/>
<path d="M63,173h -6" fill="none" stroke="black"/>
<path d="M70,162h -13" fill="none" stroke="black"/>
<path d="M63,151h -6" fill="none" stroke="black"/>
<path d="M63,140h -6" fill="none" stroke="black"/>
<path d="M63,129h -6" fill="none" stroke="black"/>
<path d="M70,117h -13" fill="none" stroke="black"/>
<path d="M63,106h -6" fill="none" stroke="black"/>
<path d="M63,95h -6" fill="none" stroke="black"/>
<path d="M63,84h -6" fill="none" stroke="black"/>
<path d="M70,73h -13" fill="none" stroke="black"/>
<path d="M70,73h -13" fill="none" stroke="black"/>
<path d="M63,62h -6" fill="none" stroke="black"/>
<path d="M63,51h -6" fill="none" stroke="black"/>
<path d="M63,40h -6" fill="none" stroke="black"/>
<text x="48" y="299" fill="black" font-size="11" font-family="Helvetica">
0
</text>
<text x="36" y="254" fill="black" font-size="11" font-family="Helvetica">
200
</text>
<text x="36" y="210" fill="black" font-size="11" font-family="Helvetica">
400
</text>
<text x="36" y="166" fill="black" font-size="11" font-family="Helvetica">
600
</text>
<text x="36" y="121" fill="black" font-size="11" font-family="Helvetica">
800
</text>
<text x="30" y="77" fill="black" font-size="11" font-family="Helvetica">
1000
</text>
<rect x="340" y="69" width="170" height="62" fill="white"/>
<path d="M340,131h 170" fill="none" stroke="black"/>
<path d="M510,131v -62" fill="none" stroke="black"/>
<path d="M510,69h -170" fill="none" stroke="black"/>
<path d="M340,69v 62" fill="none" stroke="black"/>
<text x="350" y="79" fill="black" font-size="10" font-family="Helvetica">
Decay muon momentum spectrum
</text>
<path d="M340,85h 170" fill="none" stroke="black"/>
<text x="348" y="97" fill="black" font-size="13" font-family="Helvetica">
Entries 
</text>
<text x="461" y="97" fill="black" font-size="13" font-family="Helvetica">
 10500
</text>
<text x="348" y="113" fill="black" font-size="13" font-family="Helvetica">
Mean  
</text>
<text x="457" y="113" fill="black" font-size="13" font-family="Helvetica">
 0.1899
</text>
<text x="450" y="113" fill="black" font-size="13" font-family="Times">
&#0177;
</text>
<text x="404" y="113" fill="black" font-size="13" font-family="Helvetica">
  44.63 
</text>
<text x="348" y="128" fill="black" font-size="13" font-family="Helvetica">
RMS   
</text>
<text x="457" y="128" fill="black" font-size="13" font-family="Helvetica">
 0.1343
</text>
<text x="450" y="128" fill="black" font-size="13" font-family="Times">
&#0177;
</text>
<text x="404" y="128" fill="black" font-size="13" font-family="Helvetica">
  19.46 
</text>
<path d="M57,295h 22v -28h 5v -38h 4v -21h 5v -27h 5v -28h 4v -36h 5v -40h 4v -27h 5v 65h 4v 68h 5v -13h 4v 12h 5v 42h 4v 62h 5v 6h 4v 2h 5v -1h 14v 2h 4v -1h 9v 1h 5v -1h 9v 1h 317" fill="none" stroke="#ff0000"/>
<rect x="340" y="135" width="170" height="62" fill="white"/>
<path d="M340,197h 170" fill="none" stroke="black"/>
<path d="M510,197v -62" fill="none" stroke="black"/>
<path d="M510,135h -170" fill="none" stroke="black"/>
<path d="M340,135v 62" fill="none" stroke="black"/>
<text x="476" y="145" fill="black" font-size="7" font-family="Helvetica">
 t &gt; 50ns
</text>
<text x="472" y="145" fill="black" font-size="7" font-family="Times">
&#0916;
</text>
<text x="346" y="145" fill="black" font-size="7" font-family="Helvetica">
Decay muon momentum spectrum with 
</text>
<path d="M340,150h 170" fill="none" stroke="black"/>
<text x="348" y="163" fill="black" font-size="13" font-family="Helvetica">
Entries 
</text>
<text x="468" y="163" fill="black" font-size="13" font-family="Helvetica">
 7687
</text>
<text x="348" y="178" fill="black" font-size="13" font-family="Helvetica">
Mean  
</text>
<text x="457" y="178" fill="black" font-size="13" font-family="Helvetica">
 0.1098
</text>
<text x="450" y="178" fill="black" font-size="13" font-family="Times">
&#0177;
</text>
<text x="404" y="178" fill="black" font-size="13" font-family="Helvetica">
  36.35 
</text>
<text x="348" y="194" fill="black" font-size="13" font-family="Helvetica">
RMS   
</text>
<text x="449" y="194" fill="black" font-size="13" font-family="Helvetica">
 0.07767
</text>
<text x="442" y="194" fill="black" font-size="13" font-family="Times">
&#0177;
</text>
<text x="399" y="194" fill="black" font-size="13" font-family="Helvetica">
  9.631 
</text>
<rect x="340" y="135" width="170" height="62" fill="white"/>
<path d="M340,197h 170" fill="none" stroke="black"/>
<path d="M510,197v -62" fill="none" stroke="black"/>
<path d="M510,135h -170" fill="none" stroke="black"/>
<path d="M340,135v 62" fill="none" stroke="black"/>
<text x="476" y="145" fill="black" font-size="7" font-family="Helvetica">
 t &gt; 50ns
</text>
<text x="472" y="145" fill="black" font-size="7" font-family="Times">
&#0916;
</text>
<text x="346" y="145" fill="black" font-size="7" font-family="Helvetica">
Decay muon momentum spectrum with 
</text>
<path d="M340,150h 170" fill="none" stroke="black"/>
<text x="348" y="163" fill="black" font-size="13" font-family="Helvetica">
Entries 
</text>
<text x="468" y="163" fill="black" font-size="13" font-family="Helvetica">
 7687
</text>
<text x="348" y="178" fill="black" font-size="13" font-family="Helvetica">
Mean  
</text>
<text x="457" y="178" fill="black" font-size="13" font-family="Helvetica">
 0.1098
</text>
<text x="450" y="178" fill="black" font-size="13" font-family="Times">
&#0177;
</text>
<text x="404" y="178" fill="black" font-size="13" font-family="Helvetica">
  36.35 
</text>
<text x="348" y="194" fill="black" font-size="13" font-family="Helvetica">
RMS   
</text>
<text x="449" y="194" fill="black" font-size="13" font-family="Helvetica">
 0.07767
</text>
<text x="442" y="194" fill="black" font-size="13" font-family="Times">
&#0177;
</text>
<text x="399" y="194" fill="black" font-size="13" font-family="Helvetica">
  9.631 
</text>
<rect x="340" y="33" width="170" height="33" fill="none" stroke="black"/>
<path d="M340,66h 170" fill="none" stroke="black"/>
<path d="M510,66v -33" fill="none" stroke="black"/>
<path d="M510,33h -170" fill="none" stroke="black"/>
<path d="M340,33v 33" fill="none" stroke="black"/>
<text x="382" y="43" fill="black" font-size="5" font-family="Helvetica">
Decay muon momentum spectrum
</text>
<path d="M347,47h 29v -12h -29z" fill="white"/>
<path d="M347,41h 29" fill="none" stroke="#000099"/>
<g stroke="black" stroke-width="1" fill="none">
<line x1="360" y1="41" x2="361" y2="41"/>
</g>
<text x="476" y="59" fill="black" font-size="5" font-family="Helvetica">
 t &gt; 50ns
</text>
<text x="473" y="59" fill="black" font-size="5" font-family="Times">
&#0916;
</text>
<text x="382" y="59" fill="black" font-size="5" font-family="Helvetica">
Decay muon momentum spectrum with 
</text>
<path d="M347,63h 29v -11h -29z" fill="white"/>
<path d="M347,58h 29" fill="none" stroke="#ff0000"/>
<g stroke="black" stroke-width="1" fill="none">
<line x1="360" y1="58" x2="361" y2="58"/>
</g>
<text x="163" y="16" fill="black" font-size="16" font-family="Helvetica">
Decay muon momentum spectrum
</text></svg>
